<svg width="37" height="51" viewBox="0 0 37 51" fill="none" xmlns="http://www.w3.org/2000/svg">
<g clip-path="url(#clip0_2252_862)">
<path fill-rule="evenodd" clip-rule="evenodd" d="M18.9986 0C17.7328 0 16.4955 0.375353 15.443 1.07859C14.3905 1.78184 13.5702 2.78138 13.0858 3.95083C12.6014 5.12027 12.4747 6.4071 12.7216 7.64858C12.9686 8.89006 13.5781 10.0304 14.4732 10.9255C15.3682 11.8205 16.5086 12.4301 17.7501 12.677C18.9915 12.924 20.2784 12.7972 21.4478 12.3128C22.6173 11.8284 23.6168 11.0081 24.32 9.95565C25.0233 8.90317 25.3986 7.6658 25.3986 6.4C25.3986 4.70261 24.7244 3.07475 23.5241 1.87452C22.3239 0.674284 20.696 0 18.9986 0ZM18.9986 1.6C19.948 1.6 20.876 1.88151 21.6654 2.40895C22.4547 2.93638 23.07 3.68603 23.4333 4.56312C23.7966 5.4402 23.8916 6.40532 23.7064 7.33643C23.5212 8.26754 23.064 9.12282 22.3927 9.79411C21.7215 10.4654 20.8662 10.9226 19.9351 11.1078C19.004 11.293 18.0388 11.1979 17.1618 10.8346C16.2847 10.4713 15.535 9.85609 15.0076 9.06674C14.4802 8.27738 14.1986 7.34935 14.1986 6.4C14.1986 5.12696 14.7043 3.90606 15.6045 3.00589C16.5047 2.10571 17.7256 1.6 18.9986 1.6Z" fill="#F2F2F2"/>
<path fill-rule="evenodd" clip-rule="evenodd" d="M19 14.56C14.4744 14.56 10.5536 15.5 8.6 16.816C8.14988 17.0618 7.76797 17.4157 7.48866 17.8458C7.20935 18.276 7.04143 18.7688 7 19.28C7.04143 19.7912 7.20935 20.284 7.48866 20.7142C7.76797 21.1443 8.14988 21.4982 8.6 21.744C10.5536 23.06 14.4744 24 19 24C23.5256 24 27.4464 23.06 29.4 21.744C29.8501 21.4982 30.232 21.1443 30.5113 20.7142C30.7906 20.284 30.9586 19.7912 31 19.28C30.9586 18.7688 30.7906 18.276 30.5113 17.8458C30.232 17.4157 29.8501 17.0618 29.4 16.816C27.4464 15.5 23.5256 14.56 19 14.56ZM19 16.16C21.9721 16.0646 24.9319 16.5845 27.6936 17.6872C28.1952 17.9067 28.654 18.2133 29.0488 18.5928C29.1575 18.6714 29.246 18.7747 29.3071 18.8941C29.3681 19.0136 29.4 19.1458 29.4 19.28C29.4 19.4142 29.3681 19.5464 29.3071 19.6659C29.246 19.7853 29.1575 19.8886 29.0488 19.9672C28.654 20.3467 28.1952 20.6533 27.6936 20.8728C24.9319 21.9754 21.9721 22.4954 19 22.4C16.0279 22.4954 13.0681 21.9754 10.3064 20.8728C9.80477 20.6533 9.34596 20.3467 8.9512 19.9672C8.84248 19.8886 8.75397 19.7853 8.69292 19.6659C8.63188 19.5464 8.60005 19.4142 8.60005 19.28C8.60005 19.1458 8.63188 19.0136 8.69292 18.8941C8.75397 18.7747 8.84248 18.6714 8.9512 18.5928C9.34596 18.2133 9.80477 17.9067 10.3064 17.6872C13.0681 16.5845 16.0279 16.0646 19 16.16Z" fill="#F2F2F2"/>
</g>
<path d="M0.988281 41L3.69531 32.4102H4.69727L7.58008 41H6.51367L5.69336 38.3984H2.75195L1.97852 41H0.988281ZM3.02148 37.4727H5.40625L4.67383 35.0938C4.44727 34.3633 4.28125 33.7695 4.17578 33.3125C4.08594 33.8633 3.95898 34.4102 3.79492 34.9531L3.02148 37.4727ZM11.541 38.7207L12.3906 38.8555C12.293 39.5977 12.0469 40.1641 11.6523 40.5547C11.2617 40.9453 10.791 41.1406 10.2402 41.1406C9.57227 41.1406 9.02148 40.8672 8.58789 40.3203C8.1582 39.7695 7.94336 38.957 7.94336 37.8828C7.94336 36.8008 8.16016 35.9902 8.59375 35.4512C9.03125 34.9082 9.5918 34.6367 10.2754 34.6367C10.8027 34.6367 11.2461 34.8008 11.6055 35.1289C11.9688 35.457 12.2012 35.9492 12.3027 36.6055L11.4648 36.7637C11.3828 36.3418 11.2402 36.0273 11.0371 35.8203C10.834 35.6094 10.5898 35.5039 10.3047 35.5039C9.87891 35.5039 9.52539 35.6934 9.24414 36.0723C8.9668 36.4473 8.82812 37.0449 8.82812 37.8652C8.82812 38.7129 8.96094 39.3262 9.22656 39.7051C9.49609 40.084 9.83984 40.2734 10.2578 40.2734C10.5859 40.2734 10.8652 40.1484 11.0957 39.8984C11.3301 39.6445 11.4785 39.252 11.541 38.7207ZM16.4629 38.7207L17.3125 38.8555C17.2148 39.5977 16.9688 40.1641 16.5742 40.5547C16.1836 40.9453 15.7129 41.1406 15.1621 41.1406C14.4941 41.1406 13.9434 40.8672 13.5098 40.3203C13.0801 39.7695 12.8652 38.957 12.8652 37.8828C12.8652 36.8008 13.082 35.9902 13.5156 35.4512C13.9531 34.9082 14.5137 34.6367 15.1973 34.6367C15.7246 34.6367 16.168 34.8008 16.5273 35.1289C16.8906 35.457 17.123 35.9492 17.2246 36.6055L16.3867 36.7637C16.3047 36.3418 16.1621 36.0273 15.959 35.8203C15.7559 35.6094 15.5117 35.5039 15.2266 35.5039C14.8008 35.5039 14.4473 35.6934 14.166 36.0723C13.8887 36.4473 13.75 37.0449 13.75 37.8652C13.75 38.7129 13.8828 39.3262 14.1484 39.7051C14.418 40.084 14.7617 40.2734 15.1797 40.2734C15.5078 40.2734 15.7871 40.1484 16.0176 39.8984C16.252 39.6445 16.4004 39.252 16.4629 38.7207ZM17.7168 37.8887C17.7168 36.8145 17.9414 36.0039 18.3906 35.457C18.8438 34.9102 19.416 34.6367 20.1074 34.6367C20.7871 34.6367 21.3555 34.9102 21.8125 35.457C22.2695 36.0039 22.498 36.793 22.498 37.8242C22.498 38.9414 22.2734 39.7734 21.8242 40.3203C21.375 40.8672 20.8027 41.1406 20.1074 41.1406C19.4238 41.1406 18.8535 40.8672 18.3965 40.3203C17.9434 39.7695 17.7168 38.959 17.7168 37.8887ZM18.6016 37.8887C18.6016 38.6934 18.748 39.293 19.041 39.6875C19.334 40.0781 19.6973 40.2734 20.1309 40.2734C20.5371 40.2734 20.8848 40.0762 21.1738 39.6816C21.4668 39.2832 21.6133 38.6855 21.6133 37.8887C21.6133 37.0879 21.4668 36.4922 21.1738 36.1016C20.8809 35.707 20.5176 35.5098 20.084 35.5098C19.6738 35.5098 19.3242 35.707 19.0352 36.1016C18.7461 36.4961 18.6016 37.0918 18.6016 37.8887ZM26.8574 41V40.0859C26.6582 40.4375 26.4238 40.7012 26.1543 40.877C25.8848 41.0527 25.5801 41.1406 25.2402 41.1406C24.8379 41.1406 24.4941 41.0332 24.209 40.8184C23.9238 40.5996 23.7324 40.3242 23.6348 39.9922C23.541 39.6602 23.4941 39.207 23.4941 38.6328V34.7773H24.3555V38.2285C24.3555 38.8691 24.3867 39.2988 24.4492 39.5176C24.5156 39.7324 24.6348 39.9062 24.8066 40.0391C24.9824 40.168 25.1816 40.2324 25.4043 40.2324C25.8184 40.2324 26.1582 40.0625 26.4238 39.7227C26.6504 39.4297 26.7637 38.8926 26.7637 38.1113V34.7773H27.6309V41H26.8574ZM28.9844 41V34.7773H29.7637V35.6621C29.9512 35.3184 30.1797 35.0625 30.4492 34.8945C30.7227 34.7227 31.0352 34.6367 31.3867 34.6367C31.6602 34.6367 31.9121 34.6914 32.1426 34.8008C32.377 34.9062 32.5645 35.0469 32.7051 35.2227C32.8496 35.3945 32.957 35.6191 33.0273 35.8965C33.0977 36.1738 33.1328 36.5996 33.1328 37.1738V41H32.2656V37.2148C32.2656 36.7578 32.2266 36.4238 32.1484 36.2129C32.0703 36.002 31.9473 35.8398 31.7793 35.7266C31.6152 35.6094 31.4238 35.5508 31.2051 35.5508C30.791 35.5508 30.4609 35.7051 30.2148 36.0137C29.9688 36.3223 29.8457 36.8516 29.8457 37.6016V41H28.9844ZM36.3848 40.0566L36.502 40.9883C36.2637 41.0508 36.0488 41.082 35.8574 41.082C35.5566 41.082 35.3145 41.0234 35.1309 40.9062C34.9473 40.7852 34.8203 40.6211 34.75 40.4141C34.6836 40.207 34.6504 39.7949 34.6504 39.1777V35.5977H34.0176V34.7773H34.6504V33.2363L35.5117 32.6035V34.7773H36.3848V35.5977H35.5117V39.2363C35.5117 39.5723 35.5371 39.7891 35.5879 39.8867C35.6621 40.0273 35.8008 40.0977 36.0039 40.0977C36.1016 40.0977 36.2285 40.084 36.3848 40.0566Z" fill="#F2F2F2"/>
<path d="M11 50H27" stroke="#FFE998" stroke-linecap="round"/>
<defs>
<clipPath id="clip0_2252_862">
<rect width="24" height="24" fill="white" transform="translate(7)"/>
</clipPath>
</defs>
</svg>
