<svg width="32" height="51" viewBox="0 0 32 51" fill="none" xmlns="http://www.w3.org/2000/svg">
<g clip-path="url(#clip0_2262_415)">
<path d="M25.7291 12.4125V22.7625C25.7291 23.25 25.3541 23.625 24.8666 23.625H7.5041C7.0166 23.625 6.6416 23.25 6.6416 22.7625V12.4125" stroke="#F2F2F2" stroke-width="1.2"/>
<path fill-rule="evenodd" clip-rule="evenodd" d="M26.479 11.5125C26.479 12 26.104 12.375 25.6165 12.375H6.7165C6.229 12.375 5.854 12 5.854 11.5125V7.64998C5.854 7.16248 6.229 6.78748 6.7165 6.78748H25.6165C26.104 6.78748 26.479 7.16248 26.479 7.64998V11.5125Z" stroke="#F2F2F2" stroke-width="1.2"/>
<path fill-rule="evenodd" clip-rule="evenodd" d="M21.7165 4.04999C20.8915 4.87499 17.1415 7.27499 16.279 6.44999C15.454 5.62499 17.854 1.83749 18.679 1.01249C19.504 0.187488 20.854 0.187488 21.7165 1.01249C22.5415 1.83749 22.5415 3.22499 21.7165 4.04999Z" stroke="#F2F2F2" stroke-width="1.2"/>
<path fill-rule="evenodd" clip-rule="evenodd" d="M10.5792 4.04996C11.4042 4.87496 15.1917 7.31246 16.0167 6.48746C16.8417 5.66246 14.4417 1.87496 13.5792 1.04996C12.7542 0.224963 11.4042 0.224963 10.5792 1.04996C9.7542 1.83746 9.7542 3.18746 10.5792 4.04996Z" stroke="#F2F2F2" stroke-width="1.2"/>
<path d="M13.5791 9.82499C13.5791 9.82499 14.1416 8.09999 16.3166 7.23749V23.5875" stroke="#F2F2F2" stroke-width="1.2"/>
<path d="M16.1665 7.27496C16.1665 7.27496 17.029 10.275 20.029 10.725" stroke="#F2F2F2" stroke-width="1.2"/>
</g>
<path d="M1.38135 32.4102H4.19971C4.96924 32.4102 5.51025 32.4805 5.82275 32.6211C6.13525 32.7617 6.39893 33.0098 6.61377 33.3652C6.82861 33.7207 6.93604 34.123 6.93604 34.5723C6.93604 34.9863 6.84424 35.3613 6.66064 35.6973C6.47705 36.0293 6.23877 36.2754 5.9458 36.4355C6.36377 36.584 6.68994 36.8379 6.92432 37.1973C7.1626 37.5566 7.28174 37.9941 7.28174 38.5098C7.28174 39.1348 7.13135 39.6641 6.83057 40.0977C6.52979 40.5273 6.17432 40.793 5.76416 40.8945C5.479 40.9648 4.81689 41 3.77783 41H1.38135V32.4102ZM2.79932 33.8398V35.8262H3.73682C4.29932 35.8262 4.64697 35.8164 4.77979 35.7969C5.02197 35.7578 5.21143 35.6562 5.34814 35.4922C5.48486 35.3242 5.55322 35.0977 5.55322 34.8125C5.55322 34.5586 5.49658 34.3535 5.3833 34.1973C5.27393 34.0371 5.13916 33.9375 4.979 33.8984C4.82275 33.8594 4.36963 33.8398 3.61963 33.8398H2.79932ZM2.79932 37.2559V39.5527H4.11768C4.6958 39.5527 5.06689 39.5234 5.23096 39.4648C5.39502 39.4023 5.53174 39.2832 5.64111 39.1074C5.75439 38.9277 5.81104 38.7012 5.81104 38.4277C5.81104 38.1465 5.75049 37.916 5.62939 37.7363C5.51221 37.5527 5.354 37.4277 5.15479 37.3613C4.95947 37.291 4.55713 37.2559 3.94775 37.2559H2.79932ZM8.16064 37.8008C8.16064 37.1914 8.28174 36.6367 8.52393 36.1367C8.76611 35.6367 9.08252 35.2617 9.47314 35.0117C9.86377 34.7617 10.3032 34.6367 10.7915 34.6367C11.6118 34.6367 12.2563 34.959 12.7251 35.6035C13.1938 36.2441 13.4282 36.9941 13.4282 37.8535C13.4282 38.4941 13.3052 39.0723 13.0591 39.5879C12.8169 40.1035 12.4966 40.4922 12.0981 40.7539C11.7036 41.0117 11.27 41.1406 10.7974 41.1406C10.0396 41.1406 9.41064 40.8516 8.91064 40.2734C8.41064 39.6953 8.16064 38.8711 8.16064 37.8008ZM9.54346 37.8887C9.54346 38.5176 9.6665 38.9941 9.9126 39.3184C10.1587 39.6387 10.4556 39.7988 10.8032 39.7988C11.1431 39.7988 11.4341 39.6367 11.6763 39.3125C11.9185 38.9883 12.0396 38.5098 12.0396 37.877C12.0396 37.2598 11.9165 36.7891 11.6704 36.4648C11.4243 36.1406 11.1294 35.9785 10.7856 35.9785C10.4458 35.9785 10.1528 36.1406 9.90674 36.4648C9.66455 36.7891 9.54346 37.2637 9.54346 37.8887ZM19.1294 41H17.7759V37.8242C17.7759 37.1875 17.7505 36.7637 17.6997 36.5527C17.6489 36.3418 17.5532 36.1797 17.4126 36.0664C17.2759 35.9531 17.1196 35.8965 16.9438 35.8965C16.7173 35.8965 16.5122 35.9707 16.3286 36.1191C16.145 36.2637 16.0161 36.4648 15.9419 36.7227C15.8677 36.9805 15.8306 37.4668 15.8306 38.1816V41H14.4771V34.7773H15.731V35.6914C15.9536 35.3398 16.2036 35.0762 16.481 34.9004C16.7622 34.7246 17.0728 34.6367 17.4126 34.6367C17.8071 34.6367 18.1392 34.7402 18.4087 34.9473C18.6821 35.1504 18.8696 35.4141 18.9712 35.7383C19.0767 36.0586 19.1294 36.5234 19.1294 37.1328V41ZM23.8521 41V40.0684C23.6646 40.4043 23.4185 40.668 23.1138 40.8594C22.8091 41.0469 22.4907 41.1406 22.1587 41.1406C21.8228 41.1406 21.522 41.0527 21.2563 40.877C20.9907 40.7012 20.7915 40.4512 20.6587 40.127C20.5298 39.8027 20.4653 39.332 20.4653 38.7148V34.7773H21.8188V37.6367C21.8188 38.4531 21.8384 38.9727 21.8774 39.1953C21.9204 39.4141 22.0122 39.584 22.1528 39.7051C22.2935 39.8262 22.4634 39.8867 22.6626 39.8867C22.8892 39.8867 23.0981 39.8086 23.2896 39.6523C23.481 39.4922 23.606 39.2891 23.6646 39.043C23.7271 38.793 23.7583 38.2461 23.7583 37.4023V34.7773H25.106V41H23.8521ZM26.0376 39.2246L27.3911 38.9727C27.5083 39.625 27.8716 39.9512 28.481 39.9512C28.8052 39.9512 29.0474 39.8887 29.2075 39.7637C29.3677 39.6387 29.4478 39.4766 29.4478 39.2773C29.4478 39.1406 29.4126 39.0332 29.3423 38.9551C29.2681 38.877 29.1216 38.8086 28.9028 38.75C27.7935 38.457 27.0884 38.1777 26.7876 37.9121C26.4126 37.5801 26.2251 37.125 26.2251 36.5469C26.2251 35.9688 26.4087 35.5059 26.7759 35.1582C27.1431 34.8105 27.6763 34.6367 28.3755 34.6367C29.0435 34.6367 29.5513 34.7676 29.8989 35.0293C30.2466 35.2871 30.4907 35.7051 30.6313 36.2832L29.3599 36.5703C29.2466 36.0703 28.9263 35.8203 28.3989 35.8203C28.0669 35.8203 27.8306 35.8691 27.6899 35.9668C27.5493 36.0605 27.479 36.1836 27.479 36.3359C27.479 36.4727 27.5435 36.5859 27.6724 36.6758C27.8013 36.7695 28.2017 36.9102 28.8735 37.0977C29.6274 37.3086 30.1392 37.5645 30.4087 37.8652C30.6743 38.166 30.8071 38.5664 30.8071 39.0664C30.8071 39.668 30.6001 40.1641 30.186 40.5547C29.7759 40.9453 29.2075 41.1406 28.481 41.1406C27.8208 41.1406 27.2817 40.9785 26.8638 40.6543C26.4458 40.3262 26.1704 39.8496 26.0376 39.2246Z" fill="#F2F2F2"/>
<path d="M8.1665 50H24.1665" stroke="#FFE998" stroke-linecap="round"/>
<defs>
<clipPath id="clip0_2262_415">
<rect width="24" height="24" fill="white" transform="translate(4.1665)"/>
</clipPath>
</defs>
</svg>
