<svg width="28" height="50" viewBox="0 0 28 50" fill="none" xmlns="http://www.w3.org/2000/svg">
<path d="M17 18H11" stroke="#F2F2F2" stroke-width="1.5" stroke-linecap="round"/>
<path d="M23.6359 12.9579L23.3572 14.8952C22.8697 18.2827 22.626 19.9764 21.451 20.9882C20.2759 22 18.5526 22 15.1061 22H12.8939C9.44737 22 7.72409 22 6.54903 20.9882C5.37396 19.9764 5.13025 18.2827 4.64284 14.8952L4.36407 12.9579C3.98463 10.3208 3.79491 9.00229 4.33537 7.87495C4.87583 6.7476 6.02619 6.06234 8.32691 4.69181L9.71175 3.86687C11.801 2.62229 12.8457 2 14 2C15.1543 2 16.199 2.62229 18.2882 3.86687L19.6731 4.69181C21.9738 6.06234 23.1242 6.7476 23.6646 7.87495" stroke="#F2F2F2" stroke-width="1.5" stroke-linecap="round"/>
<path d="M0.720703 41V32.4102H2.13867V35.791H4.92773V32.4102H6.35156V41H4.92773V37.2441H2.13867V41H0.720703ZM7.49414 37.8008C7.49414 37.1914 7.61523 36.6367 7.85742 36.1367C8.09961 35.6367 8.41602 35.2617 8.80664 35.0117C9.19727 34.7617 9.63672 34.6367 10.125 34.6367C10.9453 34.6367 11.5898 34.959 12.0586 35.6035C12.5273 36.2441 12.7617 36.9941 12.7617 37.8535C12.7617 38.4941 12.6387 39.0723 12.3926 39.5879C12.1504 40.1035 11.8301 40.4922 11.4316 40.7539C11.0371 41.0117 10.6035 41.1406 10.1309 41.1406C9.37305 41.1406 8.74414 40.8516 8.24414 40.2734C7.74414 39.6953 7.49414 38.8711 7.49414 37.8008ZM8.87695 37.8887C8.87695 38.5176 9 38.9941 9.24609 39.3184C9.49219 39.6387 9.78906 39.7988 10.1367 39.7988C10.4766 39.7988 10.7676 39.6367 11.0098 39.3125C11.252 38.9883 11.373 38.5098 11.373 37.877C11.373 37.2598 11.25 36.7891 11.0039 36.4648C10.7578 36.1406 10.4629 35.9785 10.1191 35.9785C9.7793 35.9785 9.48633 36.1406 9.24023 36.4648C8.99805 36.7891 8.87695 37.2637 8.87695 37.8887ZM13.7168 34.7773H14.959V35.627C15.1816 35.2949 15.4258 35.0469 15.6914 34.8828C15.957 34.7188 16.2441 34.6367 16.5527 34.6367C16.8809 34.6367 17.1641 34.7188 17.4023 34.8828C17.6445 35.0469 17.8418 35.2949 17.9941 35.627C18.2207 35.2949 18.4629 35.0469 18.7207 34.8828C18.9824 34.7188 19.2598 34.6367 19.5527 34.6367C19.9004 34.6367 20.1992 34.7207 20.4492 34.8887C20.7031 35.0527 20.8945 35.2891 21.0234 35.5977C21.1562 35.9062 21.2227 36.3809 21.2227 37.0215V41H19.8691V37.4434C19.8691 36.8223 19.8145 36.4102 19.7051 36.207C19.5957 36 19.4121 35.8965 19.1543 35.8965C18.8535 35.8965 18.6113 36.041 18.4277 36.3301C18.2441 36.6152 18.1523 37.1758 18.1523 38.0117V41H16.7988V37.5898C16.7988 36.9141 16.7617 36.4785 16.6875 36.2832C16.5898 36.0254 16.3926 35.8965 16.0957 35.8965C15.8965 35.8965 15.7129 35.9629 15.5449 36.0957C15.377 36.2285 15.2559 36.4238 15.1816 36.6816C15.1074 36.9355 15.0703 37.3672 15.0703 37.9766V41H13.7168V34.7773ZM25.5352 39.0195L26.877 39.2949C26.6973 39.9199 26.418 40.3848 26.0391 40.6895C25.6602 40.9902 25.1992 41.1406 24.6562 41.1406C23.9023 41.1406 23.3203 40.8887 22.9102 40.3848C22.4258 39.7988 22.1836 38.9785 22.1836 37.9238C22.1836 36.8848 22.4277 36.0527 22.916 35.4277C23.3301 34.9004 23.8652 34.6367 24.5215 34.6367C25.252 34.6367 25.8242 34.9062 26.2383 35.4453C26.7148 36.0625 26.9531 36.9727 26.9531 38.1758L26.9473 38.3633H23.5664C23.5742 38.8555 23.6836 39.2363 23.8945 39.5059C24.1094 39.7754 24.3672 39.9102 24.668 39.9102C25.1016 39.9102 25.3906 39.6133 25.5352 39.0195ZM25.6113 37.3555C25.5996 36.8711 25.4961 36.5078 25.3008 36.2656C25.1055 36.0195 24.873 35.8965 24.6035 35.8965C24.3184 35.8965 24.0781 36.0234 23.8828 36.2773C23.6836 36.5352 23.5859 36.8945 23.5898 37.3555H25.6113Z" fill="#F2F2F2"/>
<line x1="6" y1="49.5" x2="22" y2="49.5" stroke="#FFE998"/>
</svg>
