<svg width="121" height="120" viewBox="0 0 121 120" fill="none" xmlns="http://www.w3.org/2000/svg">
<path d="M120.5 60C120.5 76.1036 114.156 90.7255 103.83 101.502C92.909 112.902 77.5331 120 60.5 120C43.4669 120 28.091 112.902 17.17 101.502C6.84446 90.7255 0.5 76.1036 0.5 60C0.5 26.8633 27.3633 0 60.5 0C93.6367 0 120.5 26.8633 120.5 60Z" fill="#1B1B1B"/>
<path d="M60.4998 63.2201C74.0372 63.2201 85.0113 52.2459 85.0113 38.7085C85.0113 25.1712 74.0372 14.197 60.4998 14.197C46.9625 14.197 35.9883 25.1712 35.9883 38.7085C35.9883 52.2459 46.9625 63.2201 60.4998 63.2201Z" fill="#F2F2F2"/>
<path d="M103.83 101.502C92.9089 112.902 77.5331 120 60.4999 120C43.4668 120 28.091 112.902 17.1699 101.502C23.3373 83.5 40.4078 70.5593 60.4999 70.5593C80.5921 70.5593 97.6626 83.5 103.83 101.502Z" fill="#F2F2F2"/>
</svg>
