<svg width="36" height="36" viewBox="0 0 36 36" fill="none" xmlns="http://www.w3.org/2000/svg">
<circle cx="18" cy="18" r="18" fill="url(#paint0_linear_2322_110)"/>
<path d="M11.7578 26V8.82031H18.2031C19.5156 8.82031 20.5664 8.99609 21.3555 9.34766C22.1523 9.69141 22.7734 10.2266 23.2188 10.9531C23.6719 11.6719 23.8984 12.4258 23.8984 13.2148C23.8984 13.9492 23.6992 14.6406 23.3008 15.2891C22.9023 15.9375 22.3008 16.4609 21.4961 16.8594C22.5352 17.1641 23.332 17.6836 23.8867 18.418C24.4492 19.1523 24.7305 20.0195 24.7305 21.0195C24.7305 21.8242 24.5586 22.5742 24.2148 23.2695C23.8789 23.957 23.4609 24.4883 22.9609 24.8633C22.4609 25.2383 21.832 25.5234 21.0742 25.7188C20.3242 25.9062 19.4023 26 18.3086 26H11.7578ZM14.0312 16.0391H17.7461C18.7539 16.0391 19.4766 15.9727 19.9141 15.8398C20.4922 15.668 20.9258 15.3828 21.2148 14.9844C21.5117 14.5859 21.6602 14.0859 21.6602 13.4844C21.6602 12.9141 21.5234 12.4141 21.25 11.9844C20.9766 11.5469 20.5859 11.25 20.0781 11.0938C19.5703 10.9297 18.6992 10.8477 17.4648 10.8477H14.0312V16.0391ZM14.0312 23.9727H18.3086C19.043 23.9727 19.5586 23.9453 19.8555 23.8906C20.3789 23.7969 20.8164 23.6406 21.168 23.4219C21.5195 23.2031 21.8086 22.8867 22.0352 22.4727C22.2617 22.0508 22.375 21.5664 22.375 21.0195C22.375 20.3789 22.2109 19.8242 21.8828 19.3555C21.5547 18.8789 21.0977 18.5469 20.5117 18.3594C19.9336 18.1641 19.0977 18.0664 18.0039 18.0664H14.0312V23.9727Z" fill="#F2F2F2"/>
<defs>
<linearGradient id="paint0_linear_2322_110" x1="18" y1="0" x2="18" y2="36" gradientUnits="userSpaceOnUse">
<stop stop-color="#FFE998"/>
<stop offset="1" stop-color="#57370D"/>
</linearGradient>
</defs>
</svg>
