<svg width="94" height="84" viewBox="0 0 94 84" fill="none" xmlns="http://www.w3.org/2000/svg">
<path d="M20.842 79.7499L1.3926 45.8929C0.00845543 43.4846 0.00845543 40.5166 1.3926 38.1074L20.842 4.25042C22.2261 1.84119 24.7831 0.357666 27.5505 0.357666H66.4492C69.2167 0.357666 71.7736 1.84119 73.1577 4.25042L92.6071 38.1074C93.9913 40.5158 93.9913 43.4837 92.6071 45.8929L73.1577 79.7499C71.7745 82.1591 69.2167 83.6427 66.4492 83.6427H27.5505C24.7831 83.6427 22.2261 82.1583 20.842 79.7499Z" fill="url(#paint0_linear_2249_101)"/>
<path d="M20.8421 79.7497L21.1506 79.571L1.70119 45.714C1.04133 44.5647 0.711408 43.2832 0.711408 42C0.711408 40.7177 1.04133 39.4353 1.70119 38.286L21.1506 4.429C22.4703 2.13117 24.9103 0.714999 27.5506 0.714999H66.4494C69.0896 0.714999 71.5297 2.13031 72.8494 4.429L92.2988 38.286C92.9587 39.4353 93.2886 40.7177 93.2886 42C93.2886 43.2823 92.9587 44.5647 92.2988 45.714L72.8494 79.571C71.5297 81.8688 69.0896 83.285 66.4494 83.285H27.5506C24.9103 83.285 22.4703 81.8697 21.1506 79.571L20.8421 79.7497L20.5337 79.9285C21.9814 82.4483 24.656 84 27.5506 84H66.4494C69.344 84 72.0186 82.4483 73.4655 79.9285L92.9148 46.0715C93.6383 44.8116 94 43.4058 94 42C94 40.5942 93.6383 39.1884 92.9148 37.9285L73.4655 4.0715C72.0177 1.55175 69.3431 0 66.4494 0H27.5506C24.656 0 21.9814 1.55175 20.5337 4.0715L1.08515 37.9285C0.361717 39.1884 0 40.5942 0 42C0 43.4058 0.361717 44.8116 1.08515 46.0715L20.5337 79.9285L20.8421 79.7497Z" fill="url(#paint1_linear_2249_101)"/>
<path d="M78.351 19.6537L13.3975 60.424L22.8416 76.8646C24.1192 79.0891 26.4811 80.4595 29.0372 80.4595H64.9632C67.5192 80.4595 69.8811 79.0891 71.1587 76.8646L89.1217 45.5948C90.3994 43.3703 90.3994 40.6295 89.1217 38.4042L78.351 19.6537Z" fill="url(#paint2_radial_2249_101)"/>
<path d="M71.1592 7.13427C69.8816 4.90983 67.5197 3.53943 64.9636 3.53943H29.0377C26.4816 3.53943 24.1197 4.90983 22.8421 7.13427L4.8791 38.4041C3.6015 40.6286 3.6015 43.3694 4.8791 45.5947L13.3979 60.424L78.3514 19.6536L71.1592 7.13427Z" fill="url(#paint3_radial_2249_101)"/>
<path d="M24.065 75.0989L7.01193 45.4127C5.79876 43.3006 5.79876 40.6988 7.01193 38.5866L24.065 8.90044C25.2782 6.78827 27.5207 5.48779 29.947 5.48779H64.0532C66.4796 5.48779 68.722 6.78913 69.9352 8.90044L86.9883 38.5866C88.2015 40.6988 88.2015 43.3006 86.9883 45.4127L69.9352 75.0989C68.722 77.2111 66.4796 78.5116 64.0532 78.5116H29.947C27.5207 78.5116 25.2782 77.2111 24.065 75.0989Z" fill="url(#paint4_linear_2249_101)"/>
<path d="M24.0653 75.0988L24.3737 74.92L7.32061 45.2338C6.74582 44.233 6.45799 43.1165 6.45799 41.9999C6.45799 40.8825 6.74496 39.766 7.32061 38.7661L24.3737 9.07988C25.5233 7.07824 27.6481 5.846 29.9472 5.846H64.0535C66.3526 5.846 68.4774 7.0791 69.627 9.07988L86.6801 38.7661C87.2549 39.7669 87.5419 40.8834 87.5419 41.9999C87.5419 43.1165 87.254 44.233 86.6801 45.2338L69.627 74.92C68.4774 76.9216 66.3526 78.1539 64.0535 78.1539H29.9472C27.6481 78.1539 25.5233 76.9208 24.3737 74.92L24.0653 75.0988L23.7568 75.2775C25.0336 77.5002 27.3929 78.8698 29.9472 78.8698H64.0535C66.6069 78.8698 68.9663 77.5011 70.2439 75.2775L87.297 45.5913C87.9354 44.48 88.255 43.24 88.255 41.9999C88.255 40.7599 87.9354 39.519 87.297 38.4077L70.2439 8.72153C68.9671 6.49882 66.6078 5.12927 64.0535 5.12927H29.9472C27.3937 5.12927 25.0344 6.49882 23.7568 8.72153L6.70372 38.4077C6.06534 39.519 5.74572 40.7591 5.74658 41.9999C5.74658 43.24 6.06534 44.4808 6.70372 45.5913L23.7568 75.2775L24.0653 75.0988Z" fill="url(#paint5_linear_2249_101)"/>
<path d="M80.641 36.1323C80.6393 34.3724 80.0378 32.6618 78.9252 31.2905C77.8186 29.9193 76.1603 28.9012 74.1937 28.6188L60.0652 26.5558L53.7468 13.6885C53.0732 12.3112 52.043 11.2326 50.8556 10.528C49.6674 9.82078 48.3313 9.47363 47.0005 9.47363C45.6696 9.47363 44.3335 9.82078 43.1453 10.528C41.9579 11.2326 40.9277 12.3103 40.2541 13.6885L33.9357 26.5558L19.8072 28.6188C17.8406 28.9012 16.1823 29.9193 15.0757 31.2905C13.9639 32.6618 13.3616 34.3724 13.3599 36.1323C13.3522 38.0303 14.0954 40.013 15.6376 41.5164L25.8611 51.5324L23.4476 65.6743C23.372 66.1173 23.3351 66.5576 23.3351 66.9911C23.3325 69.124 24.2355 71.035 25.611 72.3692C26.9857 73.7076 28.851 74.5236 30.8615 74.5262C32.0274 74.528 33.2354 74.243 34.3636 73.6454L47.0005 66.9678L59.6373 73.6454C60.7655 74.243 61.9726 74.5271 63.1394 74.5262C65.1499 74.5236 67.0152 73.7076 68.3899 72.3692C69.7654 71.035 70.6684 69.124 70.6659 66.9911C70.6659 66.5576 70.6289 66.1173 70.5533 65.6743L68.1398 51.5315L78.3633 41.5155C79.9064 40.013 80.6487 38.0303 80.641 36.1323Z" fill="url(#paint6_linear_2249_101)"/>
<path d="M80.6413 36.1324L80.9833 36.1315C80.9816 34.293 80.3526 32.5056 79.191 31.073L79.185 31.0661L79.191 31.0738C78.032 29.6378 76.2964 28.5739 74.2421 28.2786L60.2924 26.2416L54.0539 13.5366C53.3502 12.0979 52.2736 10.9702 51.0295 10.2319C49.7871 9.49182 48.3901 9.12915 46.9999 9.12915C45.6098 9.12915 44.2128 9.49182 42.9704 10.2319C41.7271 10.9702 40.6506 12.0971 39.9469 13.5366L33.7075 26.2407L19.7569 28.2777C17.7026 28.5731 15.9679 29.6361 14.808 31.073L14.8089 31.0721C13.6464 32.5047 13.0183 34.2922 13.0166 36.1306V36.1298V36.1591C13.0166 38.1383 13.7942 40.1987 15.3983 41.7617L15.3974 41.7608L25.492 51.6507L23.1094 65.6147L23.4471 65.6726H23.7891L23.1094 65.6147L23.1086 65.6208L23.7831 65.7348L23.1094 65.6139C23.0304 66.0758 22.9917 66.5361 22.9917 66.9886L22.996 67.0413L23.3346 66.9886L22.9926 66.9826V66.9955C22.9926 69.2243 23.9368 71.2199 25.3734 72.6136C26.8082 74.0108 28.7577 74.8648 30.861 74.8665H30.8696C32.0888 74.8665 33.3484 74.5686 34.5229 73.946L47.0008 67.353L59.4787 73.946C60.6533 74.5677 61.9128 74.8665 63.132 74.8665H63.1363H63.138H63.1406C65.2439 74.8639 67.1934 74.0099 68.6291 72.6127C70.0656 71.2199 71.009 69.2243 71.009 66.9955V66.9903L70.7375 66.9912L71.0082 67.005L71.009 66.9903L70.7366 66.9912L71.0073 67.005V66.9964V66.9877C71.0073 66.5352 70.9686 66.0741 70.8896 65.613L68.5062 51.6481L78.6008 41.7582L78.5999 41.7591C80.204 40.1952 80.9816 38.1349 80.9816 36.1565V36.1315V36.128L80.6413 36.1324L80.2994 36.1289V36.16C80.2994 37.9596 79.5914 39.8403 78.1256 41.2695L67.7725 51.4124L70.216 65.733C70.2882 66.157 70.3234 66.5776 70.3234 66.9912V66.9921H70.6653L70.3234 66.9748L70.3225 66.9972V66.9998C70.3225 69.0308 69.4616 70.8511 68.1505 72.1231C66.8359 73.4028 65.0549 74.1817 63.1372 74.1835V74.5271L63.1415 74.1835H63.1294C62.0211 74.1835 60.8706 73.9123 59.7949 73.3424L46.9982 66.581L34.2015 73.3424C33.125 73.9123 31.9754 74.1835 30.867 74.1835H30.861C28.9442 74.1809 27.1631 73.4028 25.8485 72.1231C24.5366 70.8511 23.6757 69.0308 23.6765 66.9998V66.9981L23.6774 66.9687L23.6731 66.9394L23.3397 66.9912H23.6765L23.6731 66.9394L23.3388 66.9912H23.6765C23.6765 66.5776 23.7109 66.157 23.7839 65.733L23.1103 65.613L23.4471 65.6752L23.7848 65.7304L23.4471 65.6726L23.1052 65.6734L23.7848 65.7304L26.2283 51.4115L15.8751 41.2703L15.8743 41.2695C14.4076 39.8412 13.7005 37.9604 13.7005 36.16V36.1332C13.7022 34.4519 14.277 32.8173 15.339 31.5073L15.3398 31.5065C16.3941 30.2008 17.9758 29.2285 19.8549 28.9591L34.1629 26.8693L40.5612 13.8397C41.2056 12.5228 42.1885 11.4943 43.3192 10.8234C44.4525 10.1481 45.7283 9.81651 47.0008 9.81651C48.2724 9.81651 49.5483 10.1481 50.6816 10.8234C51.8122 11.4943 52.796 12.5228 53.4404 13.8397L59.8387 26.8693L74.1459 28.9591C76.0249 29.2285 77.6076 30.2008 78.6609 31.5065L78.6618 31.5073C79.7237 32.8173 80.2985 34.4511 80.3002 36.1324H80.6413Z" fill="url(#paint7_linear_2249_101)"/>
<mask id="mask0_2249_101" style="mask-type:luminance" maskUnits="userSpaceOnUse" x="15" y="11" width="64" height="62">
<path d="M51.9044 14.6013L58.7005 28.4418L73.8978 30.6611C78.3845 31.3165 80.1767 36.8586 76.9299 40.0389L65.9331 50.8122L68.5287 66.0241C69.2951 70.5152 64.6048 73.9408 60.5916 71.82L46.9993 64.6381L33.407 71.82C29.3937 73.9408 24.7034 70.5152 25.4698 66.0241L28.0654 50.8122L17.0687 40.0389C13.8219 36.8577 15.6133 31.3165 20.1008 30.6611L35.298 28.4418L42.0942 14.6013C44.0995 10.5142 49.8973 10.5142 51.9044 14.6013Z" fill="white"/>
</mask>
<g mask="url(#mask0_2249_101)">
<path d="M51.9044 14.6013L58.7005 28.4418L73.8978 30.6611C78.3845 31.3165 80.1767 36.8586 76.9299 40.0389L65.9331 50.8122L68.5287 66.0241C69.2951 70.5152 64.6048 73.9408 60.5916 71.82L46.9993 64.6381L33.407 71.82C29.3937 73.9408 24.7034 70.5152 25.4698 66.0241L28.0654 50.8122L17.0687 40.0389C13.8219 36.8577 15.6133 31.3165 20.1008 30.6611L35.298 28.4418L42.0942 14.6013C44.0995 10.5142 49.8973 10.5142 51.9044 14.6013Z" fill="url(#paint8_linear_2249_101)"/>
</g>
<mask id="mask1_2249_101" style="mask-type:luminance" maskUnits="userSpaceOnUse" x="15" y="11" width="64" height="62">
<path d="M51.9044 14.6013L58.7005 28.4418L73.8978 30.6611C78.3845 31.3165 80.1767 36.8586 76.9299 40.0389L65.9331 50.8122L68.5287 66.0241C69.2951 70.5152 64.6048 73.9408 60.5916 71.82L46.9993 64.6381L33.407 71.82C29.3937 73.9408 24.7034 70.5152 25.4698 66.0241L28.0654 50.8122L17.0687 40.0389C13.8219 36.8577 15.6133 31.3165 20.1008 30.6611L35.298 28.4418L42.0942 14.6013C44.0995 10.5142 49.8973 10.5142 51.9044 14.6013Z" fill="white"/>
</mask>
<g mask="url(#mask1_2249_101)">
<path d="M51.1628 14.8648L58.1454 29.0853L73.7594 31.3659C77.5673 31.922 79.088 36.6256 76.3326 39.325L65.0344 50.3936L67.7013 66.0233C68.3517 69.8349 64.3711 72.7424 60.9644 70.9428L46.9992 63.5632L33.034 70.942C29.6273 72.7416 25.6467 69.8349 26.2971 66.0225L28.964 50.3927L17.6658 39.3241C14.9104 36.6247 16.4311 31.9211 20.239 31.365L35.853 29.0844L42.8356 14.864C44.5393 11.3969 49.4599 11.3969 51.1628 14.8648Z" fill="url(#paint9_linear_2249_101)"/>
</g>
<mask id="mask2_2249_101" style="mask-type:luminance" maskUnits="userSpaceOnUse" x="15" y="11" width="64" height="62">
<path d="M51.9044 14.6013L58.7005 28.4418L73.8978 30.6611C78.3845 31.3165 80.1767 36.8586 76.9299 40.0389L65.9331 50.8122L68.5287 66.0241C69.2951 70.5152 64.6048 73.9408 60.5916 71.82L46.9993 64.6381L33.407 71.82C29.3937 73.9408 24.7034 70.5152 25.4698 66.0241L28.0654 50.8122L17.0687 40.0389C13.8219 36.8577 15.6133 31.3165 20.1008 30.6611L35.298 28.4418L42.0942 14.6013C44.0995 10.5142 49.8973 10.5142 51.9044 14.6013Z" fill="white"/>
</mask>
<g mask="url(#mask2_2249_101)">
<path opacity="0.6" d="M50.6324 15.1233L57.725 29.5674L70.117 31.3773C74.8589 32.0699 76.7525 37.9263 73.3209 41.288L64.3536 50.0726L66.0161 59.8166C67.0119 65.6514 60.9186 70.1011 55.7042 67.3465L48.2259 63.395C47.4569 62.9892 46.5384 62.9892 45.7703 63.395L38.292 67.3465C33.0784 70.1011 26.9842 65.6514 27.98 59.8166L29.6425 50.0726L18.1664 38.8295C15.7616 36.4738 17.089 32.3687 20.4123 31.8834L36.272 29.5674L43.3646 15.1233C44.8518 12.0966 49.146 12.0966 50.6324 15.1233Z" fill="url(#paint10_linear_2249_101)"/>
</g>
<mask id="mask3_2249_101" style="mask-type:luminance" maskUnits="userSpaceOnUse" x="15" y="11" width="64" height="62">
<path d="M51.9044 14.6013L58.7005 28.4418L73.8978 30.6611C78.3845 31.3165 80.1767 36.8586 76.9299 40.0389L65.9331 50.8122L68.5287 66.0241C69.2951 70.5152 64.6048 73.9408 60.5916 71.82L46.9993 64.6381L33.407 71.82C29.3937 73.9408 24.7034 70.5152 25.4698 66.0241L28.0654 50.8122L17.0687 40.0389C13.8219 36.8577 15.6133 31.3165 20.1008 30.6611L35.298 28.4418L42.0942 14.6013C44.0995 10.5142 49.8973 10.5142 51.9044 14.6013Z" fill="white"/>
</mask>
<g mask="url(#mask3_2249_101)">
<path d="M49.767 15.7402L56.9893 30.4486L66.3038 31.8087C71.6324 32.5867 73.7606 39.1684 69.9046 42.9464L63.1643 49.5497L64.7134 58.6262C65.6413 64.0612 59.9647 68.2061 55.1077 65.6406L48.1415 61.9594C47.4249 61.5812 46.57 61.5812 45.8534 61.9594L38.8872 65.6406C34.0302 68.207 28.3536 64.0621 29.2815 58.6262L30.8306 49.5497L19.1448 38.1011C17.3122 36.3059 18.3234 33.1773 20.8563 32.8077L37.0064 30.4486L44.2287 15.7402C45.362 13.4338 48.6346 13.4338 49.767 15.7402Z" fill="url(#paint11_linear_2249_101)"/>
</g>
<mask id="mask4_2249_101" style="mask-type:luminance" maskUnits="userSpaceOnUse" x="15" y="11" width="64" height="62">
<path d="M51.9044 14.6013L58.7005 28.4418L73.8978 30.6611C78.3845 31.3165 80.1767 36.8586 76.9299 40.0389L65.9331 50.8122L68.5287 66.0241C69.2951 70.5152 64.6048 73.9408 60.5916 71.82L46.9993 64.6381L33.407 71.82C29.3937 73.9408 24.7034 70.5152 25.4698 66.0241L28.0654 50.8122L17.0687 40.0389C13.8219 36.8577 15.6133 31.3165 20.1008 30.6611L35.298 28.4418L42.0942 14.6013C44.0995 10.5142 49.8973 10.5142 51.9044 14.6013Z" fill="white"/>
</mask>
<g mask="url(#mask4_2249_101)">
<path d="M58.8494 46.3307C59.8752 48.2313 64.7013 47.5958 69.6287 44.9111C74.5561 42.2264 77.7196 38.5081 76.6946 36.6074C75.6696 34.7068 70.8427 35.3424 65.9153 38.0271C60.987 40.7118 57.8235 44.4292 58.8494 46.3307Z" fill="url(#paint12_linear_2249_101)"/>
</g>
<mask id="mask5_2249_101" style="mask-type:luminance" maskUnits="userSpaceOnUse" x="15" y="11" width="64" height="62">
<path d="M51.9044 14.6013L58.7005 28.4418L73.8978 30.6611C78.3845 31.3165 80.1767 36.8586 76.9299 40.0389L65.9331 50.8122L68.5287 66.0241C69.2951 70.5152 64.6048 73.9408 60.5916 71.82L46.9993 64.6381L33.407 71.82C29.3937 73.9408 24.7034 70.5152 25.4698 66.0241L28.0654 50.8122L17.0687 40.0389C13.8219 36.8577 15.6133 31.3165 20.1008 30.6611L35.298 28.4418L42.0942 14.6013C44.0995 10.5142 49.8973 10.5142 51.9044 14.6013Z" fill="white"/>
</mask>
<g mask="url(#mask5_2249_101)">
<path d="M67.7008 66.023L66.918 61.4352C66.0503 56.3482 60.1709 53.945 56.0167 56.9785C51.8625 60.0121 52.3196 66.3745 56.8647 68.776L60.9647 70.9417C64.3706 72.7413 68.3512 69.8346 67.7008 66.023Z" fill="url(#paint13_linear_2249_101)"/>
</g>
<mask id="mask6_2249_101" style="mask-type:luminance" maskUnits="userSpaceOnUse" x="15" y="11" width="64" height="62">
<path d="M51.9044 14.6013L58.7005 28.4418L73.8978 30.6611C78.3845 31.3165 80.1767 36.8586 76.9299 40.0389L65.9331 50.8122L68.5287 66.0241C69.2951 70.5152 64.6048 73.9408 60.5916 71.82L46.9993 64.6381L33.407 71.82C29.3937 73.9408 24.7034 70.5152 25.4698 66.0241L28.0654 50.8122L17.0687 40.0389C13.8219 36.8577 15.6133 31.3165 20.1008 30.6611L35.298 28.4418L42.0942 14.6013C44.0995 10.5142 49.8973 10.5142 51.9044 14.6013Z" fill="white"/>
</mask>
<g mask="url(#mask6_2249_101)">
<path d="M28.8397 35.102C33.2164 37.9248 35.6754 41.9195 34.3316 44.0239C32.9878 46.1283 28.3508 45.5463 23.9741 42.7234C19.5974 39.9006 17.1393 35.9059 18.4831 33.8015C19.8268 31.6971 24.463 32.2791 28.8397 35.102Z" fill="url(#paint14_linear_2249_101)"/>
</g>
<mask id="mask7_2249_101" style="mask-type:luminance" maskUnits="userSpaceOnUse" x="15" y="11" width="64" height="62">
<path d="M51.9044 14.6013L58.7005 28.4418L73.8978 30.6611C78.3845 31.3165 80.1767 36.8586 76.9299 40.0389L65.9331 50.8122L68.5287 66.0241C69.2951 70.5152 64.6048 73.9408 60.5916 71.82L46.9993 64.6381L33.407 71.82C29.3937 73.9408 24.7034 70.5152 25.4698 66.0241L28.0654 50.8122L17.0687 40.0389C13.8219 36.8577 15.6133 31.3165 20.1008 30.6611L35.298 28.4418L42.0942 14.6013C44.0995 10.5142 49.8973 10.5142 51.9044 14.6013Z" fill="white"/>
</mask>
<g mask="url(#mask7_2249_101)">
<path opacity="0.36" d="M53.4387 75.217C73.1037 40.9611 61.4153 -2.8316 27.3306 -22.5959C25.7961 -23.4853 24.2367 -24.2893 22.6669 -25.0518C48.6418 -7.08445 56.9295 28.2181 40.8997 56.1427C29.7105 75.6341 9.49134 86.6207 -11.3843 86.853L7.54185 109.249C26.2068 104.972 43.1164 93.1973 53.4387 75.217Z" fill="url(#paint15_linear_2249_101)"/>
</g>
<mask id="mask8_2249_101" style="mask-type:luminance" maskUnits="userSpaceOnUse" x="15" y="11" width="64" height="62">
<path d="M51.9044 14.6013L58.7005 28.4418L73.8978 30.6611C78.3845 31.3165 80.1767 36.8586 76.9299 40.0389L65.9331 50.8122L68.5287 66.0241C69.2951 70.5152 64.6048 73.9408 60.5916 71.82L46.9993 64.6381L33.407 71.82C29.3937 73.9408 24.7034 70.5152 25.4698 66.0241L28.0654 50.8122L17.0687 40.0389C13.8219 36.8577 15.6133 31.3165 20.1008 30.6611L35.298 28.4418L42.0942 14.6013C44.0995 10.5142 49.8973 10.5142 51.9044 14.6013Z" fill="white"/>
</mask>
<g mask="url(#mask8_2249_101)">
<path opacity="0.6" d="M68.1362 97.552C96.0734 48.8856 79.468 -13.3286 31.046 -41.4069C28.8663 -42.6711 26.6504 -43.8126 24.42 -44.8964C61.3211 -19.3706 73.0963 30.7819 50.3227 70.4529C34.4261 98.1435 5.70178 113.752 -23.9556 114.082L2.93177 145.899C29.4497 139.824 53.4725 123.096 68.1362 97.552Z" fill="url(#paint16_linear_2249_101)"/>
</g>
<mask id="mask9_2249_101" style="mask-type:luminance" maskUnits="userSpaceOnUse" x="15" y="11" width="64" height="62">
<path d="M51.9044 14.6013L58.7005 28.4418L73.8978 30.6611C78.3845 31.3165 80.1767 36.8586 76.9299 40.0389L65.9331 50.8122L68.5287 66.0241C69.2951 70.5152 64.6048 73.9408 60.5916 71.82L46.9993 64.6381L33.407 71.82C29.3937 73.9408 24.7034 70.5152 25.4698 66.0241L28.0654 50.8122L17.0687 40.0389C13.8219 36.8577 15.6133 31.3165 20.1008 30.6611L35.298 28.4418L42.0942 14.6013C44.0995 10.5142 49.8973 10.5142 51.9044 14.6013Z" fill="white"/>
</mask>
<g mask="url(#mask9_2249_101)">
<path opacity="0.4" d="M46.6688 44.0544C62.8716 44.0544 76.0065 36.5982 76.0065 27.4005C76.0065 18.2028 62.8716 10.7466 46.6688 10.7466C30.466 10.7466 17.3311 18.2028 17.3311 27.4005C17.3311 36.5982 30.466 44.0544 46.6688 44.0544Z" fill="url(#paint17_linear_2249_101)"/>
</g>
<mask id="mask10_2249_101" style="mask-type:luminance" maskUnits="userSpaceOnUse" x="15" y="11" width="64" height="62">
<path d="M51.9044 14.6013L58.7005 28.4418L73.8978 30.6611C78.3845 31.3165 80.1767 36.8586 76.9299 40.0389L65.9331 50.8122L68.5287 66.0241C69.2951 70.5152 64.6048 73.9408 60.5916 71.82L46.9993 64.6381L33.407 71.82C29.3937 73.9408 24.7034 70.5152 25.4698 66.0241L28.0654 50.8122L17.0687 40.0389C13.8219 36.8577 15.6133 31.3165 20.1008 30.6611L35.298 28.4418L42.0942 14.6013C44.0995 10.5142 49.8973 10.5142 51.9044 14.6013Z" fill="white"/>
</mask>
<g mask="url(#mask10_2249_101)">
<path d="M52.7001 18.4449C53.5568 20.6625 53.6942 22.6771 53.0069 22.9456C52.3195 23.2142 51.0677 21.6339 50.2111 19.4164C49.3545 17.1989 49.217 15.1843 49.9044 14.9157C50.5917 14.6472 51.8435 16.2274 52.7001 18.4449Z" fill="#F2F2F2"/>
<path d="M54.9352 25.8183C55.3374 26.8591 55.346 27.8265 54.9541 27.9794C54.5622 28.1323 53.9185 27.4128 53.5163 26.3719C53.1141 25.3311 53.1055 24.3637 53.4974 24.2108C53.8893 24.0588 54.533 24.7783 54.9352 25.8183Z" fill="#F2F2F2"/>
</g>
<mask id="mask11_2249_101" style="mask-type:luminance" maskUnits="userSpaceOnUse" x="15" y="11" width="64" height="62">
<path d="M51.9044 14.6013L58.7005 28.4418L73.8978 30.6611C78.3845 31.3165 80.1767 36.8586 76.9299 40.0389L65.9331 50.8122L68.5287 66.0241C69.2951 70.5152 64.6048 73.9408 60.5916 71.82L46.9993 64.6381L33.407 71.82C29.3937 73.9408 24.7034 70.5152 25.4698 66.0241L28.0654 50.8122L17.0687 40.0389C13.8219 36.8577 15.6133 31.3165 20.1008 30.6611L35.298 28.4418L42.0942 14.6013C44.0995 10.5142 49.8973 10.5142 51.9044 14.6013Z" fill="white"/>
</mask>
<g mask="url(#mask11_2249_101)">
<path d="M37.07 67.5059C35.6292 68.41 34.2201 68.7545 33.922 68.2753C33.6238 67.796 34.5509 66.6743 35.9909 65.7702C37.4317 64.8661 41.1185 63.0915 41.4166 63.5708C41.7148 64.05 38.51 66.6018 37.07 67.5059Z" fill="url(#paint18_linear_2249_101)"/>
</g>
<mask id="mask12_2249_101" style="mask-type:luminance" maskUnits="userSpaceOnUse" x="15" y="11" width="64" height="62">
<path d="M51.9044 14.6013L58.7005 28.4418L73.8978 30.6611C78.3845 31.3165 80.1767 36.8586 76.9299 40.0389L65.9331 50.8122L68.5287 66.0241C69.2951 70.5152 64.6048 73.9408 60.5916 71.82L46.9993 64.6381L33.407 71.82C29.3937 73.9408 24.7034 70.5152 25.4698 66.0241L28.0654 50.8122L17.0687 40.0389C13.8219 36.8577 15.6133 31.3165 20.1008 30.6611L35.298 28.4418L42.0942 14.6013C44.0995 10.5142 49.8973 10.5142 51.9044 14.6013Z" fill="white"/>
</mask>
<g mask="url(#mask12_2249_101)">
<path d="M59.7502 66.6521C60.7643 67.1099 61.4648 67.7542 61.3135 68.092C61.1631 68.4297 60.2186 68.3321 59.2036 67.8743C58.1887 67.4165 55.8854 66.0483 56.0358 65.7106C56.1871 65.3728 58.7361 66.1943 59.7502 66.6521Z" fill="url(#paint19_linear_2249_101)"/>
</g>
<mask id="mask13_2249_101" style="mask-type:luminance" maskUnits="userSpaceOnUse" x="15" y="11" width="64" height="62">
<path d="M51.9044 14.6013L58.7005 28.4418L73.8978 30.6611C78.3845 31.3165 80.1767 36.8586 76.9299 40.0389L65.9331 50.8122L68.5287 66.0241C69.2951 70.5152 64.6048 73.9408 60.5916 71.82L46.9993 64.6381L33.407 71.82C29.3937 73.9408 24.7034 70.5152 25.4698 66.0241L28.0654 50.8122L17.0687 40.0389C13.8219 36.8577 15.6133 31.3165 20.1008 30.6611L35.298 28.4418L42.0942 14.6013C44.0995 10.5142 49.8973 10.5142 51.9044 14.6013Z" fill="white"/>
</mask>
<g mask="url(#mask13_2249_101)">
<path d="M21.8685 37.0045C23.5963 38.4379 24.5517 40.1425 24.0019 40.8117C23.452 41.481 21.6065 40.8618 19.8786 39.4284C18.1508 37.9949 17.1954 36.2904 17.7453 35.6211C18.2943 34.9519 20.1407 35.571 21.8685 37.0045Z" fill="#F2F2F2"/>
</g>
<defs>
<linearGradient id="paint0_linear_2249_101" x1="8.66818" y1="3.47472" x2="80.6576" y2="75.1025" gradientUnits="userSpaceOnUse">
<stop stop-color="#EBB838"/>
<stop offset="0.0682" stop-color="#F3D15D"/>
<stop offset="0.1359" stop-color="#FAE67A"/>
<stop offset="0.1942" stop-color="#FEF28C"/>
<stop offset="0.2366" stop-color="#FFF692"/>
<stop offset="0.3724" stop-color="#EDC96B"/>
<stop offset="0.5098" stop-color="#DDA34A"/>
<stop offset="0.6199" stop-color="#D48B36"/>
<stop offset="0.6882" stop-color="#D0822E"/>
<stop offset="1" stop-color="#EBB533"/>
</linearGradient>
<linearGradient id="paint1_linear_2249_101" x1="6.18768" y1="0.981391" x2="72.3003" y2="66.7619" gradientUnits="userSpaceOnUse">
<stop stop-color="#EBB533"/>
<stop offset="0.3118" stop-color="#D0822E"/>
<stop offset="0.3801" stop-color="#D48B36"/>
<stop offset="0.4902" stop-color="#DDA34A"/>
<stop offset="0.6276" stop-color="#EDC96B"/>
<stop offset="0.7634" stop-color="#FFF692"/>
<stop offset="0.8058" stop-color="#FEF28C"/>
<stop offset="0.8641" stop-color="#FAE67A"/>
<stop offset="0.9318" stop-color="#F3D15D"/>
<stop offset="1" stop-color="#EBB838"/>
</linearGradient>
<radialGradient id="paint2_radial_2249_101" cx="0" cy="0" r="1" gradientUnits="userSpaceOnUse" gradientTransform="translate(69.4225 78.5925) scale(40.6644 40.8696)">
<stop stop-color="white" stop-opacity="0.5"/>
<stop offset="0.7419" stop-color="white" stop-opacity="0"/>
</radialGradient>
<radialGradient id="paint3_radial_2249_101" cx="0" cy="0" r="1" gradientUnits="userSpaceOnUse" gradientTransform="translate(21.0366 5.6605) scale(32.4981 32.6621)">
<stop stop-color="white" stop-opacity="0.5"/>
<stop offset="0.7419" stop-color="white" stop-opacity="0"/>
</radialGradient>
<linearGradient id="paint4_linear_2249_101" x1="5.88949" y1="0.681599" x2="65.9605" y2="60.451" gradientUnits="userSpaceOnUse">
<stop stop-color="#D69239"/>
<stop offset="0.4462" stop-color="#FFF692"/>
<stop offset="0.5318" stop-color="#FDF08D"/>
<stop offset="0.6448" stop-color="#F6E07F"/>
<stop offset="0.7733" stop-color="#EBC467"/>
<stop offset="0.912" stop-color="#DC9E46"/>
<stop offset="1" stop-color="#D0822E"/>
</linearGradient>
<linearGradient id="paint5_linear_2249_101" x1="11.1493" y1="5.96767" x2="75.0258" y2="69.5234" gradientUnits="userSpaceOnUse">
<stop stop-color="#EBB533"/>
<stop offset="0.3118" stop-color="#D0822E"/>
<stop offset="0.3801" stop-color="#D48B36"/>
<stop offset="0.4902" stop-color="#DDA34A"/>
<stop offset="0.6276" stop-color="#EDC96B"/>
<stop offset="0.7634" stop-color="#FFF692"/>
<stop offset="0.8058" stop-color="#FEF28C"/>
<stop offset="0.8641" stop-color="#FAE67A"/>
<stop offset="0.9318" stop-color="#F3D15D"/>
<stop offset="1" stop-color="#EBB838"/>
</linearGradient>
<linearGradient id="paint6_linear_2249_101" x1="17.1188" y1="16.476" x2="56.5919" y2="55.7509" gradientUnits="userSpaceOnUse">
<stop stop-color="#D18631"/>
<stop offset="1" stop-color="#C46029"/>
</linearGradient>
<linearGradient id="paint7_linear_2249_101" x1="23.0199" y1="22.4074" x2="58.0082" y2="57.22" gradientUnits="userSpaceOnUse">
<stop stop-color="#EBB533"/>
<stop offset="0.2779" stop-color="#ECB93A"/>
<stop offset="0.66" stop-color="#F0C54B"/>
<stop offset="1" stop-color="#F4D361"/>
</linearGradient>
<linearGradient id="paint8_linear_2249_101" x1="32.9457" y1="20.8438" x2="54.727" y2="55.598" gradientUnits="userSpaceOnUse">
<stop stop-color="white"/>
<stop offset="0.1472" stop-color="#FEF8D7"/>
<stop offset="0.3518" stop-color="#FDF0A7"/>
<stop offset="0.546" stop-color="#FCEA81"/>
<stop offset="0.7243" stop-color="#FBE565"/>
<stop offset="0.8813" stop-color="#FBE254"/>
<stop offset="1" stop-color="#FBE14F"/>
</linearGradient>
<linearGradient id="paint9_linear_2249_101" x1="32.6894" y1="19.1883" x2="57.396" y2="60.0271" gradientUnits="userSpaceOnUse">
<stop stop-color="#FFF692"/>
<stop offset="0.1545" stop-color="#FDF08D"/>
<stop offset="0.3587" stop-color="#F6E07F"/>
<stop offset="0.5906" stop-color="#EBC467"/>
<stop offset="0.8412" stop-color="#DC9E46"/>
<stop offset="1" stop-color="#D0822E"/>
</linearGradient>
<linearGradient id="paint10_linear_2249_101" x1="40.2281" y1="32.3023" x2="61.8375" y2="64.6031" gradientUnits="userSpaceOnUse">
<stop stop-color="#FFF692"/>
<stop offset="0.1545" stop-color="#FDF08D"/>
<stop offset="0.3587" stop-color="#F6E07F"/>
<stop offset="0.5906" stop-color="#EBC467"/>
<stop offset="0.8412" stop-color="#DC9E46"/>
<stop offset="1" stop-color="#D0822E"/>
</linearGradient>
<linearGradient id="paint11_linear_2249_101" x1="31.7182" y1="8.45737" x2="55.0885" y2="58.3764" gradientUnits="userSpaceOnUse">
<stop offset="0.1022" stop-color="#FFF692"/>
<stop offset="0.1086" stop-color="#FFF591"/>
<stop offset="0.3812" stop-color="#F6DA69"/>
<stop offset="0.63" stop-color="#F0C64B"/>
<stop offset="0.8444" stop-color="#ECBA3A"/>
<stop offset="1" stop-color="#EBB533"/>
</linearGradient>
<linearGradient id="paint12_linear_2249_101" x1="59.5906" y1="31.9685" x2="70.5826" y2="44.605" gradientUnits="userSpaceOnUse">
<stop stop-color="#FFF692" stop-opacity="0"/>
<stop offset="0.1545" stop-color="#FDF08D" stop-opacity="0.1545"/>
<stop offset="0.3587" stop-color="#F6E07F" stop-opacity="0.3587"/>
<stop offset="0.5906" stop-color="#EBC467" stop-opacity="0.5906"/>
<stop offset="0.8412" stop-color="#DC9E46" stop-opacity="0.8412"/>
<stop offset="1" stop-color="#D0822E"/>
</linearGradient>
<linearGradient id="paint13_linear_2249_101" x1="49.9351" y1="45.0163" x2="61.4931" y2="64.8438" gradientUnits="userSpaceOnUse">
<stop stop-color="#FFF692" stop-opacity="0"/>
<stop offset="0.1545" stop-color="#FDF08D" stop-opacity="0.1545"/>
<stop offset="0.3587" stop-color="#F6E07F" stop-opacity="0.3587"/>
<stop offset="0.5906" stop-color="#EBC467" stop-opacity="0.5906"/>
<stop offset="0.8412" stop-color="#DC9E46" stop-opacity="0.8412"/>
<stop offset="1" stop-color="#D0822E"/>
</linearGradient>
<linearGradient id="paint14_linear_2249_101" x1="21.9196" y1="28.9914" x2="34.5508" y2="56.6402" gradientUnits="userSpaceOnUse">
<stop stop-color="#FFF692"/>
<stop offset="0.1711" stop-color="#FDF28C"/>
<stop offset="0.3971" stop-color="#F6E77B"/>
<stop offset="0.6538" stop-color="#ECD560"/>
<stop offset="0.9314" stop-color="#DDBC3A"/>
<stop offset="1" stop-color="#D9B530"/>
</linearGradient>
<linearGradient id="paint15_linear_2249_101" x1="67.4254" y1="-34.4835" x2="10.5632" y2="80.0003" gradientUnits="userSpaceOnUse">
<stop stop-color="#FFF692"/>
<stop offset="1" stop-color="#DFEFF3" stop-opacity="0"/>
</linearGradient>
<linearGradient id="paint16_linear_2249_101" x1="88.0071" y1="-58.2956" x2="7.22498" y2="104.347" gradientUnits="userSpaceOnUse">
<stop stop-color="#FFF692"/>
<stop offset="1" stop-color="#DFEFF3" stop-opacity="0"/>
</linearGradient>
<linearGradient id="paint17_linear_2249_101" x1="46.6684" y1="8.57275" x2="46.6684" y2="50.6764" gradientUnits="userSpaceOnUse">
<stop stop-color="#FFF692"/>
<stop offset="1" stop-color="#DFEFF3" stop-opacity="0"/>
</linearGradient>
<linearGradient id="paint18_linear_2249_101" x1="33.8662" y1="65.9908" x2="41.4362" y2="65.9908" gradientUnits="userSpaceOnUse">
<stop stop-color="#FFF692"/>
<stop offset="1" stop-color="#DFEFF3" stop-opacity="0"/>
</linearGradient>
<linearGradient id="paint19_linear_2249_101" x1="60.4874" y1="69.1523" x2="56.9703" y2="64.6626" gradientUnits="userSpaceOnUse">
<stop stop-color="#FFF692"/>
<stop offset="1" stop-color="#DFEFF3" stop-opacity="0"/>
</linearGradient>
</defs>
</svg>
