<svg width="36" height="36" viewBox="0 0 36 36" fill="none" xmlns="http://www.w3.org/2000/svg">
<circle cx="18" cy="18" r="18" fill="url(#paint0_linear_2322_168)"/>
<path d="M24.1094 19.9766L26.3828 20.5508C25.9062 22.418 25.0469 23.8438 23.8047 24.8281C22.5703 25.8047 21.0586 26.293 19.2695 26.293C17.418 26.293 15.9102 25.918 14.7461 25.168C13.5898 24.4102 12.707 23.3164 12.0977 21.8867C11.4961 20.457 11.1953 18.9219 11.1953 17.2812C11.1953 15.4922 11.5352 13.9336 12.2148 12.6055C12.9023 11.2695 13.875 10.2578 15.1328 9.57031C16.3984 8.875 17.7891 8.52734 19.3047 8.52734C21.0234 8.52734 22.4688 8.96484 23.6406 9.83984C24.8125 10.7148 25.6289 11.9453 26.0898 13.5312L23.8516 14.0586C23.4531 12.8086 22.875 11.8984 22.1172 11.3281C21.3594 10.7578 20.4062 10.4727 19.2578 10.4727C17.9375 10.4727 16.832 10.7891 15.9414 11.4219C15.0586 12.0547 14.4375 12.9062 14.0781 13.9766C13.7188 15.0391 13.5391 16.1367 13.5391 17.2695C13.5391 18.7305 13.75 20.0078 14.1719 21.1016C14.6016 22.1875 15.2656 23 16.1641 23.5391C17.0625 24.0781 18.0352 24.3477 19.082 24.3477C20.3555 24.3477 21.4336 23.9805 22.3164 23.2461C23.1992 22.5117 23.7969 21.4219 24.1094 19.9766Z" fill="#F2F2F2"/>
<defs>
<linearGradient id="paint0_linear_2322_168" x1="18" y1="0" x2="18" y2="36" gradientUnits="userSpaceOnUse">
<stop stop-color="#FFE998"/>
<stop offset="1" stop-color="#57370D"/>
</linearGradient>
</defs>
</svg>
