<svg width="24" height="24" viewBox="0 0 24 24" fill="none" xmlns="http://www.w3.org/2000/svg">
<g clip-path="url(#clip0_2299_2311)">
<path d="M19.5899 11.6C19.3819 7.58865 16.0635 4.40002 12.0004 4.40002C7.80305 4.40002 4.40039 7.80273 4.40039 12C4.40039 16.1973 7.80305 19.6 12.0004 19.6C16.0635 19.6 19.3819 16.4114 19.5899 12.4H19.6004V11.6H19.5899V11.6ZM18.7883 11.6H15.5956C15.5344 8.99607 14.8777 6.72451 13.87 5.46043C16.5934 6.23757 18.6183 8.66992 18.7883 11.6ZM11.6004 5.2757V11.6H9.20559C9.28748 8.35327 10.3569 5.74543 11.6004 5.2757ZM11.6004 12.4V18.7243C10.3569 18.2546 9.28748 15.6467 9.20559 12.4H11.6004ZM12.4004 18.7243V12.4H14.7952C14.7133 15.6467 13.6439 18.2546 12.4004 18.7243ZM12.4004 11.6V5.2757C13.6439 5.74543 14.7133 8.35327 14.7952 11.6H12.4004ZM10.1307 5.46038C9.12309 6.72446 8.46633 8.99602 8.40511 11.6H5.21241C5.38242 8.66992 7.40738 6.23757 10.1307 5.46038ZM5.21241 12.4H8.40516C8.46638 15.0039 9.12309 17.2755 10.1307 18.5396C7.40738 17.7624 5.38242 15.3301 5.21241 12.4ZM13.8701 18.5396C14.8777 17.2756 15.5344 15.004 15.5956 12.4H18.7884C18.6183 15.3301 16.5934 17.7624 13.8701 18.5396Z" fill="url(#paint0_linear_2299_2311)"/>
<path d="M12 0C5.38308 0 0 5.38308 0 12C0 18.6169 5.38308 24 12 24C18.6169 24 24 18.6169 24 12C24 5.38308 18.6169 0 12 0ZM23.1921 11.6H21.9914C21.8946 9.14025 20.9096 6.909 19.3479 5.21784L20.193 4.37278C21.9725 6.28294 23.0937 8.81353 23.1921 11.6ZM5.21784 19.3478C6.909 20.9096 9.14025 21.8945 11.6 21.9913V23.1921C8.81353 23.0937 6.28298 21.9724 4.37278 20.1929L5.21784 19.3478ZM12.4 21.9914C14.8597 21.8946 17.091 20.9096 18.7822 19.3479L19.6272 20.193C17.717 21.9725 15.1865 23.0937 12.4 23.1921V21.9914ZM12 21.2C6.91894 21.2 2.79998 17.0811 2.79998 12C2.79998 6.91889 6.91894 2.79998 12 2.79998C17.0811 2.79998 21.2 6.91894 21.2 12C21.2 17.0811 17.0811 21.2 12 21.2ZM18.7822 4.65216C17.091 3.09042 14.8597 2.10548 12.4 2.00869V0.807891C15.1865 0.906281 17.717 2.02753 19.6272 3.80705L18.7822 4.65216ZM11.6 2.00864C9.14025 2.10544 6.909 3.09037 5.21784 4.65211L4.37273 3.80709C6.28294 2.02758 8.81348 0.906328 11.6 0.807938L11.6 2.00864ZM3.80709 4.37273L4.65216 5.2178C3.09042 6.90895 2.10548 9.1402 2.00869 11.6H0.807891C0.906281 8.81353 2.02753 6.28294 3.80709 4.37273ZM0.807891 12.4H2.00864C2.10544 14.8597 3.09037 17.091 4.65211 18.7822L3.80705 19.6272C2.02753 17.7171 0.906281 15.1865 0.807891 12.4ZM20.1929 19.6272L19.3478 18.7822C20.9096 17.091 21.8945 14.8597 21.9913 12.4H23.1921C23.0937 15.1865 21.9725 17.7171 20.1929 19.6272Z" fill="url(#paint1_linear_2299_2311)"/>
</g>
<defs>
<linearGradient id="paint0_linear_2299_2311" x1="12.0004" y1="4.40002" x2="12.0004" y2="19.6" gradientUnits="userSpaceOnUse">
<stop stop-color="#FFE998"/>
<stop offset="1" stop-color="#57370D"/>
</linearGradient>
<linearGradient id="paint1_linear_2299_2311" x1="12" y1="0" x2="12" y2="24" gradientUnits="userSpaceOnUse">
<stop stop-color="#FFE998"/>
<stop offset="1" stop-color="#57370D"/>
</linearGradient>
<clipPath id="clip0_2299_2311">
<rect width="24" height="24" fill="white"/>
</clipPath>
</defs>
</svg>
