<svg width="36" height="36" viewBox="0 0 36 36" fill="none" xmlns="http://www.w3.org/2000/svg">
<circle cx="18" cy="18" r="18" fill="url(#paint0_linear_2322_139)"/>
<path d="M11.8516 26V8.82031H17.7695C19.1055 8.82031 20.125 8.90234 20.8281 9.06641C21.8125 9.29297 22.6523 9.70312 23.3477 10.2969C24.2539 11.0625 24.9297 12.043 25.375 13.2383C25.8281 14.4258 26.0547 15.7852 26.0547 17.3164C26.0547 18.6211 25.9023 19.7773 25.5977 20.7852C25.293 21.793 24.9023 22.6289 24.4258 23.293C23.9492 23.9492 23.4258 24.4688 22.8555 24.8516C22.293 25.2266 21.6094 25.5117 20.8047 25.707C20.0078 25.9023 19.0898 26 18.0508 26H11.8516ZM14.125 23.9727H17.793C18.9258 23.9727 19.8125 23.8672 20.4531 23.6562C21.1016 23.4453 21.6172 23.1484 22 22.7656C22.5391 22.2266 22.957 21.5039 23.2539 20.5977C23.5586 19.6836 23.7109 18.5781 23.7109 17.2812C23.7109 15.4844 23.4141 14.1055 22.8203 13.1445C22.2344 12.1758 21.5195 11.5273 20.6758 11.1992C20.0664 10.9648 19.0859 10.8477 17.7344 10.8477H14.125V23.9727Z" fill="#F2F2F2"/>
<defs>
<linearGradient id="paint0_linear_2322_139" x1="18" y1="0" x2="18" y2="36" gradientUnits="userSpaceOnUse">
<stop stop-color="#FFE998"/>
<stop offset="1" stop-color="#57370D"/>
</linearGradient>
</defs>
</svg>
