<svg width="20" height="20" viewBox="0 0 20 20" fill="none" xmlns="http://www.w3.org/2000/svg">
<path d="M10.0006 12.1328C11.3369 12.1328 12.4202 11.1629 12.4202 9.96641C12.4202 8.76992 11.3369 7.79997 10.0006 7.79997C8.66431 7.79997 7.58103 8.76992 7.58103 9.96641C7.58103 11.1629 8.66431 12.1328 10.0006 12.1328Z" fill="url(#paint0_linear_2262_311)"/>
<path d="M10.0006 9.0621C10.2006 9.06197 10.3961 9.11495 10.5624 9.21434C10.7287 9.31373 10.8583 9.45506 10.9349 9.62044C11.0115 9.78582 11.0316 9.96782 10.9926 10.1434C10.9536 10.319 10.8574 10.4803 10.716 10.6069C10.5746 10.7335 10.3944 10.8197 10.1983 10.8546C10.0022 10.8895 9.79891 10.8715 9.6142 10.803C9.42949 10.7344 9.27167 10.6183 9.16067 10.4694C9.04967 10.3205 8.99048 10.1454 8.99062 9.9664C8.99099 9.72667 9.09753 9.49685 9.28686 9.32733C9.47619 9.15781 9.73286 9.06243 10.0006 9.0621ZM10.0006 7.79997C9.52186 7.79985 9.05383 7.92685 8.65571 8.16492C8.25758 8.403 7.94727 8.74143 7.76399 9.13744C7.58072 9.53345 7.53272 9.96924 7.62608 10.3897C7.71944 10.8101 7.94998 11.1963 8.28851 11.4994C8.62703 11.8025 9.05835 12.0089 9.52791 12.0925C9.99746 12.1761 10.4842 12.1331 10.9264 11.969C11.3687 11.8049 11.7467 11.5271 12.0126 11.1706C12.2785 10.8141 12.4203 10.3951 12.4202 9.96641C12.4202 9.39184 12.1653 8.84079 11.7115 8.4345C11.2577 8.02822 10.6423 7.79997 10.0006 7.79997Z" fill="url(#paint1_linear_2262_311)"/>
<path d="M10.0006 1.26468C10.1392 1.26353 10.2755 1.29566 10.3955 1.3577C10.5155 1.41974 10.6147 1.50943 10.6828 1.61745L18.4857 13.7149C18.5551 13.8222 18.5916 13.944 18.5917 14.068C18.5917 14.192 18.5553 14.3138 18.4861 14.4211C18.4168 14.5285 18.3172 14.6176 18.1972 14.6795C18.0773 14.7415 17.9412 14.774 17.8027 14.7738H2.19777C2.05936 14.7739 1.9234 14.7413 1.80353 14.6793C1.68367 14.6174 1.58413 14.5282 1.51497 14.4208C1.44581 14.3135 1.40946 14.1917 1.40956 14.0678C1.40965 13.9439 1.4462 13.8222 1.51553 13.7149L9.31767 1.61493C9.38586 1.50682 9.48518 1.41705 9.6053 1.355C9.72542 1.29295 9.86195 1.26089 10.0006 1.26215M10.0006 2.98264e-05C9.61446 -0.00188284 9.2347 0.0882262 8.90029 0.261117C8.56588 0.434008 8.28884 0.683469 8.09765 0.983869L0.294821 13.0838C0.101777 13.383 9.79322e-05 13.7223 3.54315e-07 14.0678C-9.72236e-05 14.4133 0.101387 14.7527 0.294262 15.0519C0.487137 15.3511 0.764589 15.5996 1.09873 15.7723C1.43288 15.9451 1.81193 16.036 2.19777 16.036H17.8027C18.1885 16.0358 18.5674 15.9448 18.9014 15.772C19.2355 15.5992 19.5128 15.3507 19.7057 15.0516C19.8985 14.7524 20 14.4131 20 14.0677C20 13.7223 19.8985 13.383 19.7057 13.0838L11.9036 0.986392C11.7124 0.685948 11.4354 0.436461 11.101 0.263563C10.7666 0.0906653 10.3868 0.000574445 10.0006 0.00255269V2.98264e-05Z" fill="url(#paint2_linear_2262_311)"/>
<path d="M17.8027 5.22714C17.9411 5.22718 18.0771 5.25981 18.1969 5.32177C18.3167 5.38374 18.4163 5.47285 18.4855 5.58015C18.5547 5.68745 18.5911 5.80917 18.5912 5.93308C18.5912 6.05698 18.5548 6.17871 18.4857 6.28605L10.6828 18.3848C10.6139 18.4923 10.5144 18.5816 10.3946 18.6437C10.2747 18.7058 10.1387 18.7385 10.0002 18.7385C9.86178 18.7385 9.72577 18.7058 9.60593 18.6437C9.48608 18.5816 9.38665 18.4923 9.31767 18.3848L1.51553 6.28479C1.44643 6.1775 1.41006 6.05581 1.41007 5.93196C1.41008 5.80811 1.44647 5.68644 1.51559 5.57916C1.58471 5.47188 1.68412 5.38276 1.80386 5.32075C1.92359 5.25874 2.05944 5.22602 2.19777 5.22587H17.8027M17.8027 3.96374H2.19777C1.81193 3.96371 1.43288 4.05463 1.09873 4.22737C0.764588 4.40011 0.487137 4.64858 0.294262 4.94779C0.101386 5.247 -9.75076e-05 5.58643 7.03002e-08 5.9319C9.76482e-05 6.27738 0.101777 6.61673 0.294821 6.91586L8.09694 19.0158C8.28969 19.315 8.56705 19.5635 8.90111 19.7363C9.23516 19.9091 9.61413 20 9.9999 20C10.3857 20 10.7646 19.9091 11.0987 19.7363C11.4328 19.5635 11.7101 19.315 11.9029 19.0158L19.7057 6.91586C19.8985 6.6167 20 6.27738 20 5.93198C20 5.58658 19.8985 5.24727 19.7057 4.94812C19.5128 4.64897 19.2355 4.40053 18.9014 4.22774C18.5674 4.05495 18.1885 3.9639 17.8027 3.96374Z" fill="url(#paint3_linear_2262_311)"/>
<path d="M10.0006 5.22714C11.0475 5.22714 12.0708 5.50509 12.9413 6.02584C13.8117 6.5466 14.4901 7.28678 14.8907 8.15277C15.2914 9.01876 15.3962 9.97167 15.192 10.891C14.9877 11.8103 14.4836 12.6548 13.7434 13.3176C13.0031 13.9804 12.06 14.4317 11.0332 14.6146C10.0065 14.7975 8.94223 14.7036 7.97505 14.3449C7.00787 13.9862 6.18121 13.3788 5.5996 12.5994C5.01799 11.82 4.70756 10.9037 4.70756 9.9664C4.70924 8.70993 5.26745 7.50535 6.25972 6.61689C7.252 5.72843 8.59733 5.22864 10.0006 5.22714ZM10.0006 3.96501C8.67496 3.96501 7.37907 4.31699 6.27682 4.97643C5.17458 5.63587 4.31548 6.57315 3.80817 7.66977C3.30087 8.76638 3.16814 9.97306 3.42676 11.1372C3.68538 12.3014 4.32375 13.3707 5.26114 14.21C6.19852 15.0493 7.3928 15.6209 8.69299 15.8525C9.99318 16.0841 11.3409 15.9652 12.5656 15.511C13.7903 15.0567 14.8372 14.2875 15.5736 13.3006C16.3101 12.3137 16.7033 11.1534 16.7033 9.9664C16.7033 8.37473 15.9971 6.84825 14.7401 5.72277C13.4831 4.59729 11.7783 3.96501 10.0006 3.96501Z" fill="url(#paint4_linear_2262_311)"/>
<defs>
<linearGradient id="paint0_linear_2262_311" x1="10.0006" y1="3.96501" x2="10.0006" y2="15.9678" gradientUnits="userSpaceOnUse">
<stop stop-color="#FFE998"/>
<stop offset="1" stop-color="#57370D"/>
</linearGradient>
<linearGradient id="paint1_linear_2262_311" x1="10.0006" y1="3.96501" x2="10.0006" y2="15.9678" gradientUnits="userSpaceOnUse">
<stop stop-color="#FFE998"/>
<stop offset="1" stop-color="#57370D"/>
</linearGradient>
<linearGradient id="paint2_linear_2262_311" x1="10.0006" y1="3.96501" x2="10.0006" y2="15.9678" gradientUnits="userSpaceOnUse">
<stop stop-color="#FFE998"/>
<stop offset="1" stop-color="#57370D"/>
</linearGradient>
<linearGradient id="paint3_linear_2262_311" x1="10.0006" y1="3.96501" x2="10.0006" y2="15.9678" gradientUnits="userSpaceOnUse">
<stop stop-color="#FFE998"/>
<stop offset="1" stop-color="#57370D"/>
</linearGradient>
<linearGradient id="paint4_linear_2262_311" x1="10.0006" y1="3.96501" x2="10.0006" y2="15.9678" gradientUnits="userSpaceOnUse">
<stop stop-color="#FFE998"/>
<stop offset="1" stop-color="#57370D"/>
</linearGradient>
</defs>
</svg>
