<svg width="32" height="44" viewBox="0 0 32 44" fill="none" xmlns="http://www.w3.org/2000/svg">
<g clip-path="url(#clip0_2277_4569)">
<path d="M25.7291 12.4125V22.7625C25.7291 23.25 25.3541 23.625 24.8666 23.625H7.5041C7.0166 23.625 6.6416 23.25 6.6416 22.7625V12.4125" stroke="#737373" stroke-width="1.2"/>
<path fill-rule="evenodd" clip-rule="evenodd" d="M26.4795 11.5125C26.4795 12 26.1045 12.375 25.617 12.375H6.71699C6.22949 12.375 5.85449 12 5.85449 11.5125V7.64998C5.85449 7.16248 6.22949 6.78748 6.71699 6.78748H25.617C26.1045 6.78748 26.4795 7.16248 26.4795 7.64998V11.5125Z" stroke="#737373" stroke-width="1.2"/>
<path fill-rule="evenodd" clip-rule="evenodd" d="M21.717 4.04999C20.892 4.87499 17.142 7.27499 16.2795 6.44999C15.4545 5.62499 17.8545 1.83749 18.6795 1.01249C19.5045 0.187488 20.8545 0.187488 21.717 1.01249C22.542 1.83749 22.542 3.22499 21.717 4.04999Z" stroke="#737373" stroke-width="1.2"/>
<path fill-rule="evenodd" clip-rule="evenodd" d="M10.5797 4.04996C11.4047 4.87496 15.1922 7.31246 16.0172 6.48746C16.8422 5.66246 14.4422 1.87496 13.5797 1.04996C12.7547 0.224963 11.4047 0.224963 10.5797 1.04996C9.75469 1.83746 9.75469 3.18746 10.5797 4.04996Z" stroke="#737373" stroke-width="1.2"/>
<path d="M13.5791 9.82499C13.5791 9.82499 14.1416 8.09999 16.3166 7.23749V23.5875" stroke="#737373" stroke-width="1.2"/>
<path d="M16.167 7.27496C16.167 7.27496 17.0295 10.275 20.0295 10.725" stroke="#737373" stroke-width="1.2"/>
</g>
<path d="M1.38184 32.4102H4.2002C4.96973 32.4102 5.51074 32.4805 5.82324 32.6211C6.13574 32.7617 6.39941 33.0098 6.61426 33.3652C6.8291 33.7207 6.93652 34.123 6.93652 34.5723C6.93652 34.9863 6.84473 35.3613 6.66113 35.6973C6.47754 36.0293 6.23926 36.2754 5.94629 36.4355C6.36426 36.584 6.69043 36.8379 6.9248 37.1973C7.16309 37.5566 7.28223 37.9941 7.28223 38.5098C7.28223 39.1348 7.13184 39.6641 6.83105 40.0977C6.53027 40.5273 6.1748 40.793 5.76465 40.8945C5.47949 40.9648 4.81738 41 3.77832 41H1.38184V32.4102ZM2.7998 33.8398V35.8262H3.7373C4.2998 35.8262 4.64746 35.8164 4.78027 35.7969C5.02246 35.7578 5.21191 35.6562 5.34863 35.4922C5.48535 35.3242 5.55371 35.0977 5.55371 34.8125C5.55371 34.5586 5.49707 34.3535 5.38379 34.1973C5.27441 34.0371 5.13965 33.9375 4.97949 33.8984C4.82324 33.8594 4.37012 33.8398 3.62012 33.8398H2.7998ZM2.7998 37.2559V39.5527H4.11816C4.69629 39.5527 5.06738 39.5234 5.23145 39.4648C5.39551 39.4023 5.53223 39.2832 5.6416 39.1074C5.75488 38.9277 5.81152 38.7012 5.81152 38.4277C5.81152 38.1465 5.75098 37.916 5.62988 37.7363C5.5127 37.5527 5.35449 37.4277 5.15527 37.3613C4.95996 37.291 4.55762 37.2559 3.94824 37.2559H2.7998ZM8.16113 37.8008C8.16113 37.1914 8.28223 36.6367 8.52441 36.1367C8.7666 35.6367 9.08301 35.2617 9.47363 35.0117C9.86426 34.7617 10.3037 34.6367 10.792 34.6367C11.6123 34.6367 12.2568 34.959 12.7256 35.6035C13.1943 36.2441 13.4287 36.9941 13.4287 37.8535C13.4287 38.4941 13.3057 39.0723 13.0596 39.5879C12.8174 40.1035 12.4971 40.4922 12.0986 40.7539C11.7041 41.0117 11.2705 41.1406 10.7979 41.1406C10.04 41.1406 9.41113 40.8516 8.91113 40.2734C8.41113 39.6953 8.16113 38.8711 8.16113 37.8008ZM9.54395 37.8887C9.54395 38.5176 9.66699 38.9941 9.91309 39.3184C10.1592 39.6387 10.4561 39.7988 10.8037 39.7988C11.1436 39.7988 11.4346 39.6367 11.6768 39.3125C11.9189 38.9883 12.04 38.5098 12.04 37.877C12.04 37.2598 11.917 36.7891 11.6709 36.4648C11.4248 36.1406 11.1299 35.9785 10.7861 35.9785C10.4463 35.9785 10.1533 36.1406 9.90723 36.4648C9.66504 36.7891 9.54395 37.2637 9.54395 37.8887ZM19.1299 41H17.7764V37.8242C17.7764 37.1875 17.751 36.7637 17.7002 36.5527C17.6494 36.3418 17.5537 36.1797 17.4131 36.0664C17.2764 35.9531 17.1201 35.8965 16.9443 35.8965C16.7178 35.8965 16.5127 35.9707 16.3291 36.1191C16.1455 36.2637 16.0166 36.4648 15.9424 36.7227C15.8682 36.9805 15.8311 37.4668 15.8311 38.1816V41H14.4775V34.7773H15.7314V35.6914C15.9541 35.3398 16.2041 35.0762 16.4814 34.9004C16.7627 34.7246 17.0732 34.6367 17.4131 34.6367C17.8076 34.6367 18.1396 34.7402 18.4092 34.9473C18.6826 35.1504 18.8701 35.4141 18.9717 35.7383C19.0771 36.0586 19.1299 36.5234 19.1299 37.1328V41ZM23.8525 41V40.0684C23.665 40.4043 23.4189 40.668 23.1143 40.8594C22.8096 41.0469 22.4912 41.1406 22.1592 41.1406C21.8232 41.1406 21.5225 41.0527 21.2568 40.877C20.9912 40.7012 20.792 40.4512 20.6592 40.127C20.5303 39.8027 20.4658 39.332 20.4658 38.7148V34.7773H21.8193V37.6367C21.8193 38.4531 21.8389 38.9727 21.8779 39.1953C21.9209 39.4141 22.0127 39.584 22.1533 39.7051C22.2939 39.8262 22.4639 39.8867 22.6631 39.8867C22.8896 39.8867 23.0986 39.8086 23.29 39.6523C23.4814 39.4922 23.6064 39.2891 23.665 39.043C23.7275 38.793 23.7588 38.2461 23.7588 37.4023V34.7773H25.1064V41H23.8525ZM26.0381 39.2246L27.3916 38.9727C27.5088 39.625 27.8721 39.9512 28.4814 39.9512C28.8057 39.9512 29.0479 39.8887 29.208 39.7637C29.3682 39.6387 29.4482 39.4766 29.4482 39.2773C29.4482 39.1406 29.4131 39.0332 29.3428 38.9551C29.2686 38.877 29.1221 38.8086 28.9033 38.75C27.7939 38.457 27.0889 38.1777 26.7881 37.9121C26.4131 37.5801 26.2256 37.125 26.2256 36.5469C26.2256 35.9688 26.4092 35.5059 26.7764 35.1582C27.1436 34.8105 27.6768 34.6367 28.376 34.6367C29.0439 34.6367 29.5518 34.7676 29.8994 35.0293C30.2471 35.2871 30.4912 35.7051 30.6318 36.2832L29.3604 36.5703C29.2471 36.0703 28.9268 35.8203 28.3994 35.8203C28.0674 35.8203 27.8311 35.8691 27.6904 35.9668C27.5498 36.0605 27.4795 36.1836 27.4795 36.3359C27.4795 36.4727 27.5439 36.5859 27.6729 36.6758C27.8018 36.7695 28.2021 36.9102 28.874 37.0977C29.6279 37.3086 30.1396 37.5645 30.4092 37.8652C30.6748 38.166 30.8076 38.5664 30.8076 39.0664C30.8076 39.668 30.6006 40.1641 30.1865 40.5547C29.7764 40.9453 29.208 41.1406 28.4814 41.1406C27.8213 41.1406 27.2822 40.9785 26.8643 40.6543C26.4463 40.3262 26.1709 39.8496 26.0381 39.2246Z" fill="#737373"/>
<defs>
<clipPath id="clip0_2277_4569">
<rect width="24" height="24" fill="white" transform="translate(4.16699)"/>
</clipPath>
</defs>
</svg>
