<svg width="40" height="44" viewBox="0 0 40 44" fill="none" xmlns="http://www.w3.org/2000/svg">
<path d="M21.9124 1.5C22.0712 1.50001 22.2259 1.55041 22.3542 1.64394C22.4825 1.73748 22.5778 1.86933 22.6264 2.0205L23.4514 4.584C23.7979 4.7535 24.1294 4.944 24.4459 5.1585L27.0799 4.5915C27.2352 4.55834 27.397 4.57534 27.5421 4.64003C27.6871 4.70473 27.8078 4.81379 27.8869 4.9515L29.9659 8.55C30.0453 8.68763 30.0789 8.84693 30.0619 9.0049C30.045 9.16288 29.9782 9.31139 29.8714 9.429L28.0639 11.424C28.0902 11.8065 28.0902 12.1905 28.0639 12.573L29.8714 14.571C29.9782 14.6886 30.045 14.8371 30.0619 14.9951C30.0789 15.1531 30.0453 15.3124 29.9659 15.45L27.8869 19.05C27.8076 19.1874 27.6868 19.2962 27.5418 19.3606C27.3968 19.425 27.2351 19.4418 27.0799 19.4085L24.4459 18.8415C24.1309 19.0545 23.7979 19.2465 23.4529 19.416L22.6264 21.9795C22.5778 22.1307 22.4825 22.2625 22.3542 22.3561C22.2259 22.4496 22.0712 22.5 21.9124 22.5H17.7544C17.5956 22.5 17.4409 22.4496 17.3126 22.3561C17.1843 22.2625 17.089 22.1307 17.0404 21.9795L16.2169 19.4175C15.8713 19.2485 15.538 19.0555 15.2194 18.84L12.5869 19.4085C12.4316 19.4417 12.2698 19.4247 12.1248 19.36C11.9797 19.2953 11.859 19.1862 11.7799 19.0485L9.70091 15.45C9.62153 15.3124 9.5879 15.1531 9.60488 14.9951C9.62187 14.8371 9.68858 14.6886 9.79541 14.571L11.6029 12.573C11.5767 12.1914 11.5767 11.8086 11.6029 11.427L9.79541 9.429C9.68858 9.31139 9.62187 9.16288 9.60488 9.0049C9.5879 8.84693 9.62153 8.68763 9.70091 8.55L11.7799 4.95C11.8592 4.81256 11.9801 4.70381 12.1251 4.63939C12.2701 4.57497 12.4318 4.55821 12.5869 4.5915L15.2194 5.16C15.5374 4.9455 15.8704 4.752 16.2169 4.5825L17.0419 2.0205C17.0903 1.86982 17.1852 1.73832 17.3129 1.64482C17.4406 1.55133 17.5946 1.50064 17.7529 1.5H21.9109H21.9124ZM21.3634 3H18.3034L17.4514 5.6505L16.8769 5.931C16.5945 6.06921 16.3219 6.22657 16.0609 6.402L15.5299 6.762L12.8059 6.174L11.2759 8.826L13.1434 10.893L13.0984 11.529C13.0769 11.8426 13.0769 12.1574 13.0984 12.471L13.1434 13.107L11.2729 15.174L12.8044 17.826L15.5284 17.2395L16.0594 17.598C16.3204 17.7734 16.593 17.9308 16.8754 18.069L17.4499 18.3495L18.3034 21H21.3664L22.2214 18.348L22.7944 18.069C23.0765 17.9311 23.3487 17.7737 23.6089 17.598L24.1384 17.2395L26.8639 17.826L28.3939 15.174L26.5249 13.107L26.5699 12.471C26.5915 12.1569 26.5915 11.8416 26.5699 11.5275L26.5249 10.8915L28.3954 8.826L26.8639 6.174L24.1384 6.759L23.6089 6.402C23.3487 6.22622 23.0766 6.06884 22.7944 5.931L22.2214 5.652L21.3649 3H21.3634ZM19.8334 7.5C21.0269 7.5 22.1715 7.97411 23.0154 8.81802C23.8593 9.66193 24.3334 10.8065 24.3334 12C24.3334 13.1935 23.8593 14.3381 23.0154 15.182C22.1715 16.0259 21.0269 16.5 19.8334 16.5C18.6399 16.5 17.4953 16.0259 16.6514 15.182C15.8075 14.3381 15.3334 13.1935 15.3334 12C15.3334 10.8065 15.8075 9.66193 16.6514 8.81802C17.4953 7.97411 18.6399 7.5 19.8334 7.5ZM19.8334 9C19.0378 9 18.2747 9.31607 17.7121 9.87868C17.1495 10.4413 16.8334 11.2044 16.8334 12C16.8334 12.7956 17.1495 13.5587 17.7121 14.1213C18.2747 14.6839 19.0378 15 19.8334 15C20.6291 15 21.3921 14.6839 21.9547 14.1213C22.5173 13.5587 22.8334 12.7956 22.8334 12C22.8334 11.2044 22.5173 10.4413 21.9547 9.87868C21.3921 9.31607 20.6291 9 19.8334 9Z" fill="#737373"/>
<path d="M0.69043 38.2051L2.0791 38.041C2.23535 39.1387 2.74707 39.6875 3.61426 39.6875C4.04395 39.6875 4.38184 39.5762 4.62793 39.3535C4.87402 39.127 4.99707 38.8477 4.99707 38.5156C4.99707 38.3203 4.9541 38.1543 4.86816 38.0176C4.78223 37.8809 4.65137 37.7695 4.47559 37.6836C4.2998 37.5938 3.87402 37.4453 3.19824 37.2383C2.59277 37.0547 2.14941 36.8555 1.86816 36.6406C1.58691 36.4258 1.3623 36.1445 1.19434 35.7969C1.03027 35.4453 0.948242 35.0684 0.948242 34.666C0.948242 34.1973 1.05371 33.7754 1.26465 33.4004C1.47949 33.0254 1.77441 32.7422 2.14941 32.5508C2.52441 32.3594 2.9873 32.2637 3.53809 32.2637C4.36621 32.2637 5.0127 32.4883 5.47754 32.9375C5.94238 33.3867 6.18848 34.0293 6.21582 34.8652L4.79199 34.9414C4.72949 34.4805 4.59473 34.1582 4.3877 33.9746C4.18066 33.791 3.88574 33.6992 3.50293 33.6992C3.12012 33.6992 2.8252 33.7793 2.61816 33.9395C2.41113 34.0996 2.30762 34.2988 2.30762 34.5371C2.30762 34.7715 2.40137 34.9688 2.58887 35.1289C2.77637 35.2891 3.20801 35.4648 3.88379 35.6562C4.59863 35.8633 5.11426 36.082 5.43066 36.3125C5.75098 36.5391 5.99512 36.834 6.16309 37.1973C6.33105 37.5566 6.41504 37.9941 6.41504 38.5098C6.41504 39.2559 6.18457 39.8828 5.72363 40.3906C5.2666 40.8984 4.5498 41.1523 3.57324 41.1523C1.84668 41.1523 0.885742 40.1699 0.69043 38.2051ZM10.5635 39.0195L11.9053 39.2949C11.7256 39.9199 11.4463 40.3848 11.0674 40.6895C10.6885 40.9902 10.2275 41.1406 9.68457 41.1406C8.93066 41.1406 8.34863 40.8887 7.93848 40.3848C7.4541 39.7988 7.21191 38.9785 7.21191 37.9238C7.21191 36.8848 7.45605 36.0527 7.94434 35.4277C8.3584 34.9004 8.89355 34.6367 9.5498 34.6367C10.2803 34.6367 10.8525 34.9062 11.2666 35.4453C11.7432 36.0625 11.9814 36.9727 11.9814 38.1758L11.9756 38.3633H8.59473C8.60254 38.8555 8.71191 39.2363 8.92285 39.5059C9.1377 39.7754 9.39551 39.9102 9.69629 39.9102C10.1299 39.9102 10.4189 39.6133 10.5635 39.0195ZM10.6396 37.3555C10.6279 36.8711 10.5244 36.5078 10.3291 36.2656C10.1338 36.0195 9.90137 35.8965 9.63184 35.8965C9.34668 35.8965 9.10645 36.0234 8.91113 36.2773C8.71191 36.5352 8.61426 36.8945 8.61816 37.3555H10.6396ZM15.4092 34.7773V36.0898H14.4893V38.5977C14.4893 39.1406 14.5029 39.4551 14.5303 39.541C14.585 39.6973 14.6963 39.7754 14.8643 39.7754C14.9893 39.7754 15.1689 39.7227 15.4033 39.6172L15.5205 40.8945C15.208 41.0586 14.8545 41.1406 14.46 41.1406C14.1162 41.1406 13.8408 41.0586 13.6338 40.8945C13.4268 40.7305 13.2881 40.4941 13.2178 40.1855C13.1631 39.959 13.1357 39.498 13.1357 38.8027V36.0898H12.5146V34.7773H13.1357V33.541L14.4893 32.5801V34.7773H15.4092ZM18.6904 34.7773V36.0898H17.7705V38.5977C17.7705 39.1406 17.7842 39.4551 17.8115 39.541C17.8662 39.6973 17.9775 39.7754 18.1455 39.7754C18.2705 39.7754 18.4502 39.7227 18.6846 39.6172L18.8018 40.8945C18.4893 41.0586 18.1357 41.1406 17.7412 41.1406C17.3975 41.1406 17.1221 41.0586 16.915 40.8945C16.708 40.7305 16.5693 40.4941 16.499 40.1855C16.4443 39.959 16.417 39.498 16.417 38.8027V36.0898H15.7959V34.7773H16.417V33.541L17.7705 32.5801V34.7773H18.6904ZM19.6396 33.9336V32.4102H20.9932V33.9336H19.6396ZM19.6396 41V34.7773H20.9932V41H19.6396ZM27.0225 41H25.6689V37.8242C25.6689 37.1875 25.6436 36.7637 25.5928 36.5527C25.542 36.3418 25.4463 36.1797 25.3057 36.0664C25.1689 35.9531 25.0127 35.8965 24.8369 35.8965C24.6104 35.8965 24.4053 35.9707 24.2217 36.1191C24.0381 36.2637 23.9092 36.4648 23.835 36.7227C23.7607 36.9805 23.7236 37.4668 23.7236 38.1816V41H22.3701V34.7773H23.624V35.6914C23.8467 35.3398 24.0967 35.0762 24.374 34.9004C24.6553 34.7246 24.9658 34.6367 25.3057 34.6367C25.7002 34.6367 26.0322 34.7402 26.3018 34.9473C26.5752 35.1504 26.7627 35.4141 26.8643 35.7383C26.9697 36.0586 27.0225 36.5234 27.0225 37.1328V41ZM28.2646 41.4102L29.8115 41.6387C29.835 41.8652 29.9053 42.0254 30.0225 42.1191C30.1436 42.2168 30.333 42.2656 30.5908 42.2656C30.8877 42.2656 31.1279 42.2168 31.3115 42.1191C31.4404 42.0488 31.54 41.9316 31.6104 41.7676C31.6807 41.6035 31.7158 41.3145 31.7158 40.9004V39.9922C31.5127 40.3281 31.2842 40.5801 31.0303 40.748C30.7764 40.916 30.4951 41 30.1865 41C29.6201 41 29.1436 40.7441 28.7568 40.2324C28.3115 39.6465 28.0889 38.8535 28.0889 37.8535C28.0889 36.791 28.2979 35.9902 28.7158 35.4512C29.1377 34.9082 29.6475 34.6367 30.2451 34.6367C30.5615 34.6367 30.8486 34.7207 31.1064 34.8887C31.3682 35.0566 31.6006 35.3105 31.8037 35.6504V34.7773H33.0693V40.3613C33.0693 41.2559 32.9873 41.9043 32.8232 42.3066C32.6592 42.709 32.4053 43.0117 32.0615 43.2148C31.7217 43.4219 31.249 43.5254 30.6436 43.5254C30.085 43.5254 29.6377 43.4512 29.3018 43.3027C28.9658 43.1543 28.708 42.9316 28.5283 42.6348C28.3525 42.3418 28.2646 42.002 28.2646 41.6152V41.4102ZM29.4717 37.7598C29.4717 38.4238 29.5771 38.9082 29.7881 39.2129C30.0029 39.5176 30.2607 39.6699 30.5615 39.6699C30.8857 39.6699 31.1631 39.5156 31.3936 39.207C31.624 38.8984 31.7393 38.4297 31.7393 37.8008C31.7393 37.1523 31.6279 36.6738 31.4053 36.3652C31.1865 36.0527 30.915 35.8965 30.5908 35.8965C30.2705 35.8965 30.0029 36.0488 29.7881 36.3535C29.5771 36.6582 29.4717 37.127 29.4717 37.7598ZM33.9307 39.2246L35.2842 38.9727C35.4014 39.625 35.7646 39.9512 36.374 39.9512C36.6982 39.9512 36.9404 39.8887 37.1006 39.7637C37.2607 39.6387 37.3408 39.4766 37.3408 39.2773C37.3408 39.1406 37.3057 39.0332 37.2354 38.9551C37.1611 38.877 37.0146 38.8086 36.7959 38.75C35.6865 38.457 34.9814 38.1777 34.6807 37.9121C34.3057 37.5801 34.1182 37.125 34.1182 36.5469C34.1182 35.9688 34.3018 35.5059 34.6689 35.1582C35.0361 34.8105 35.5693 34.6367 36.2686 34.6367C36.9365 34.6367 37.4443 34.7676 37.792 35.0293C38.1396 35.2871 38.3838 35.7051 38.5244 36.2832L37.2529 36.5703C37.1396 36.0703 36.8193 35.8203 36.292 35.8203C35.96 35.8203 35.7236 35.8691 35.583 35.9668C35.4424 36.0605 35.3721 36.1836 35.3721 36.3359C35.3721 36.4727 35.4365 36.5859 35.5654 36.6758C35.6943 36.7695 36.0947 36.9102 36.7666 37.0977C37.5205 37.3086 38.0322 37.5645 38.3018 37.8652C38.5674 38.166 38.7002 38.5664 38.7002 39.0664C38.7002 39.668 38.4932 40.1641 38.0791 40.5547C37.6689 40.9453 37.1006 41.1406 36.374 41.1406C35.7139 41.1406 35.1748 40.9785 34.7568 40.6543C34.3389 40.3262 34.0635 39.8496 33.9307 39.2246Z" fill="#737373"/>
</svg>
