<svg width="40" height="44" viewBox="0 0 40 44" fill="none" xmlns="http://www.w3.org/2000/svg">
<g clip-path="url(#clip0_2277_4577)">
<path fill-rule="evenodd" clip-rule="evenodd" d="M19.9986 0C18.7328 0 17.4955 0.375353 16.443 1.07859C15.3905 1.78184 14.5702 2.78138 14.0858 3.95083C13.6014 5.12027 13.4747 6.4071 13.7216 7.64858C13.9686 8.89006 14.5781 10.0304 15.4732 10.9255C16.3682 11.8205 17.5086 12.4301 18.7501 12.677C19.9915 12.924 21.2784 12.7972 22.4478 12.3128C23.6173 11.8284 24.6168 11.0081 25.32 9.95565C26.0233 8.90317 26.3986 7.6658 26.3986 6.4C26.3986 4.70261 25.7244 3.07475 24.5241 1.87452C23.3239 0.674284 21.696 0 19.9986 0ZM19.9986 1.6C20.948 1.6 21.876 1.88151 22.6654 2.40895C23.4547 2.93638 24.07 3.68603 24.4333 4.56312C24.7966 5.4402 24.8916 6.40532 24.7064 7.33643C24.5212 8.26754 24.064 9.12282 23.3927 9.79411C22.7215 10.4654 21.8662 10.9226 20.9351 11.1078C20.004 11.293 19.0388 11.1979 18.1618 10.8346C17.2847 10.4713 16.535 9.85609 16.0076 9.06674C15.4802 8.27738 15.1986 7.34935 15.1986 6.4C15.1986 5.12696 15.7043 3.90606 16.6045 3.00589C17.5047 2.10571 18.7256 1.6 19.9986 1.6Z" fill="#737373"/>
<path fill-rule="evenodd" clip-rule="evenodd" d="M20 14.56C15.4744 14.56 11.5536 15.5 9.6 16.816C9.14988 17.0618 8.76797 17.4157 8.48866 17.8458C8.20935 18.276 8.04143 18.7688 8 19.28C8.04143 19.7912 8.20935 20.284 8.48866 20.7142C8.76797 21.1443 9.14988 21.4982 9.6 21.744C11.5536 23.06 15.4744 24 20 24C24.5256 24 28.4464 23.06 30.4 21.744C30.8501 21.4982 31.232 21.1443 31.5113 20.7142C31.7906 20.284 31.9586 19.7912 32 19.28C31.9586 18.7688 31.7906 18.276 31.5113 17.8458C31.232 17.4157 30.8501 17.0618 30.4 16.816C28.4464 15.5 24.5256 14.56 20 14.56ZM20 16.16C22.9721 16.0646 25.9319 16.5845 28.6936 17.6872C29.1952 17.9067 29.654 18.2133 30.0488 18.5928C30.1575 18.6714 30.246 18.7747 30.3071 18.8941C30.3681 19.0136 30.4 19.1458 30.4 19.28C30.4 19.4142 30.3681 19.5464 30.3071 19.6659C30.246 19.7853 30.1575 19.8886 30.0488 19.9672C29.654 20.3467 29.1952 20.6533 28.6936 20.8728C25.9319 21.9754 22.9721 22.4954 20 22.4C17.0279 22.4954 14.0681 21.9754 11.3064 20.8728C10.8048 20.6533 10.346 20.3467 9.9512 19.9672C9.84248 19.8886 9.75397 19.7853 9.69292 19.6659C9.63188 19.5464 9.60005 19.4142 9.60005 19.28C9.60005 19.1458 9.63188 19.0136 9.69292 18.8941C9.75397 18.7747 9.84248 18.6714 9.9512 18.5928C10.346 18.2133 10.8048 17.9067 11.3064 17.6872C14.0681 16.5845 17.0279 16.0646 20 16.16Z" fill="#737373"/>
</g>
<path d="M7.06641 41H5.51953L4.9043 39.0488H2.0918L1.51172 41H0L2.74219 32.4102H4.24805L7.06641 41ZM4.44727 37.6016L3.48047 34.4141L2.52539 37.6016H4.44727ZM12.2578 36.6172L10.9277 36.9102C10.8301 36.2578 10.5234 35.9316 10.0078 35.9316C9.67578 35.9316 9.4082 36.0723 9.20508 36.3535C9.00195 36.6348 8.90039 37.1094 8.90039 37.7773C8.90039 38.5156 9.00195 39.0371 9.20508 39.3418C9.4082 39.6465 9.67969 39.7988 10.0195 39.7988C10.2734 39.7988 10.4824 39.7129 10.6465 39.541C10.8105 39.3652 10.9277 39.0566 10.998 38.6152L12.3281 38.8906C12.0547 40.3906 11.2676 41.1406 9.9668 41.1406C9.13477 41.1406 8.51758 40.8242 8.11523 40.1914C7.71289 39.5586 7.51172 38.7969 7.51172 37.9062C7.51172 36.8398 7.73828 36.0293 8.19141 35.4746C8.64844 34.916 9.24609 34.6367 9.98438 34.6367C10.582 34.6367 11.0684 34.7949 11.4434 35.1113C11.8223 35.4277 12.0938 35.9297 12.2578 36.6172ZM17.7305 36.6172L16.4004 36.9102C16.3027 36.2578 15.9961 35.9316 15.4805 35.9316C15.1484 35.9316 14.8809 36.0723 14.6777 36.3535C14.4746 36.6348 14.373 37.1094 14.373 37.7773C14.373 38.5156 14.4746 39.0371 14.6777 39.3418C14.8809 39.6465 15.1523 39.7988 15.4922 39.7988C15.7461 39.7988 15.9551 39.7129 16.1191 39.541C16.2832 39.3652 16.4004 39.0566 16.4707 38.6152L17.8008 38.8906C17.5273 40.3906 16.7402 41.1406 15.4395 41.1406C14.6074 41.1406 13.9902 40.8242 13.5879 40.1914C13.1855 39.5586 12.9844 38.7969 12.9844 37.9062C12.9844 36.8398 13.2109 36.0293 13.6641 35.4746C14.1211 34.916 14.7188 34.6367 15.457 34.6367C16.0547 34.6367 16.541 34.7949 16.916 35.1113C17.2949 35.4277 17.5664 35.9297 17.7305 36.6172ZM18.4395 37.8008C18.4395 37.1914 18.5605 36.6367 18.8027 36.1367C19.0449 35.6367 19.3613 35.2617 19.752 35.0117C20.1426 34.7617 20.582 34.6367 21.0703 34.6367C21.8906 34.6367 22.5352 34.959 23.0039 35.6035C23.4727 36.2441 23.707 36.9941 23.707 37.8535C23.707 38.4941 23.584 39.0723 23.3379 39.5879C23.0957 40.1035 22.7754 40.4922 22.377 40.7539C21.9824 41.0117 21.5488 41.1406 21.0762 41.1406C20.3184 41.1406 19.6895 40.8516 19.1895 40.2734C18.6895 39.6953 18.4395 38.8711 18.4395 37.8008ZM19.8223 37.8887C19.8223 38.5176 19.9453 38.9941 20.1914 39.3184C20.4375 39.6387 20.7344 39.7988 21.082 39.7988C21.4219 39.7988 21.7129 39.6367 21.9551 39.3125C22.1973 38.9883 22.3184 38.5098 22.3184 37.877C22.3184 37.2598 22.1953 36.7891 21.9492 36.4648C21.7031 36.1406 21.4082 35.9785 21.0645 35.9785C20.7246 35.9785 20.4316 36.1406 20.1855 36.4648C19.9434 36.7891 19.8223 37.2637 19.8223 37.8887ZM28.1191 41V40.0684C27.9316 40.4043 27.6855 40.668 27.3809 40.8594C27.0762 41.0469 26.7578 41.1406 26.4258 41.1406C26.0898 41.1406 25.7891 41.0527 25.5234 40.877C25.2578 40.7012 25.0586 40.4512 24.9258 40.127C24.7969 39.8027 24.7324 39.332 24.7324 38.7148V34.7773H26.0859V37.6367C26.0859 38.4531 26.1055 38.9727 26.1445 39.1953C26.1875 39.4141 26.2793 39.584 26.4199 39.7051C26.5605 39.8262 26.7305 39.8867 26.9297 39.8867C27.1562 39.8867 27.3652 39.8086 27.5566 39.6523C27.748 39.4922 27.873 39.2891 27.9316 39.043C27.9941 38.793 28.0254 38.2461 28.0254 37.4023V34.7773H29.373V41H28.1191ZM35.4199 41H34.0664V37.8242C34.0664 37.1875 34.041 36.7637 33.9902 36.5527C33.9395 36.3418 33.8438 36.1797 33.7031 36.0664C33.5664 35.9531 33.4102 35.8965 33.2344 35.8965C33.0078 35.8965 32.8027 35.9707 32.6191 36.1191C32.4355 36.2637 32.3066 36.4648 32.2324 36.7227C32.1582 36.9805 32.1211 37.4668 32.1211 38.1816V41H30.7676V34.7773H32.0215V35.6914C32.2441 35.3398 32.4941 35.0762 32.7715 34.9004C33.0527 34.7246 33.3633 34.6367 33.7031 34.6367C34.0977 34.6367 34.4297 34.7402 34.6992 34.9473C34.9727 35.1504 35.1602 35.4141 35.2617 35.7383C35.3672 36.0586 35.4199 36.5234 35.4199 37.1328V41ZM39.123 34.7773V36.0898H38.2031V38.5977C38.2031 39.1406 38.2168 39.4551 38.2441 39.541C38.2988 39.6973 38.4102 39.7754 38.5781 39.7754C38.7031 39.7754 38.8828 39.7227 39.1172 39.6172L39.2344 40.8945C38.9219 41.0586 38.5684 41.1406 38.1738 41.1406C37.8301 41.1406 37.5547 41.0586 37.3477 40.8945C37.1406 40.7305 37.002 40.4941 36.9316 40.1855C36.877 39.959 36.8496 39.498 36.8496 38.8027V36.0898H36.2285V34.7773H36.8496V33.541L38.2031 32.5801V34.7773H39.123Z" fill="#737373"/>
<defs>
<clipPath id="clip0_2277_4577">
<rect width="24" height="24" fill="white" transform="translate(8)"/>
</clipPath>
</defs>
</svg>
