<svg width="37" height="36" viewBox="0 0 37 36" fill="none" xmlns="http://www.w3.org/2000/svg">
<circle cx="18.5" cy="18" r="18" fill="#1F1F1F"/>
<path fill-rule="evenodd" clip-rule="evenodd" d="M24.3599 13.5528C24.4379 13.4748 24.4379 13.3483 24.3599 13.2702L23.2298 12.1401C23.1517 12.0621 23.0252 12.0621 22.9472 12.1401L22.3822 12.7052L23.7948 14.1178L24.3599 13.5528ZM21.5346 16.378C21.6126 16.3 21.6126 16.1735 21.5346 16.0955L20.4045 14.9654C20.3265 14.8874 20.2 14.8874 20.122 14.9654L12.5944 22.493C12.5508 22.5366 12.5298 22.5978 12.5374 22.659L12.663 23.6635C12.6743 23.7542 12.7458 23.8257 12.8365 23.837L13.841 23.9626C13.9022 23.9702 13.9634 23.9492 14.007 23.9056L21.5346 16.378ZM25.2074 12.7052C25.5975 13.0953 25.5975 13.7277 25.2074 14.1178L23.7948 15.5304L20.9696 12.7052L22.3822 11.2926C22.7723 10.9025 23.4047 10.9025 23.7948 11.2926L25.2074 12.7052ZM23.0885 16.2368L14.4715 24.8537C14.3626 24.9627 14.2094 25.0153 14.0564 24.9961L12.1729 24.7607C11.9462 24.7324 11.7676 24.5538 11.7393 24.3271L11.5039 22.4436C11.4847 22.2906 11.5373 22.1374 11.6463 22.0285L20.2632 13.4115L23.0885 16.2368Z" fill="#F2F2F2"/>
</svg>
