<svg width="120" height="124" viewBox="0 0 120 124" fill="none" xmlns="http://www.w3.org/2000/svg">
<path fill-rule="evenodd" clip-rule="evenodd" d="M62.1009 1.14086L76.8927 42.7086L118.551 45.9998C119.415 46.067 120.063 46.8075 119.995 47.6547C119.956 48.131 119.7 48.5401 119.331 48.795L88.4202 73.945L97.8741 116.792C98.053 117.623 97.5116 118.44 96.6621 118.615C96.1775 118.716 95.694 118.585 95.3373 118.297L60.5914 93.1278L25.7815 118.345C25.0848 118.849 24.1013 118.707 23.5859 118.025C23.3146 117.669 23.227 117.237 23.3028 116.834L31.5139 73.4374L1.81894 51.8452C1.12106 51.3399 0.976481 50.378 1.49308 49.6966C1.74545 49.364 2.10926 49.1601 2.49671 49.0975V49.0952L43.6184 42.2833L59.1151 1.03541C59.4137 0.236942 60.3166 -0.172138 61.1317 0.119898C61.6211 0.296048 61.9682 0.685426 62.1009 1.14086ZM74.2635 44.6683L60.5499 6.12867L46.2546 44.1804C46.0639 44.681 45.6136 45.0727 45.0366 45.1677L6.64371 51.5276L34.1537 71.5322C34.6288 71.8694 34.8918 72.4535 34.7805 73.0538L27.1145 113.558L59.6293 90.0023C60.1708 89.5921 60.9469 89.5654 61.5251 89.9838L93.9191 113.45L85.1464 73.6831H85.15C85.035 73.1442 85.2186 72.5613 85.6831 72.1846L114.463 48.7661L75.6249 45.6973V45.6939C75.0206 45.6475 74.4755 45.2616 74.2635 44.6683Z" fill="url(#paint0_linear_2274_912)"/>
<path fill-rule="evenodd" clip-rule="evenodd" d="M60.0366 17.9256C58.0283 19.3023 59.7807 22.8508 60.3933 24.5891C61.1765 26.8211 61.8388 29.1006 62.6125 31.3384C63.3222 33.3908 63.9135 35.6842 65.5427 37.2243C66.2204 37.8663 67.1742 37.3564 67.2643 36.5255C67.6339 33.0802 65.2547 28.8874 64.0011 25.7236C63.4608 24.3608 62.8874 23.0246 62.2262 21.7139C61.648 20.5643 61.4964 19.1968 60.8222 18.1272C60.6717 17.8838 60.2985 17.7482 60.0366 17.9256Z" fill="url(#paint1_linear_2274_912)"/>
<path fill-rule="evenodd" clip-rule="evenodd" d="M67.1422 41.4137C67.0924 41.4218 67.0438 41.4311 66.9952 41.4404C66.1824 41.5864 65.7345 42.5343 65.9371 43.2598C66.1706 44.0872 66.9881 44.4384 67.7974 44.2935C67.872 44.2808 67.9419 44.2657 68.013 44.2425C68.6327 44.0339 69.0841 43.5333 69.0841 42.8658C69.0841 42.2006 68.6315 41.6999 68.013 41.4902C67.9419 41.4659 67.8732 41.4519 67.7974 41.4392C66.9869 41.2943 66.1706 41.6455 65.9371 42.4729C65.7345 43.1984 66.1824 44.1463 66.9952 44.2924C67.0438 44.3016 67.0924 44.3109 67.1422 44.319C67.5628 44.3943 67.9514 44.3862 68.3293 44.1672C68.7985 43.8983 69.0924 43.3965 69.0924 42.8646C69.0924 42.4671 68.9289 42.0812 68.641 41.7996C68.2274 41.3963 67.6967 41.314 67.1422 41.4137Z" fill="url(#paint2_linear_2274_912)"/>
<path fill-rule="evenodd" clip-rule="evenodd" d="M79.6924 76.1962C79.4365 78.9914 79.8607 81.6684 80.5585 84.3721C81.2149 86.9008 81.8358 90.3403 83.6699 92.315C84.0503 92.7276 84.8583 92.5329 84.9756 91.9789C85.4425 89.7678 84.2777 87.5462 83.5538 85.48C82.4922 82.4449 81.3831 79.4422 81.3417 76.1974C81.3286 75.1405 79.786 75.1764 79.6924 76.1962Z" fill="url(#paint3_linear_2274_912)"/>
<path fill-rule="evenodd" clip-rule="evenodd" d="M52.5165 89.0239C49.7499 91.1574 46.7652 92.9548 43.7675 94.7545C41.4653 96.1382 38.7212 97.2183 37.0505 99.3552C36.5766 99.9602 37.3562 100.592 37.9451 100.492C40.8077 100.012 43.4381 97.8221 45.8256 96.2947C48.6278 94.4996 51.2569 92.4194 53.6977 90.1793C54.5023 89.4411 53.3388 88.3876 52.5165 89.0239Z" fill="url(#paint4_linear_2274_912)"/>
<path fill-rule="evenodd" clip-rule="evenodd" d="M103.302 53.1207C97.7602 56.5 91.2802 60.4599 87.1866 65.5103C86.8157 65.9669 87.2636 66.5649 87.8193 66.3111C93.7921 63.575 99.342 58.5628 104.181 54.2379C104.795 53.6909 104 52.6954 103.302 53.1207Z" fill="url(#paint5_linear_2274_912)"/>
<path fill-rule="evenodd" clip-rule="evenodd" d="M87.1978 97.1095C87.18 97.0863 87.1634 97.0643 87.1456 97.0399C86.776 96.5127 86.1776 96.2113 85.5153 96.3898C84.8956 96.5578 84.4561 97.1245 84.4561 97.7527C84.4561 98.3819 84.8956 98.9498 85.5153 99.1155C86.1776 99.294 86.776 98.9926 87.1456 98.4665C87.1634 98.4422 87.18 98.4179 87.1978 98.3947C87.4407 98.0493 87.4407 97.4548 87.1978 97.1095Z" fill="url(#paint6_linear_2274_912)"/>
<path fill-rule="evenodd" clip-rule="evenodd" d="M80.617 32.6283C79.085 28.9188 78.7154 25.0539 78.5661 21.0894C78.4369 17.6533 79.0732 13.1639 77.3125 10.0511C76.9891 9.47979 76.0127 9.5783 75.8634 10.2354C75.0471 13.8406 75.8788 18.2745 76.0921 21.9447C76.3208 25.857 76.7603 29.9224 78.6727 33.4291C79.2296 34.4547 81.072 33.7316 80.617 32.6283Z" fill="url(#paint7_linear_2274_912)"/>
<path fill-rule="evenodd" clip-rule="evenodd" d="M84.7765 37.8768C88.6546 37.9406 92.5326 38.418 96.3893 38.79C99.7483 39.1122 103.791 40.0984 107.048 38.9859C107.924 38.688 107.84 37.6543 107.048 37.3287C103.885 36.025 99.778 36.3378 96.3893 36.0748C92.5029 35.7735 88.67 35.7167 84.7765 35.9021C83.4827 35.9635 83.4684 37.8537 84.7765 37.8768Z" fill="url(#paint8_linear_2274_912)"/>
<path fill-rule="evenodd" clip-rule="evenodd" d="M88.3171 32.7163C88.8562 30.0265 90.3396 27.776 92.0316 25.6379C93.5624 23.7049 95.6371 22.0198 96.649 19.7531C96.9831 18.9998 96.2734 18.1191 95.444 18.5768C93.0352 19.9049 91.2484 22.32 89.5778 24.4234C87.7827 26.6843 86.2507 29.169 85.6819 32.0047C85.3395 33.6897 87.9794 34.4071 88.3171 32.7163Z" fill="url(#paint9_linear_2274_912)"/>
<path fill-rule="evenodd" clip-rule="evenodd" d="M42.9897 33.5416C42.2159 29.7938 43.0951 26.0402 44.0453 22.4036C44.8629 19.2805 46.2077 16.2488 45.9375 12.9773C45.8902 12.4245 45.1153 12.1221 44.8048 12.6772C42.9576 15.9881 42.1638 19.8657 41.2905 23.5162C40.4611 26.9858 40.1365 30.5899 41.0014 34.0781C41.3154 35.3506 43.2515 34.8048 42.9897 33.5416Z" fill="url(#paint10_linear_2274_912)"/>
<path fill-rule="evenodd" clip-rule="evenodd" d="M38.6609 37.864C35.8255 38.5397 32.4463 38.2105 29.56 38.0135C28.0339 37.9092 26.5433 37.5929 25.0658 37.2174C23.8821 36.9161 22.6807 36.2972 21.4354 36.412C20.8631 36.4653 20.4816 36.9056 20.6084 37.4735C21.247 40.3382 25.7127 40.6905 28.0836 40.9072C31.9297 41.2595 35.4913 40.5712 39.0293 39.1736C39.8421 38.8537 39.5554 37.6508 38.6609 37.864Z" fill="url(#paint11_linear_2274_912)"/>
<path fill-rule="evenodd" clip-rule="evenodd" d="M35.9298 30.0833C34.4831 29.082 33.0625 28.0657 31.7639 26.8825C30.566 25.792 29.6631 24.4489 28.3348 23.5113C27.6737 23.0443 27.0268 23.8126 27.1228 24.4222C27.6643 27.8872 32.0068 30.3174 34.726 32.0986C36.0151 32.9469 37.168 30.942 35.9298 30.0833Z" fill="url(#paint12_linear_2274_912)"/>
<path fill-rule="evenodd" clip-rule="evenodd" d="M25.8953 79.5083C24.8645 81.8794 24.0209 84.3072 23.278 86.778C22.4853 89.426 20.4947 92.1192 20.426 94.853C20.4118 95.4637 21.1405 95.8578 21.6678 95.5483C23.8313 94.2875 24.4853 91.432 25.1583 89.1942C26.0624 86.1846 26.4712 83.0615 27.0434 79.9812C27.1631 79.3461 26.1915 78.8246 25.8953 79.5083Z" fill="url(#paint13_linear_2274_912)"/>
<path fill-rule="evenodd" clip-rule="evenodd" d="M22.3808 71.7924C20.3346 70.9151 18.2943 70.0633 16.3274 69.0192C14.3866 67.9866 12.5074 66.0861 10.3806 65.5553C9.69932 65.3861 9.08795 65.9887 9.25975 66.6528C10.3534 70.9313 17.8915 72.5155 21.5029 73.8309C22.7103 74.2689 23.5598 72.2988 22.3808 71.7924Z" fill="url(#paint14_linear_2274_912)"/>
<path fill-rule="evenodd" clip-rule="evenodd" d="M21.8382 76.041C20.4768 76.8175 19.0324 77.2891 17.5205 77.7063C16.2717 78.0517 15.0442 78.3646 14.2432 79.4122C13.9209 79.8352 14.2646 80.4737 14.735 80.5966C16.0608 80.9442 17.4222 80.3509 18.6545 79.8908C20.1415 79.3357 21.5775 78.6867 22.8903 77.8002C23.9816 77.0655 23.0148 75.3712 21.8382 76.041Z" fill="url(#paint15_linear_2274_912)"/>
<path fill-rule="evenodd" clip-rule="evenodd" d="M55.8875 100.813C53.6291 102.128 51.5414 103.654 49.7002 105.49C48.0828 107.101 45.6787 109.319 45.5614 111.701C45.5342 112.221 46.1492 112.731 46.6729 112.531C48.6966 111.755 49.9229 109.557 51.2878 107.989C52.9893 106.035 54.8626 104.165 56.9906 102.665C58.1186 101.871 57.1245 100.091 55.8875 100.813Z" fill="url(#paint16_linear_2274_912)"/>
<path fill-rule="evenodd" clip-rule="evenodd" d="M62.6698 102.833C66.3322 105.453 69.2849 108.945 72.9994 111.471C73.439 111.77 73.9781 111.279 73.8608 110.823C72.6546 106.277 67.3203 103.644 63.5466 101.367C62.5726 100.779 61.7859 102.201 62.6698 102.833Z" fill="url(#paint17_linear_2274_912)"/>
<path fill-rule="evenodd" clip-rule="evenodd" d="M59.4832 106.763C59.0567 108.959 58.4737 111.683 59.482 113.786C59.6515 114.14 60.2652 114.14 60.4382 113.786C61.411 111.759 60.9418 109.178 61.2084 106.991C61.3245 106.027 59.6645 105.816 59.4832 106.763Z" fill="url(#paint18_linear_2274_912)"/>
<path fill-rule="evenodd" clip-rule="evenodd" d="M94.7074 75.9923C97.493 75.2228 99.9314 73.8287 102.318 72.2515C104.661 70.7032 107.187 69.4145 109.352 67.6275C109.845 67.2196 109.426 66.4617 108.853 66.449C103.285 66.3342 99.1435 72.0985 94.109 73.8634C92.7571 74.3397 93.2891 76.3852 94.7074 75.9923Z" fill="url(#paint19_linear_2274_912)"/>
<path fill-rule="evenodd" clip-rule="evenodd" d="M94.5293 78.5603C93.5446 80.71 94.3231 83.7602 94.7971 85.9701C95.3385 88.5046 96.3623 91.5026 98.6585 93.0068C99.8588 93.7949 101.341 92.2582 100.609 91.0982C99.2616 88.9647 98.1396 86.9691 97.3575 84.5552C96.7379 82.6372 96.6703 80.3531 95.7663 78.5614C95.5411 78.1153 94.7449 78.0898 94.5293 78.5603Z" fill="url(#paint20_linear_2274_912)"/>
<path fill-rule="evenodd" clip-rule="evenodd" d="M99.6756 79.0148C102.419 81.3012 107.273 85.1603 111.047 83.2864C111.412 83.1056 111.508 82.5169 111.182 82.2527C109.824 81.1529 108.325 80.9605 106.703 80.3695C104.671 79.6301 102.848 78.4446 101.121 77.1814C100.036 76.3864 98.6483 78.1595 99.6756 79.0148Z" fill="url(#paint21_linear_2274_912)"/>
<path fill-rule="evenodd" clip-rule="evenodd" d="M119.726 86.7756C119.878 86.2077 119.722 85.6028 119.297 85.1856C118.532 84.4393 117.215 84.6062 116.671 85.5159C116.21 86.2854 116.486 87.3029 117.269 87.7525C118.195 88.2821 119.45 87.7977 119.726 86.7756Z" fill="url(#paint22_linear_2274_912)"/>
<path fill-rule="evenodd" clip-rule="evenodd" d="M117.192 64.8439C117.195 64.8393 117.198 64.8335 117.199 64.8277C117.049 65.0768 116.903 65.326 116.754 65.574C116.764 65.5612 116.776 65.5496 116.789 65.5404C117.264 65.144 117.409 64.4024 117.25 63.8357C117.039 63.0824 116.318 62.547 115.522 62.547C114.725 62.547 114.003 63.0824 113.792 63.8357C113.568 64.633 113.945 65.37 114.617 65.815C114.913 66.0109 115.2 66.0341 115.544 66.0711C116.341 66.1569 116.936 65.4871 117.192 64.8439Z" fill="url(#paint23_linear_2274_912)"/>
<path fill-rule="evenodd" clip-rule="evenodd" d="M104.778 97.524C104.665 97.5275 104.553 97.5298 104.44 97.5333C103.612 97.5576 102.92 98.1915 102.92 99.0201C102.92 99.8487 103.612 100.483 104.44 100.506C104.553 100.509 104.665 100.513 104.778 100.516C105.611 100.541 106.309 99.8163 106.309 99.019C106.309 98.224 105.611 97.4997 104.778 97.524Z" fill="url(#paint24_linear_2274_912)"/>
<path fill-rule="evenodd" clip-rule="evenodd" d="M76.8704 115.62C76.6595 115.57 76.4415 115.53 76.2223 115.537C74.9651 115.578 74.1132 116.903 74.7732 118.007C75.3917 119.042 77.0706 119.107 77.6725 118.007C76.7329 118.545 76.4628 118.759 76.8692 118.649C77.56 118.475 78.0493 117.824 78.0493 117.133C78.0505 116.452 77.5623 115.786 76.8704 115.62Z" fill="url(#paint25_linear_2274_912)"/>
<path fill-rule="evenodd" clip-rule="evenodd" d="M60.8862 120.753C60.8542 120.752 60.8222 120.75 60.7914 120.75C61.0485 120.818 61.3044 120.885 61.5579 120.953C61.5342 120.939 61.5129 120.924 61.4881 120.908C60.7084 120.417 59.6148 120.749 59.161 121.505C58.629 122.397 59.1006 123.707 60.1764 123.944C60.6966 124.059 61.2013 124.003 61.6433 123.711C62.3103 123.271 62.5473 122.641 62.4063 121.878C62.3814 121.74 62.2996 121.617 62.2368 121.49C61.9857 120.963 61.3589 120.718 60.8068 120.686C60.77 120.684 60.7344 120.683 60.7001 120.679C60.8506 120.697 61.0011 120.718 61.1516 120.737C60.8174 120.681 60.5094 120.618 60.1764 120.741C60.8755 121.128 61.5721 121.514 62.2676 121.901C62.2653 121.883 62.2617 121.863 62.2582 121.843C62.1278 122.327 61.9964 122.81 61.8672 123.292C61.8886 123.273 61.911 123.254 61.9371 123.236C62.3328 122.913 62.449 122.286 62.3186 121.82C62.1409 121.184 61.5509 120.77 60.8862 120.753Z" fill="url(#paint26_linear_2274_912)"/>
<path fill-rule="evenodd" clip-rule="evenodd" d="M40.9097 115.904C40.6502 115.868 40.3907 115.833 40.1312 115.802C40.3931 115.872 40.6525 115.94 40.9132 116.009C40.9049 116.002 40.8943 115.996 40.886 115.987C41.0732 116.173 41.2604 116.356 41.4512 116.541C41.3102 116.277 41.0957 116.102 40.8445 115.94C40.489 115.709 39.9831 115.67 39.5815 115.778C38.9926 115.936 38.6395 116.361 38.4345 116.899C38.3812 117.036 38.3634 117.189 38.374 117.334C38.438 118.099 38.8421 118.645 39.5909 118.897C39.7722 118.959 40.0198 118.959 40.2272 118.977C40.7497 119.023 41.1976 118.838 41.5756 118.486C41.3516 118.612 41.1324 118.74 40.9085 118.866C40.9263 118.86 40.9429 118.854 40.9606 118.848C41.4559 118.677 41.8457 118.353 41.9902 117.842C42.1395 117.309 41.9548 116.848 41.6111 116.439C41.5981 116.425 41.5862 116.412 41.5756 116.396C41.7035 116.614 41.8363 116.831 41.963 117.048C41.8256 116.626 41.6028 116.275 41.2023 116.047C41.0341 115.951 40.8089 115.882 40.617 115.818C39.9949 115.61 39.3362 115.741 38.8551 116.191C39.098 116.053 39.3386 115.916 39.5815 115.778H39.5802C40.2734 116.293 40.9653 116.81 41.6597 117.327C41.6585 117.326 41.6585 117.326 41.6585 117.324C41.6384 117.466 41.6206 117.606 41.6004 117.75C41.6692 117.507 41.5447 117.72 41.2272 118.39C40.9997 118.52 40.7723 118.649 40.5436 118.779C40.6656 118.762 40.7865 118.746 40.9109 118.728C41.559 118.642 42.0104 117.903 42.0104 117.318C42.0092 116.73 41.5578 115.99 40.9097 115.904Z" fill="url(#paint27_linear_2274_912)"/>
<path fill-rule="evenodd" clip-rule="evenodd" d="M16.991 100.603C17.2813 100.653 17.3512 100.659 17.2043 100.622C17.5965 100.782 17.561 100.768 17.1012 100.579C16.4733 100.479 16.5503 100.516 17.3323 100.694C17.2079 100.639 17.0775 100.586 16.9507 100.535C16.6131 100.398 16.1344 100.506 15.8323 100.679C15.5029 100.868 15.273 101.171 15.1651 101.528C14.9969 102.075 15.1841 102.71 15.5929 103.112C15.9567 103.466 16.4898 103.616 16.991 103.598C17.8252 103.568 18.5231 102.941 18.5231 102.101C18.5231 101.705 18.3584 101.322 18.074 101.041C17.7647 100.738 17.4128 100.647 16.991 100.603Z" fill="url(#paint28_linear_2274_912)"/>
<path fill-rule="evenodd" clip-rule="evenodd" d="M7.48842 83.4603C7.39837 83.3154 7.41739 83.3652 7.53825 83.6097C7.46242 83.1184 6.93039 82.6595 6.45644 82.5505H6.45167C5.28696 82.2794 4.23484 83.2772 4.53105 84.4291C4.59977 84.6933 4.77273 84.9807 4.9706 85.1719C5.07724 85.2704 5.19342 85.3562 5.31664 85.4292C5.43631 85.479 5.55833 85.5289 5.68156 85.5787C6.18038 85.6413 6.22066 85.6494 5.8024 85.5995C6.25265 85.7826 6.85457 85.559 7.17803 85.2449C7.56785 84.8613 7.60816 84.4082 7.53825 83.9018C7.53706 83.8844 7.53469 83.8682 7.53232 83.8508C7.53232 84.1 7.53232 84.3503 7.53232 84.5994C7.66621 84.2576 7.59156 83.9806 7.54179 83.6364C7.56075 83.772 7.58086 83.9064 7.59863 84.0409C7.63063 83.765 7.50625 83.4858 7.38421 83.247C7.19819 83.9389 7.01329 84.6307 6.82845 85.3226C6.84385 85.3156 6.8581 85.3087 6.8735 85.3017C6.37823 85.3017 5.88418 85.3017 5.38773 85.3017C5.43512 85.3249 5.48128 85.3492 5.52868 85.377C6.08793 85.6911 6.80599 85.6053 7.26452 85.1569C7.70766 84.7223 7.82729 83.9922 7.48842 83.4603Z" fill="url(#paint29_linear_2274_912)"/>
<path fill-rule="evenodd" clip-rule="evenodd" d="M0.119796 63.2446C0.0498893 63.4937 0.0143725 63.7545 0.00133908 64.0129C-0.0199884 64.5356 0.215763 64.9841 0.542784 65.3781C1.16009 66.1221 2.50966 66.0618 3.13408 65.3804C3.72058 64.7384 3.72058 63.882 3.13408 63.2388C3.34025 63.5192 3.40307 63.6004 3.32724 63.481C2.99548 63.0615 2.9824 63.0453 3.28927 63.4323C3.34615 63.5644 3.40303 63.6954 3.45872 63.8263C3.43739 63.773 3.41967 63.7139 3.41019 63.6571C3.43033 63.8066 3.45166 63.9573 3.47181 64.1068C3.46825 64.057 3.47063 64.0094 3.47774 63.9585C3.45759 64.1091 3.43622 64.2598 3.41489 64.4104C3.43266 64.3223 3.45872 64.2389 3.48952 64.1531C3.8118 63.2759 3.13646 62.2839 2.2727 62.0509C1.35444 61.8053 0.366246 62.3453 0.119796 63.2446Z" fill="url(#paint30_linear_2274_912)"/>
<path fill-rule="evenodd" clip-rule="evenodd" d="M11.6209 36.2442C11.5688 36.2511 11.5178 36.2581 11.4668 36.2604C11.7311 36.3311 11.9929 36.3994 12.2583 36.4701L12.2536 36.4678C12.2524 37.3474 12.2524 38.2282 12.2524 39.1101C12.8507 38.7346 13.2003 38.0358 12.9823 37.3451C12.7453 36.5814 11.8496 36.0483 11.0474 36.3125C10.5201 36.484 10.1031 36.8445 9.95258 37.381C9.795 37.9384 9.98219 38.4472 10.3542 38.8702C10.6907 39.2514 11.1552 39.2874 11.6197 39.3441C12.0107 39.3917 12.4728 39.1506 12.7406 38.8899C13.0332 38.6002 13.2039 38.2038 13.2039 37.7936C13.2039 37.3845 13.0332 36.9882 12.7406 36.6984C12.4728 36.4388 12.0119 36.1978 11.6209 36.2442Z" fill="url(#paint31_linear_2274_912)"/>
<path fill-rule="evenodd" clip-rule="evenodd" d="M22.3593 17.8062C22.3202 17.812 22.2823 17.8178 22.2432 17.8224C21.6413 17.9093 21.2207 18.5873 21.2207 19.1366C21.2207 19.6859 21.6425 20.3638 22.2432 20.4507C22.2811 20.4565 22.3202 20.4612 22.3593 20.4681C22.7527 20.5237 23.088 20.533 23.4459 20.329C23.8748 20.0822 24.1461 19.6233 24.1461 19.1377C24.1461 18.7738 23.9944 18.4192 23.7314 18.1619C23.3427 17.7807 22.8748 17.7308 22.3593 17.8062Z" fill="url(#paint32_linear_2274_912)"/>
<path fill-rule="evenodd" clip-rule="evenodd" d="M46.9963 4.87442C46.8825 4.8779 46.77 4.88138 46.6562 4.88486C45.8825 4.90688 45.2344 5.49906 45.2344 6.27551C45.2344 7.05079 45.8825 7.64298 46.6562 7.66732C46.77 7.66963 46.8825 7.67311 46.9963 7.67659C47.7747 7.69977 48.4276 7.02066 48.4276 6.27551C48.4276 5.52919 47.7747 4.85241 46.9963 4.87442Z" fill="url(#paint33_linear_2274_912)"/>
<path fill-rule="evenodd" clip-rule="evenodd" d="M76.7306 3.1314C76.938 3.12329 77.1382 3.08621 77.3385 3.04101C78.0127 2.88688 78.4866 2.22516 78.4866 1.56692C78.4866 0.907516 78.0138 0.246958 77.3385 0.0916684C77.1382 0.0464722 76.938 0.00938917 76.7306 0.00127704C75.8598 -0.035807 75.1299 0.740638 75.1299 1.56576C75.1299 2.39204 75.8586 3.16733 76.7306 3.1314Z" fill="url(#paint34_linear_2274_912)"/>
<path fill-rule="evenodd" clip-rule="evenodd" d="M102.593 9.72306C102.484 9.69872 102.376 9.67439 102.268 9.64889C99.6736 9.05091 99.6736 13.282 102.268 12.6851C102.377 12.6597 102.485 12.6353 102.593 12.6098C104.058 12.2726 104.058 10.0615 102.593 9.72306Z" fill="url(#paint35_linear_2274_912)"/>
<path fill-rule="evenodd" clip-rule="evenodd" d="M111.816 30.8633C111.486 30.8482 111.164 30.9513 110.891 31.1287C111.252 31.0823 111.607 31.0371 111.965 30.9919C111.94 30.9861 111.92 30.9803 111.895 30.9745C111.286 30.825 110.542 31.0556 110.243 31.6304C110.239 31.642 110.233 31.6536 110.227 31.6629C109.925 32.2458 110.003 32.8484 110.447 33.3363C110.457 33.3444 110.466 33.3549 110.473 33.363C111.226 34.1869 112.627 33.7176 112.916 32.7325C112.813 33.079 112.568 33.3178 112.174 33.4476C112.748 33.2714 113.163 32.7801 113.163 32.1786C113.162 31.4358 112.548 30.8969 111.816 30.8633Z" fill="url(#paint36_linear_2274_912)"/>
<defs>
<linearGradient id="paint0_linear_2274_912" x1="60.5919" y1="0.0256348" x2="60.5919" y2="118.649" gradientUnits="userSpaceOnUse">
<stop stop-color="#FFE998"/>
<stop offset="1" stop-color="#57370D"/>
</linearGradient>
<linearGradient id="paint1_linear_2274_912" x1="63.2012" y1="17.8447" x2="63.2012" y2="37.5141" gradientUnits="userSpaceOnUse">
<stop stop-color="#FFE998"/>
<stop offset="1" stop-color="#57370D"/>
</linearGradient>
<linearGradient id="paint2_linear_2274_912" x1="67.4906" y1="41.3752" x2="67.4906" y2="44.362" gradientUnits="userSpaceOnUse">
<stop stop-color="#FFE998"/>
<stop offset="1" stop-color="#57370D"/>
</linearGradient>
<linearGradient id="paint3_linear_2274_912" x1="82.35" y1="75.418" x2="82.35" y2="92.5361" gradientUnits="userSpaceOnUse">
<stop stop-color="#FFE998"/>
<stop offset="1" stop-color="#57370D"/>
</linearGradient>
<linearGradient id="paint4_linear_2274_912" x1="45.4366" y1="88.8279" x2="45.4366" y2="100.503" gradientUnits="userSpaceOnUse">
<stop stop-color="#FFE998"/>
<stop offset="1" stop-color="#57370D"/>
</linearGradient>
<linearGradient id="paint5_linear_2274_912" x1="95.7257" y1="53.0178" x2="95.7257" y2="66.3716" gradientUnits="userSpaceOnUse">
<stop stop-color="#FFE998"/>
<stop offset="1" stop-color="#57370D"/>
</linearGradient>
<linearGradient id="paint6_linear_2274_912" x1="85.918" y1="96.3383" x2="85.918" y2="99.1671" gradientUnits="userSpaceOnUse">
<stop stop-color="#FFE998"/>
<stop offset="1" stop-color="#57370D"/>
</linearGradient>
<linearGradient id="paint7_linear_2274_912" x1="78.1001" y1="9.67651" x2="78.1001" y2="33.9226" gradientUnits="userSpaceOnUse">
<stop stop-color="#FFE998"/>
<stop offset="1" stop-color="#57370D"/>
</linearGradient>
<linearGradient id="paint8_linear_2274_912" x1="95.7373" y1="35.7958" x2="95.7373" y2="39.5014" gradientUnits="userSpaceOnUse">
<stop stop-color="#FFE998"/>
<stop offset="1" stop-color="#57370D"/>
</linearGradient>
<linearGradient id="paint9_linear_2274_912" x1="91.1924" y1="18.4508" x2="91.1924" y2="33.6815" gradientUnits="userSpaceOnUse">
<stop stop-color="#FFE998"/>
<stop offset="1" stop-color="#57370D"/>
</linearGradient>
<linearGradient id="paint10_linear_2274_912" x1="43.2315" y1="12.3824" x2="43.2315" y2="34.8028" gradientUnits="userSpaceOnUse">
<stop stop-color="#FFE998"/>
<stop offset="1" stop-color="#57370D"/>
</linearGradient>
<linearGradient id="paint11_linear_2274_912" x1="30.0463" y1="36.3979" x2="30.0463" y2="40.9984" gradientUnits="userSpaceOnUse">
<stop stop-color="#FFE998"/>
<stop offset="1" stop-color="#57370D"/>
</linearGradient>
<linearGradient id="paint12_linear_2274_912" x1="31.7864" y1="23.3676" x2="31.7864" y2="32.3035" gradientUnits="userSpaceOnUse">
<stop stop-color="#FFE998"/>
<stop offset="1" stop-color="#57370D"/>
</linearGradient>
<linearGradient id="paint13_linear_2274_912" x1="23.7397" y1="79.1859" x2="23.7397" y2="95.6563" gradientUnits="userSpaceOnUse">
<stop stop-color="#FFE998"/>
<stop offset="1" stop-color="#57370D"/>
</linearGradient>
<linearGradient id="paint14_linear_2274_912" x1="16.088" y1="65.5265" x2="16.088" y2="73.8939" gradientUnits="userSpaceOnUse">
<stop stop-color="#FFE998"/>
<stop offset="1" stop-color="#57370D"/>
</linearGradient>
<linearGradient id="paint15_linear_2274_912" x1="18.7421" y1="75.8875" x2="18.7421" y2="80.701" gradientUnits="userSpaceOnUse">
<stop stop-color="#FFE998"/>
<stop offset="1" stop-color="#57370D"/>
</linearGradient>
<linearGradient id="paint16_linear_2274_912" x1="51.5222" y1="100.644" x2="51.5222" y2="112.575" gradientUnits="userSpaceOnUse">
<stop stop-color="#FFE998"/>
<stop offset="1" stop-color="#57370D"/>
</linearGradient>
<linearGradient id="paint17_linear_2274_912" x1="68.0811" y1="101.228" x2="68.0811" y2="111.563" gradientUnits="userSpaceOnUse">
<stop stop-color="#FFE998"/>
<stop offset="1" stop-color="#57370D"/>
</linearGradient>
<linearGradient id="paint18_linear_2274_912" x1="60.069" y1="106.151" x2="60.069" y2="114.052" gradientUnits="userSpaceOnUse">
<stop stop-color="#FFE998"/>
<stop offset="1" stop-color="#57370D"/>
</linearGradient>
<linearGradient id="paint19_linear_2274_912" x1="101.449" y1="66.4473" x2="101.449" y2="76.0421" gradientUnits="userSpaceOnUse">
<stop stop-color="#FFE998"/>
<stop offset="1" stop-color="#57370D"/>
</linearGradient>
<linearGradient id="paint20_linear_2274_912" x1="97.4292" y1="78.217" x2="97.4292" y2="93.2228" gradientUnits="userSpaceOnUse">
<stop stop-color="#FFE998"/>
<stop offset="1" stop-color="#57370D"/>
</linearGradient>
<linearGradient id="paint21_linear_2274_912" x1="105.348" y1="76.9813" x2="105.348" y2="83.784" gradientUnits="userSpaceOnUse">
<stop stop-color="#FFE998"/>
<stop offset="1" stop-color="#57370D"/>
</linearGradient>
<linearGradient id="paint22_linear_2274_912" x1="118.115" y1="84.7158" x2="118.115" y2="87.9694" gradientUnits="userSpaceOnUse">
<stop stop-color="#FFE998"/>
<stop offset="1" stop-color="#57370D"/>
</linearGradient>
<linearGradient id="paint23_linear_2274_912" x1="115.52" y1="62.547" x2="115.52" y2="66.0786" gradientUnits="userSpaceOnUse">
<stop stop-color="#FFE998"/>
<stop offset="1" stop-color="#57370D"/>
</linearGradient>
<linearGradient id="paint24_linear_2274_912" x1="104.614" y1="97.5234" x2="104.614" y2="100.517" gradientUnits="userSpaceOnUse">
<stop stop-color="#FFE998"/>
<stop offset="1" stop-color="#57370D"/>
</linearGradient>
<linearGradient id="paint25_linear_2274_912" x1="76.2966" y1="115.536" x2="76.2966" y2="118.808" gradientUnits="userSpaceOnUse">
<stop stop-color="#FFE998"/>
<stop offset="1" stop-color="#57370D"/>
</linearGradient>
<linearGradient id="paint26_linear_2274_912" x1="60.6934" y1="120.67" x2="60.6934" y2="124" gradientUnits="userSpaceOnUse">
<stop stop-color="#FFE998"/>
<stop offset="1" stop-color="#57370D"/>
</linearGradient>
<linearGradient id="paint27_linear_2274_912" x1="40.2068" y1="115.72" x2="40.2068" y2="118.984" gradientUnits="userSpaceOnUse">
<stop stop-color="#FFE998"/>
<stop offset="1" stop-color="#57370D"/>
</linearGradient>
<linearGradient id="paint28_linear_2274_912" x1="16.8133" y1="100.473" x2="16.8133" y2="103.599" gradientUnits="userSpaceOnUse">
<stop stop-color="#FFE998"/>
<stop offset="1" stop-color="#57370D"/>
</linearGradient>
<linearGradient id="paint29_linear_2274_912" x1="6.08208" y1="82.5056" x2="6.08208" y2="85.6655" gradientUnits="userSpaceOnUse">
<stop stop-color="#FFE998"/>
<stop offset="1" stop-color="#57370D"/>
</linearGradient>
<linearGradient id="paint30_linear_2274_912" x1="1.78698" y1="61.9916" x2="1.78698" y2="65.914" gradientUnits="userSpaceOnUse">
<stop stop-color="#FFE998"/>
<stop offset="1" stop-color="#57370D"/>
</linearGradient>
<linearGradient id="paint31_linear_2274_912" x1="11.5502" y1="36.2384" x2="11.5502" y2="39.3502" gradientUnits="userSpaceOnUse">
<stop stop-color="#FFE998"/>
<stop offset="1" stop-color="#57370D"/>
</linearGradient>
<linearGradient id="paint32_linear_2274_912" x1="22.6834" y1="17.7764" x2="22.6834" y2="20.5024" gradientUnits="userSpaceOnUse">
<stop stop-color="#FFE998"/>
<stop offset="1" stop-color="#57370D"/>
</linearGradient>
<linearGradient id="paint33_linear_2274_912" x1="46.831" y1="4.8739" x2="46.831" y2="7.67717" gradientUnits="userSpaceOnUse">
<stop stop-color="#FFE998"/>
<stop offset="1" stop-color="#57370D"/>
</linearGradient>
<linearGradient id="paint34_linear_2274_912" x1="76.8082" y1="0" x2="76.8082" y2="3.1326" gradientUnits="userSpaceOnUse">
<stop stop-color="#FFE998"/>
<stop offset="1" stop-color="#57370D"/>
</linearGradient>
<linearGradient id="paint35_linear_2274_912" x1="102.007" y1="9.59082" x2="102.007" y2="12.743" gradientUnits="userSpaceOnUse">
<stop stop-color="#FFE998"/>
<stop offset="1" stop-color="#57370D"/>
</linearGradient>
<linearGradient id="paint36_linear_2274_912" x1="111.604" y1="30.8618" x2="111.604" y2="33.7863" gradientUnits="userSpaceOnUse">
<stop stop-color="#FFE998"/>
<stop offset="1" stop-color="#57370D"/>
</linearGradient>
</defs>
</svg>
