<svg width="120" height="148" viewBox="0 0 120 148" fill="none" xmlns="http://www.w3.org/2000/svg">
<ellipse cx="60" cy="142" rx="50" ry="6" fill="#131313"/>
<g clip-path="url(#clip0_2275_2844)">
<path d="M60 0C44.087 0 28.8258 6.32141 17.5736 17.5736C6.32141 28.8258 0 44.087 0 60C0 75.913 6.32141 91.1742 17.5736 102.426C28.8258 113.679 44.087 120 60 120C75.913 120 91.1742 113.679 102.426 102.426C113.679 91.1742 120 75.913 120 60C120 44.087 113.679 28.8258 102.426 17.5736C91.1742 6.32141 75.913 0 60 0ZM35.67 34.245C41.3925 23.565 65.82 33.345 42.81 60C9.09 48.03 25.185 27.765 35.67 34.245ZM84.8625 75.105C85.5744 74.9374 86.3199 74.9816 87.007 75.2323C87.6941 75.4829 88.2929 75.929 88.7297 76.5157C89.1665 77.1023 89.4222 77.8039 89.4654 78.534C89.5085 79.2642 89.3372 79.991 88.9725 80.625C86.0109 85.7576 81.7496 90.0196 76.6174 92.982C71.4853 95.9444 65.6633 97.5027 59.7375 97.5C53.8117 97.5027 47.9897 95.9444 42.8576 92.982C37.7254 90.0196 33.4641 85.7576 30.5025 80.625C30.1378 79.991 29.9665 79.2642 30.0096 78.534C30.0527 77.8039 30.3085 77.1023 30.7453 76.5157C31.1821 75.929 31.7809 75.4829 32.468 75.2323C33.1551 74.9816 33.9006 74.9374 34.6125 75.105H34.65L34.7775 75.1425L35.28 75.255L37.17 75.6675C38.7825 76.0125 41.0325 76.4775 43.5975 76.935C48.795 77.865 55.0125 78.75 59.7375 78.75C64.4625 78.75 70.6875 77.865 75.8775 76.935C78.6616 76.4341 81.4347 75.874 84.195 75.255L84.6975 75.1425L84.825 75.1125L84.8625 75.0975V75.105ZM84.3375 34.245C94.815 27.765 110.91 48.03 77.19 60C54.1875 33.345 78.6225 23.565 84.3375 34.245Z" fill="url(#paint0_linear_2275_2844)"/>
</g>
<defs>
<linearGradient id="paint0_linear_2275_2844" x1="60" y1="0" x2="60" y2="120" gradientUnits="userSpaceOnUse">
<stop stop-color="#FFE998"/>
<stop offset="1" stop-color="#57370D"/>
</linearGradient>
<clipPath id="clip0_2275_2844">
<rect width="120" height="120" fill="white"/>
</clipPath>
</defs>
</svg>
