<svg width="20" height="20" viewBox="0 0 20 20" fill="none" xmlns="http://www.w3.org/2000/svg">
<path d="M4.43423 18.988L0.29607 10.9268C0.00157047 10.3534 0.00157047 9.64674 0.29607 9.07312L4.43423 1.01193C4.72873 0.438304 5.27276 0.085083 5.86158 0.085083H14.1379C14.7267 0.085083 15.2707 0.438304 15.5652 1.01193L19.7034 9.07312C19.9979 9.64654 19.9979 10.3532 19.7034 10.9268L15.5652 18.988C15.2709 19.5616 14.7267 19.9148 14.1379 19.9148H5.86158C5.27276 19.9148 4.72873 19.5614 4.43423 18.988Z" fill="url(#paint0_linear_2277_4817)"/>
<path d="M4.43449 18.988L4.50012 18.9455L0.361954 10.8843C0.22156 10.6106 0.151363 10.3055 0.151363 10C0.151363 9.69468 0.22156 9.38937 0.361954 9.11571L4.50012 1.05452C4.78091 0.507422 5.30007 0.170238 5.86184 0.170238H14.1382C14.6999 0.170238 15.2191 0.507216 15.4999 1.05452L19.638 9.11571C19.7784 9.38937 19.8486 9.69468 19.8486 10C19.8486 10.3053 19.7784 10.6106 19.638 10.8843L15.4999 18.9455C15.2191 19.4926 14.6999 19.8298 14.1382 19.8298H5.86184C5.30007 19.8298 4.78091 19.4928 4.50012 18.9455L4.43449 18.988L4.36886 19.0306C4.67689 19.6305 5.24596 20 5.86184 20H14.1382C14.754 20 15.3231 19.6305 15.631 19.0306L19.7691 10.9694C19.923 10.6694 20 10.3347 20 10C20 9.66528 19.923 9.33057 19.7691 9.03059L15.631 0.969406C15.3229 0.369463 14.7539 0 14.1382 0H5.86184C5.24596 0 4.67689 0.369463 4.36886 0.969406L0.230883 9.03059C0.0769611 9.33057 0 9.66528 0 10C0 10.3347 0.0769611 10.6694 0.230883 10.9694L4.36886 19.0306L4.43449 18.988Z" fill="url(#paint1_linear_2277_4817)"/>
<path d="M16.6705 4.67944L2.85059 14.3867L4.85998 18.3011C5.13181 18.8307 5.63435 19.157 6.17819 19.157H13.822C14.3659 19.157 14.8684 18.8307 15.1402 18.3011L18.9621 10.8559C19.234 10.3263 19.234 9.67369 18.9621 9.14385L16.6705 4.67944Z" fill="url(#paint2_radial_2277_4817)"/>
<path d="M15.14 1.69869C14.8682 1.16906 14.3656 0.842773 13.8218 0.842773H6.17798C5.63413 0.842773 5.1316 1.16906 4.85977 1.69869L1.03786 9.1439C0.766026 9.67352 0.766026 10.3261 1.03786 10.8559L2.85037 14.3867L16.6703 4.67948L15.14 1.69869Z" fill="url(#paint3_radial_2277_4817)"/>
<path d="M5.11976 17.8807L1.49144 10.8126C1.23332 10.3097 1.23332 9.69021 1.49144 9.18731L5.11976 2.11918C5.37788 1.61628 5.855 1.30664 6.37125 1.30664H13.6279C14.1441 1.30664 14.6213 1.61648 14.8794 2.11918L18.5077 9.18731C18.7658 9.69021 18.7658 10.3097 18.5077 10.8126L14.8794 17.8807C14.6213 18.3836 14.1441 18.6933 13.6279 18.6933H6.37125C5.855 18.6933 5.37788 18.3836 5.11976 17.8807Z" fill="url(#paint4_linear_2277_4817)"/>
<path d="M5.12025 17.8807L5.18588 17.8382L1.55756 10.77C1.43526 10.5317 1.37402 10.2659 1.37402 10C1.37402 9.734 1.43508 9.46816 1.55756 9.23007L5.18588 2.16194C5.43047 1.68535 5.88255 1.39196 6.37173 1.39196H13.6284C14.1176 1.39196 14.5696 1.68556 14.8142 2.16194L18.4426 9.23007C18.5648 9.46836 18.6259 9.7342 18.6259 10C18.6259 10.2659 18.5647 10.5317 18.4426 10.77L14.8142 17.8382C14.5696 18.3147 14.1176 18.6081 13.6284 18.6081H6.37173C5.88255 18.6081 5.43047 18.3145 5.18588 17.8382L5.12025 17.8807L5.05462 17.9233C5.32627 18.4525 5.82825 18.7786 6.37173 18.7786H13.6284C14.1717 18.7786 14.6737 18.4527 14.9455 17.9233L18.5738 10.8551C18.7096 10.5905 18.7776 10.2953 18.7776 10C18.7776 9.7048 18.7096 9.40935 18.5738 9.14475L14.9455 2.07661C14.6738 1.5474 14.1719 1.22131 13.6284 1.22131H6.37173C5.82844 1.22131 5.32645 1.5474 5.05462 2.07661L1.4263 9.14475C1.29048 9.40935 1.22247 9.7046 1.22266 10C1.22266 10.2953 1.29048 10.5907 1.4263 10.8551L5.05462 17.9233L5.12025 17.8807Z" fill="url(#paint5_linear_2277_4817)"/>
<path d="M17.1579 8.60292C17.1575 8.1839 17.0296 7.77661 16.7928 7.45011C16.5574 7.12362 16.2046 6.88122 15.7861 6.81399L12.7801 6.32281L11.4357 3.25915C11.2924 2.93122 11.0732 2.67443 10.8206 2.50666C10.5678 2.33827 10.2835 2.25562 10.0003 2.25562C9.71718 2.25562 9.43292 2.33827 9.1801 2.50666C8.92746 2.67443 8.70828 2.93102 8.56496 3.25915L7.22061 6.32281L4.21456 6.81399C3.79612 6.88122 3.4433 7.12362 3.20785 7.45011C2.9713 7.77661 2.84315 8.1839 2.84279 8.60292C2.84114 9.05483 2.99927 9.52689 3.3274 9.88484L5.5026 12.2696L4.9891 15.6367C4.97302 15.7422 4.96516 15.847 4.96516 15.9503C4.96461 16.4581 5.15674 16.9131 5.44941 17.2307C5.7419 17.5494 6.13877 17.7437 6.56653 17.7443C6.8146 17.7447 7.07162 17.6769 7.31164 17.5346L10.0003 15.9447L12.689 17.5346C12.9291 17.6769 13.1859 17.7445 13.4342 17.7443C13.8619 17.7437 14.2588 17.5494 14.5513 17.2307C14.844 16.9131 15.0361 16.4581 15.0355 15.9503C15.0355 15.847 15.0277 15.7422 15.0116 15.6367L14.4981 12.2694L16.6733 9.88463C17.0016 9.52688 17.1596 9.05483 17.1579 8.60292Z" fill="url(#paint6_linear_2277_4817)"/>
<path d="M17.1578 8.60304L17.2305 8.60283C17.2302 8.16511 17.0963 7.73952 16.8492 7.39843L16.8479 7.39678L16.8492 7.39863C16.6026 7.05672 16.2333 6.80342 15.7962 6.7331L12.8282 6.24809L11.5009 3.22309C11.3511 2.88056 11.1221 2.61204 10.8574 2.43626C10.5931 2.26006 10.2958 2.17371 10 2.17371C9.70425 2.17371 9.40701 2.26006 9.14267 2.43626C8.87815 2.61204 8.6491 2.88035 8.49938 3.22309L7.17185 6.24789L4.20364 6.7329C3.76655 6.80321 3.39747 7.05631 3.15068 7.39843L3.15086 7.39822C2.90353 7.73931 2.7699 8.16491 2.76953 8.60263V8.60242V8.60941C2.76953 9.08065 2.93497 9.57121 3.27627 9.94335L3.27608 9.94314L5.42386 12.2979L4.91695 15.6227L4.98879 15.6364H5.06154L4.91695 15.6227L4.91676 15.6241L5.06027 15.6512L4.91695 15.6224C4.90013 15.7324 4.8919 15.842 4.8919 15.9498L4.89282 15.9623L4.96484 15.9498L4.89208 15.9483V15.9514C4.89208 16.4821 5.09299 16.9572 5.39864 17.289C5.70392 17.6217 6.11871 17.825 6.56622 17.8255H6.56804C6.82744 17.8255 7.09544 17.7545 7.34533 17.6063L10.0002 16.0365L12.6551 17.6063C12.905 17.7543 13.173 17.8255 13.4324 17.8255H13.4333H13.4337H13.4342C13.8817 17.8248 14.2965 17.6215 14.602 17.2888C14.9076 16.9572 15.1083 16.4821 15.1083 15.9514V15.9502L15.0506 15.9504L15.1082 15.9537L15.1083 15.9502L15.0504 15.9504L15.108 15.9537V15.9516V15.9496C15.108 15.8418 15.0997 15.732 15.0829 15.6222L14.5758 12.2973L16.7236 9.94253L16.7234 9.94273C17.0647 9.57039 17.2302 9.07983 17.2302 8.6088V8.60283V8.60201L17.1578 8.60304L17.085 8.60222V8.60962C17.085 9.03809 16.9344 9.48589 16.6225 9.82616L14.4197 12.2411L14.9396 15.6508C14.955 15.7518 14.9625 15.8519 14.9625 15.9504V15.9506H15.0352L14.9625 15.9465L14.9623 15.9518V15.9524C14.9623 16.436 14.7791 16.8694 14.5001 17.1723C14.2205 17.477 13.8415 17.6624 13.4335 17.6628V17.7447L13.4344 17.6628H13.4318C13.196 17.6628 12.9512 17.5983 12.7224 17.4626L9.99966 15.8527L7.27696 17.4626C7.04791 17.5983 6.80331 17.6628 6.56749 17.6628H6.56622C6.15838 17.6622 5.77942 17.477 5.49973 17.1723C5.22059 16.8694 5.03741 16.436 5.0376 15.9524V15.952L5.03778 15.945L5.03686 15.938L4.96594 15.9504H5.0376L5.03686 15.938L4.96575 15.9504H5.0376C5.0376 15.8519 5.04491 15.7518 5.06045 15.6508L4.91713 15.6222L4.98879 15.637L5.06063 15.6502L4.98879 15.6364L4.91603 15.6366L5.06063 15.6502L5.58053 12.2409L3.37772 9.82636L3.37754 9.82616C3.06549 9.4861 2.91504 9.0383 2.91504 8.60962V8.60324C2.91541 8.20294 3.03771 7.81374 3.26365 7.50184L3.26384 7.50164C3.48814 7.19077 3.82468 6.95926 4.22448 6.89511L7.26874 6.39756L8.63009 3.29525C8.76719 2.98171 8.97632 2.73684 9.21689 2.57709C9.45801 2.41631 9.72948 2.33736 10.0002 2.33736C10.2708 2.33736 10.5422 2.41631 10.7834 2.57709C11.0239 2.73684 11.2332 2.98171 11.3703 3.29525L12.7317 6.39756L15.7758 6.89511C16.1756 6.95926 16.5123 7.19077 16.7364 7.50164L16.7366 7.50184C16.9625 7.81374 17.0848 8.20274 17.0852 8.60304H17.1578Z" fill="url(#paint7_linear_2277_4817)"/>
<mask id="mask0_2277_4817" style="mask-type:luminance" maskUnits="userSpaceOnUse" x="3" y="2" width="14" height="16">
<path d="M11.0449 3.47653L12.4909 6.7719L15.7243 7.30029C16.679 7.45635 17.0603 8.77589 16.3695 9.53312L14.0297 12.0982L14.582 15.72C14.7451 16.7894 13.7471 17.605 12.8932 17.1L10.0013 15.3901L7.10928 17.1C6.2554 17.605 5.25746 16.7894 5.42052 15.72L5.97278 12.0982L3.63305 9.53312C2.94223 8.77568 3.32338 7.45635 4.27817 7.30029L7.51164 6.7719L8.95762 3.47653C9.38429 2.50343 10.6179 2.50343 11.0449 3.47653Z" fill="white"/>
</mask>
<g mask="url(#mask0_2277_4817)">
<path d="M11.0449 3.47653L12.4909 6.7719L15.7243 7.30029C16.679 7.45635 17.0603 8.77589 16.3695 9.53312L14.0297 12.0982L14.582 15.72C14.7451 16.7894 13.7471 17.605 12.8932 17.1L10.0013 15.3901L7.10928 17.1C6.2554 17.605 5.25746 16.7894 5.42052 15.72L5.97278 12.0982L3.63305 9.53312C2.94223 8.77568 3.32338 7.45635 4.27817 7.30029L7.51164 6.7719L8.95762 3.47653C9.38429 2.50343 10.6179 2.50343 11.0449 3.47653Z" fill="url(#paint8_linear_2277_4817)"/>
</g>
<mask id="mask1_2277_4817" style="mask-type:luminance" maskUnits="userSpaceOnUse" x="3" y="2" width="14" height="16">
<path d="M11.0449 3.47653L12.4909 6.7719L15.7243 7.30029C16.679 7.45635 17.0603 8.77589 16.3695 9.53312L14.0297 12.0982L14.582 15.72C14.7451 16.7894 13.7471 17.605 12.8932 17.1L10.0013 15.3901L7.10928 17.1C6.2554 17.605 5.25746 16.7894 5.42052 15.72L5.97278 12.0982L3.63305 9.53312C2.94223 8.77568 3.32338 7.45635 4.27817 7.30029L7.51164 6.7719L8.95762 3.47653C9.38429 2.50343 10.6179 2.50343 11.0449 3.47653Z" fill="white"/>
</mask>
<g mask="url(#mask1_2277_4817)">
<path d="M10.8863 3.53922L12.372 6.92505L15.6941 7.46804C16.5043 7.60044 16.8279 8.72035 16.2416 9.36306L13.8377 11.9984L14.4052 15.7198C14.5436 16.6273 13.6966 17.3196 12.9718 16.8911L10.0005 15.1341L7.02916 16.8909C6.30433 17.3194 5.45739 16.6273 5.59578 15.7196L6.16321 11.9982L3.75932 9.36285C3.17306 8.72014 3.49663 7.60024 4.30682 7.46783L7.62894 6.92484L9.1146 3.53901C9.4771 2.71352 10.524 2.71353 10.8863 3.53922Z" fill="url(#paint9_linear_2277_4817)"/>
</g>
<mask id="mask2_2277_4817" style="mask-type:luminance" maskUnits="userSpaceOnUse" x="3" y="2" width="14" height="16">
<path d="M11.0449 3.47653L12.4909 6.7719L15.7243 7.30029C16.679 7.45635 17.0603 8.77589 16.3695 9.53312L14.0297 12.0982L14.582 15.72C14.7451 16.7894 13.7471 17.605 12.8932 17.1L10.0013 15.3901L7.10928 17.1C6.2554 17.605 5.25746 16.7894 5.42052 15.72L5.97278 12.0982L3.63305 9.53312C2.94223 8.77568 3.32338 7.45635 4.27817 7.30029L7.51164 6.7719L8.95762 3.47653C9.38429 2.50343 10.6179 2.50343 11.0449 3.47653Z" fill="white"/>
</mask>
<g mask="url(#mask2_2277_4817)">
<path opacity="0.6" d="M10.7734 3.60078L12.2825 7.03986L14.9191 7.47079C15.928 7.63569 16.3309 9.03007 15.6008 9.83047L13.6928 11.922L14.0465 14.242C14.2584 15.6313 12.962 16.6907 11.8525 16.0349L10.2614 15.0941C10.0978 14.9974 9.90235 14.9974 9.73892 15.0941L8.14779 16.0349C7.03852 16.6907 5.74189 15.6313 5.95376 14.242L6.30749 11.922L3.86576 9.24513C3.35408 8.68425 3.63652 7.70682 4.34361 7.59128L7.71801 7.03986L9.22707 3.60078C9.54351 2.88015 10.4572 2.88015 10.7734 3.60078Z" fill="url(#paint10_linear_2277_4817)"/>
</g>
<mask id="mask3_2277_4817" style="mask-type:luminance" maskUnits="userSpaceOnUse" x="3" y="2" width="14" height="16">
<path d="M11.0449 3.47653L12.4909 6.7719L15.7243 7.30029C16.679 7.45635 17.0603 8.77589 16.3695 9.53312L14.0297 12.0982L14.582 15.72C14.7451 16.7894 13.7471 17.605 12.8932 17.1L10.0013 15.3901L7.10928 17.1C6.2554 17.605 5.25746 16.7894 5.42052 15.72L5.97278 12.0982L3.63305 9.53312C2.94223 8.77568 3.32338 7.45635 4.27817 7.30029L7.51164 6.7719L8.95762 3.47653C9.38429 2.50343 10.6179 2.50343 11.0449 3.47653Z" fill="white"/>
</mask>
<g mask="url(#mask3_2277_4817)">
<path d="M10.5895 3.74768L12.1261 7.24968L14.1079 7.5735C15.2417 7.75875 15.6945 9.32583 14.8741 10.2253L13.44 11.7976L13.7696 13.9586C13.967 15.2527 12.7592 16.2396 11.7258 15.6287L10.2436 14.7522C10.0912 14.6622 9.90926 14.6622 9.7568 14.7522L8.27462 15.6287C7.24122 16.2398 6.03342 15.2529 6.23085 13.9586L6.56045 11.7976L4.07411 9.07171C3.68419 8.64427 3.89935 7.89938 4.43826 7.81138L7.87445 7.24968L9.41112 3.74768C9.65224 3.19853 10.3485 3.19853 10.5895 3.74768Z" fill="url(#paint11_linear_2277_4817)"/>
</g>
<mask id="mask4_2277_4817" style="mask-type:luminance" maskUnits="userSpaceOnUse" x="3" y="2" width="14" height="16">
<path d="M11.0449 3.47653L12.4909 6.7719L15.7243 7.30029C16.679 7.45635 17.0603 8.77589 16.3695 9.53312L14.0297 12.0982L14.582 15.72C14.7451 16.7894 13.7471 17.605 12.8932 17.1L10.0013 15.3901L7.10928 17.1C6.2554 17.605 5.25746 16.7894 5.42052 15.72L5.97278 12.0982L3.63305 9.53312C2.94223 8.77568 3.32338 7.45635 4.27817 7.30029L7.51164 6.7719L8.95762 3.47653C9.38429 2.50343 10.6179 2.50343 11.0449 3.47653Z" fill="white"/>
</mask>
<g mask="url(#mask4_2277_4817)">
<path d="M12.5225 11.0312C12.7408 11.4837 13.7676 11.3324 14.816 10.6932C15.8644 10.054 16.5375 9.16865 16.3194 8.71612C16.1013 8.2636 15.0743 8.41492 14.0259 9.05413C12.9774 9.69334 12.3043 10.5785 12.5225 11.0312Z" fill="url(#paint12_linear_2277_4817)"/>
</g>
<mask id="mask5_2277_4817" style="mask-type:luminance" maskUnits="userSpaceOnUse" x="3" y="2" width="14" height="16">
<path d="M11.0449 3.47653L12.4909 6.7719L15.7243 7.30029C16.679 7.45635 17.0603 8.77589 16.3695 9.53312L14.0297 12.0982L14.582 15.72C14.7451 16.7894 13.7471 17.605 12.8932 17.1L10.0013 15.3901L7.10928 17.1C6.2554 17.605 5.25746 16.7894 5.42052 15.72L5.97278 12.0982L3.63305 9.53312C2.94223 8.77568 3.32338 7.45635 4.27817 7.30029L7.51164 6.7719L8.95762 3.47653C9.38429 2.50343 10.6179 2.50343 11.0449 3.47653Z" fill="white"/>
</mask>
<g mask="url(#mask5_2277_4817)">
<path d="M14.4053 15.7199L14.2387 14.6275C14.0541 13.4163 12.8032 12.8441 11.9193 13.5664C11.0354 14.2887 11.1327 15.8036 12.0997 16.3753L12.9721 16.891C13.6967 17.3195 14.5437 16.6274 14.4053 15.7199Z" fill="url(#paint13_linear_2277_4817)"/>
</g>
<mask id="mask6_2277_4817" style="mask-type:luminance" maskUnits="userSpaceOnUse" x="3" y="2" width="14" height="16">
<path d="M11.0449 3.47653L12.4909 6.7719L15.7243 7.30029C16.679 7.45635 17.0603 8.77589 16.3695 9.53312L14.0297 12.0982L14.582 15.72C14.7451 16.7894 13.7471 17.605 12.8932 17.1L10.0013 15.3901L7.10928 17.1C6.2554 17.605 5.25746 16.7894 5.42052 15.72L5.97278 12.0982L3.63305 9.53312C2.94223 8.77568 3.32338 7.45635 4.27817 7.30029L7.51164 6.7719L8.95762 3.47653C9.38429 2.50343 10.6179 2.50343 11.0449 3.47653Z" fill="white"/>
</mask>
<g mask="url(#mask6_2277_4817)">
<path d="M6.13717 8.35766C7.06838 9.02977 7.59156 9.98088 7.30566 10.4819C7.01975 10.983 6.03315 10.8444 5.10194 10.1723C4.17073 9.50018 3.64772 8.54908 3.93363 8.04803C4.21954 7.54698 5.20596 7.68555 6.13717 8.35766Z" fill="url(#paint14_linear_2277_4817)"/>
</g>
<mask id="mask7_2277_4817" style="mask-type:luminance" maskUnits="userSpaceOnUse" x="3" y="2" width="14" height="16">
<path d="M11.0449 3.47653L12.4909 6.7719L15.7243 7.30029C16.679 7.45635 17.0603 8.77589 16.3695 9.53312L14.0297 12.0982L14.582 15.72C14.7451 16.7894 13.7471 17.605 12.8932 17.1L10.0013 15.3901L7.10928 17.1C6.2554 17.605 5.25746 16.7894 5.42052 15.72L5.97278 12.0982L3.63305 9.53312C2.94223 8.77568 3.32338 7.45635 4.27817 7.30029L7.51164 6.7719L8.95762 3.47653C9.38429 2.50343 10.6179 2.50343 11.0449 3.47653Z" fill="white"/>
</mask>
<g mask="url(#mask7_2277_4817)">
<path opacity="0.36" d="M11.3712 17.9088C15.5553 9.75262 13.0684 -0.674208 5.81631 -5.37999C5.48982 -5.59176 5.15803 -5.78318 4.82404 -5.96472C10.3506 -1.68679 12.114 6.71857 8.70335 13.3673C6.32268 18.0081 2.02072 20.624 -2.4209 20.6793L1.60594 26.0117C5.5772 24.9934 9.17499 22.1898 11.3712 17.9088Z" fill="url(#paint15_linear_2277_4817)"/>
</g>
<mask id="mask8_2277_4817" style="mask-type:luminance" maskUnits="userSpaceOnUse" x="3" y="2" width="14" height="16">
<path d="M11.0449 3.47653L12.4909 6.7719L15.7243 7.30029C16.679 7.45635 17.0603 8.77589 16.3695 9.53312L14.0297 12.0982L14.582 15.72C14.7451 16.7894 13.7471 17.605 12.8932 17.1L10.0013 15.3901L7.10928 17.1C6.2554 17.605 5.25746 16.7894 5.42052 15.72L5.97278 12.0982L3.63305 9.53312C2.94223 8.77568 3.32338 7.45635 4.27817 7.30029L7.51164 6.7719L8.95762 3.47653C9.38429 2.50343 10.6179 2.50343 11.0449 3.47653Z" fill="white"/>
</mask>
<g mask="url(#mask8_2277_4817)">
<path opacity="0.6" d="M14.4983 23.2267C20.4424 11.6395 16.9093 -3.17344 6.60676 -9.85874C6.14298 -10.1597 5.67153 -10.4315 5.19697 -10.6896C13.0483 -4.61202 15.5536 7.32905 10.7082 16.7745C7.32592 23.3675 1.21437 27.0838 -5.0957 27.1623L0.625007 34.7379C6.26711 33.2915 11.3783 29.3086 14.4983 23.2267Z" fill="url(#paint16_linear_2277_4817)"/>
</g>
<mask id="mask9_2277_4817" style="mask-type:luminance" maskUnits="userSpaceOnUse" x="3" y="2" width="14" height="16">
<path d="M11.0449 3.47653L12.4909 6.7719L15.7243 7.30029C16.679 7.45635 17.0603 8.77589 16.3695 9.53312L14.0297 12.0982L14.582 15.72C14.7451 16.7894 13.7471 17.605 12.8932 17.1L10.0013 15.3901L7.10928 17.1C6.2554 17.605 5.25746 16.7894 5.42052 15.72L5.97278 12.0982L3.63305 9.53312C2.94223 8.77568 3.32338 7.45635 4.27817 7.30029L7.51164 6.7719L8.95762 3.47653C9.38429 2.50343 10.6179 2.50343 11.0449 3.47653Z" fill="white"/>
</mask>
<g mask="url(#mask9_2277_4817)">
<path opacity="0.4" d="M9.92957 10.4891C13.377 10.4891 16.1716 8.71385 16.1716 6.52393C16.1716 4.334 13.377 2.55872 9.92957 2.55872C6.48217 2.55872 3.6875 4.334 3.6875 6.52393C3.6875 8.71385 6.48217 10.4891 9.92957 10.4891Z" fill="url(#paint17_linear_2277_4817)"/>
</g>
<mask id="mask10_2277_4817" style="mask-type:luminance" maskUnits="userSpaceOnUse" x="3" y="2" width="14" height="16">
<path d="M11.0449 3.47653L12.4909 6.7719L15.7243 7.30029C16.679 7.45635 17.0603 8.77589 16.3695 9.53312L14.0297 12.0982L14.582 15.72C14.7451 16.7894 13.7471 17.605 12.8932 17.1L10.0013 15.3901L7.10928 17.1C6.2554 17.605 5.25746 16.7894 5.42052 15.72L5.97278 12.0982L3.63305 9.53312C2.94223 8.77568 3.32338 7.45635 4.27817 7.30029L7.51164 6.7719L8.95762 3.47653C9.38429 2.50343 10.6179 2.50343 11.0449 3.47653Z" fill="white"/>
</mask>
<g mask="url(#mask10_2277_4817)">
<path d="M11.2133 4.39156C11.3956 4.91954 11.4248 5.39921 11.2786 5.46315C11.1324 5.52709 10.866 5.15084 10.6837 4.62286C10.5015 4.09488 10.4722 3.61521 10.6185 3.55127C10.7647 3.48733 11.0311 3.86358 11.2133 4.39156Z" fill="#F2F2F2"/>
<path d="M11.6886 6.14719C11.7741 6.39501 11.776 6.62534 11.6926 6.66174C11.6092 6.69815 11.4723 6.52684 11.3867 6.27902C11.3011 6.03121 11.2993 5.80087 11.3827 5.76447C11.466 5.72827 11.603 5.89958 11.6886 6.14719Z" fill="#F2F2F2"/>
</g>
<mask id="mask11_2277_4817" style="mask-type:luminance" maskUnits="userSpaceOnUse" x="3" y="2" width="14" height="16">
<path d="M11.0449 3.47653L12.4909 6.7719L15.7243 7.30029C16.679 7.45635 17.0603 8.77589 16.3695 9.53312L14.0297 12.0982L14.582 15.72C14.7451 16.7894 13.7471 17.605 12.8932 17.1L10.0013 15.3901L7.10928 17.1C6.2554 17.605 5.25746 16.7894 5.42052 15.72L5.97278 12.0982L3.63305 9.53312C2.94223 8.77568 3.32338 7.45635 4.27817 7.30029L7.51164 6.7719L8.95762 3.47653C9.38429 2.50343 10.6179 2.50343 11.0449 3.47653Z" fill="white"/>
</mask>
<g mask="url(#mask11_2277_4817)">
<path d="M7.88869 16.0728C7.58213 16.2881 7.28233 16.3701 7.2189 16.256C7.15546 16.1419 7.35271 15.8748 7.65909 15.6596C7.96566 15.4443 8.75007 15.0218 8.81351 15.1359C8.87694 15.25 8.19508 15.8576 7.88869 16.0728Z" fill="url(#paint18_linear_2277_4817)"/>
</g>
<mask id="mask12_2277_4817" style="mask-type:luminance" maskUnits="userSpaceOnUse" x="3" y="2" width="14" height="16">
<path d="M11.0449 3.47653L12.4909 6.7719L15.7243 7.30029C16.679 7.45635 17.0603 8.77589 16.3695 9.53312L14.0297 12.0982L14.582 15.72C14.7451 16.7894 13.7471 17.605 12.8932 17.1L10.0013 15.3901L7.10928 17.1C6.2554 17.605 5.25746 16.7894 5.42052 15.72L5.97278 12.0982L3.63305 9.53312C2.94223 8.77568 3.32338 7.45635 4.27817 7.30029L7.51164 6.7719L8.95762 3.47653C9.38429 2.50343 10.6179 2.50343 11.0449 3.47653Z" fill="white"/>
</mask>
<g mask="url(#mask12_2277_4817)">
<path d="M12.7137 15.8695C12.9294 15.9785 13.0785 16.1319 13.0463 16.2124C13.0143 16.2928 12.8133 16.2695 12.5974 16.1605C12.3814 16.0515 11.8914 15.7258 11.9234 15.6454C11.9556 15.5649 12.4979 15.7605 12.7137 15.8695Z" fill="url(#paint19_linear_2277_4817)"/>
</g>
<mask id="mask13_2277_4817" style="mask-type:luminance" maskUnits="userSpaceOnUse" x="3" y="2" width="14" height="16">
<path d="M11.0449 3.47653L12.4909 6.7719L15.7243 7.30029C16.679 7.45635 17.0603 8.77589 16.3695 9.53312L14.0297 12.0982L14.582 15.72C14.7451 16.7894 13.7471 17.605 12.8932 17.1L10.0013 15.3901L7.10928 17.1C6.2554 17.605 5.25746 16.7894 5.42052 15.72L5.97278 12.0982L3.63305 9.53312C2.94223 8.77568 3.32338 7.45635 4.27817 7.30029L7.51164 6.7719L8.95762 3.47653C9.38429 2.50343 10.6179 2.50343 11.0449 3.47653Z" fill="white"/>
</mask>
<g mask="url(#mask13_2277_4817)">
<path d="M4.65352 8.81057C5.02114 9.15187 5.22442 9.55772 5.10743 9.71706C4.99043 9.87641 4.59776 9.72899 4.23014 9.38769C3.86252 9.0464 3.65924 8.64054 3.77624 8.4812C3.89305 8.32186 4.2859 8.46928 4.65352 8.81057Z" fill="#F2F2F2"/>
</g>
<defs>
<linearGradient id="paint0_linear_2277_4817" x1="1.84407" y1="0.827239" x2="18.8669" y2="15.9628" gradientUnits="userSpaceOnUse">
<stop stop-color="#EBB838"/>
<stop offset="0.0682" stop-color="#F3D15D"/>
<stop offset="0.1359" stop-color="#FAE67A"/>
<stop offset="0.1942" stop-color="#FEF28C"/>
<stop offset="0.2366" stop-color="#FFF692"/>
<stop offset="0.3724" stop-color="#EDC96B"/>
<stop offset="0.5098" stop-color="#DDA34A"/>
<stop offset="0.6199" stop-color="#D48B36"/>
<stop offset="0.6882" stop-color="#D0822E"/>
<stop offset="1" stop-color="#EBB533"/>
</linearGradient>
<linearGradient id="paint1_linear_2277_4817" x1="1.31653" y1="0.233665" x2="16.9498" y2="14.1336" gradientUnits="userSpaceOnUse">
<stop stop-color="#EBB533"/>
<stop offset="0.3118" stop-color="#D0822E"/>
<stop offset="0.3801" stop-color="#D48B36"/>
<stop offset="0.4902" stop-color="#DDA34A"/>
<stop offset="0.6276" stop-color="#EDC96B"/>
<stop offset="0.7634" stop-color="#FFF692"/>
<stop offset="0.8058" stop-color="#FEF28C"/>
<stop offset="0.8641" stop-color="#FAE67A"/>
<stop offset="0.9318" stop-color="#F3D15D"/>
<stop offset="1" stop-color="#EBB838"/>
</linearGradient>
<radialGradient id="paint2_radial_2277_4817" cx="0" cy="0" r="1" gradientUnits="userSpaceOnUse" gradientTransform="translate(14.7708 18.7125) scale(8.65199 9.73087)">
<stop stop-color="white" stop-opacity="0.5"/>
<stop offset="0.7419" stop-color="white" stop-opacity="0"/>
</radialGradient>
<radialGradient id="paint3_radial_2277_4817" cx="0" cy="0" r="1" gradientUnits="userSpaceOnUse" gradientTransform="translate(4.47562 1.34779) scale(6.91448 7.7767)">
<stop stop-color="white" stop-opacity="0.5"/>
<stop offset="0.7419" stop-color="white" stop-opacity="0"/>
</radialGradient>
<linearGradient id="paint4_linear_2277_4817" x1="1.25263" y1="0.162309" x2="15.4572" y2="12.7921" gradientUnits="userSpaceOnUse">
<stop stop-color="#D69239"/>
<stop offset="0.4462" stop-color="#FFF692"/>
<stop offset="0.5318" stop-color="#FDF08D"/>
<stop offset="0.6448" stop-color="#F6E07F"/>
<stop offset="0.7733" stop-color="#EBC467"/>
<stop offset="0.912" stop-color="#DC9E46"/>
<stop offset="1" stop-color="#D0822E"/>
</linearGradient>
<linearGradient id="paint5_linear_2277_4817" x1="2.37217" y1="1.42093" x2="17.4766" y2="14.8508" gradientUnits="userSpaceOnUse">
<stop stop-color="#EBB533"/>
<stop offset="0.3118" stop-color="#D0822E"/>
<stop offset="0.3801" stop-color="#D48B36"/>
<stop offset="0.4902" stop-color="#DDA34A"/>
<stop offset="0.6276" stop-color="#EDC96B"/>
<stop offset="0.7634" stop-color="#FFF692"/>
<stop offset="0.8058" stop-color="#FEF28C"/>
<stop offset="0.8641" stop-color="#FAE67A"/>
<stop offset="0.9318" stop-color="#F3D15D"/>
<stop offset="1" stop-color="#EBB838"/>
</linearGradient>
<linearGradient id="paint6_linear_2277_4817" x1="3.64254" y1="3.92285" x2="12.9765" y2="12.2219" gradientUnits="userSpaceOnUse">
<stop stop-color="#D18631"/>
<stop offset="1" stop-color="#C46029"/>
</linearGradient>
<linearGradient id="paint7_linear_2277_4817" x1="4.8979" y1="5.33518" x2="13.1714" y2="12.6914" gradientUnits="userSpaceOnUse">
<stop stop-color="#EBB533"/>
<stop offset="0.2779" stop-color="#ECB93A"/>
<stop offset="0.66" stop-color="#F0C54B"/>
<stop offset="1" stop-color="#F4D361"/>
</linearGradient>
<linearGradient id="paint8_linear_2277_4817" x1="7.01113" y1="4.96284" x2="12.4291" y2="12.6881" gradientUnits="userSpaceOnUse">
<stop stop-color="white"/>
<stop offset="0.1472" stop-color="#FEF8D7"/>
<stop offset="0.3518" stop-color="#FDF0A7"/>
<stop offset="0.546" stop-color="#FCEA81"/>
<stop offset="0.7243" stop-color="#FBE565"/>
<stop offset="0.8813" stop-color="#FBE254"/>
<stop offset="1" stop-color="#FBE14F"/>
</linearGradient>
<linearGradient id="paint9_linear_2277_4817" x1="6.95583" y1="4.56862" x2="13.1219" y2="13.6765" gradientUnits="userSpaceOnUse">
<stop stop-color="#FFF692"/>
<stop offset="0.1545" stop-color="#FDF08D"/>
<stop offset="0.3587" stop-color="#F6E07F"/>
<stop offset="0.5906" stop-color="#EBC467"/>
<stop offset="0.8412" stop-color="#DC9E46"/>
<stop offset="1" stop-color="#D0822E"/>
</linearGradient>
<linearGradient id="paint10_linear_2277_4817" x1="8.55974" y1="7.69103" x2="13.9007" y2="14.8252" gradientUnits="userSpaceOnUse">
<stop stop-color="#FFF692"/>
<stop offset="0.1545" stop-color="#FDF08D"/>
<stop offset="0.3587" stop-color="#F6E07F"/>
<stop offset="0.5906" stop-color="#EBC467"/>
<stop offset="0.8412" stop-color="#DC9E46"/>
<stop offset="1" stop-color="#D0822E"/>
</linearGradient>
<linearGradient id="paint11_linear_2277_4817" x1="6.74931" y1="2.01367" x2="12.7059" y2="13.3835" gradientUnits="userSpaceOnUse">
<stop offset="0.1022" stop-color="#FFF692"/>
<stop offset="0.1086" stop-color="#FFF591"/>
<stop offset="0.3812" stop-color="#F6DA69"/>
<stop offset="0.63" stop-color="#F0C64B"/>
<stop offset="0.8444" stop-color="#ECBA3A"/>
<stop offset="1" stop-color="#EBB533"/>
</linearGradient>
<linearGradient id="paint12_linear_2277_4817" x1="12.6802" y1="7.61162" x2="15.3219" y2="10.3254" gradientUnits="userSpaceOnUse">
<stop stop-color="#FFF692" stop-opacity="0"/>
<stop offset="0.1545" stop-color="#FDF08D" stop-opacity="0.1545"/>
<stop offset="0.3587" stop-color="#F6E07F" stop-opacity="0.3587"/>
<stop offset="0.5906" stop-color="#EBC467" stop-opacity="0.5906"/>
<stop offset="0.8412" stop-color="#DC9E46" stop-opacity="0.8412"/>
<stop offset="1" stop-color="#D0822E"/>
</linearGradient>
<linearGradient id="paint13_linear_2277_4817" x1="10.6253" y1="10.7183" x2="13.5197" y2="15.1552" gradientUnits="userSpaceOnUse">
<stop stop-color="#FFF692" stop-opacity="0"/>
<stop offset="0.1545" stop-color="#FDF08D" stop-opacity="0.1545"/>
<stop offset="0.3587" stop-color="#F6E07F" stop-opacity="0.3587"/>
<stop offset="0.5906" stop-color="#EBC467" stop-opacity="0.5906"/>
<stop offset="0.8412" stop-color="#DC9E46" stop-opacity="0.8412"/>
<stop offset="1" stop-color="#D0822E"/>
</linearGradient>
<linearGradient id="paint14_linear_2277_4817" x1="4.66481" y1="6.90275" x2="7.88978" y2="13.211" gradientUnits="userSpaceOnUse">
<stop stop-color="#FFF692"/>
<stop offset="0.1711" stop-color="#FDF28C"/>
<stop offset="0.3971" stop-color="#F6E77B"/>
<stop offset="0.6538" stop-color="#ECD560"/>
<stop offset="0.9314" stop-color="#DDBC3A"/>
<stop offset="1" stop-color="#D9B530"/>
</linearGradient>
<linearGradient id="paint15_linear_2277_4817" x1="14.3471" y1="-8.21039" x2="-0.0829299" y2="17.7517" gradientUnits="userSpaceOnUse">
<stop stop-color="#FFF692"/>
<stop offset="1" stop-color="#DFEFF3" stop-opacity="0"/>
</linearGradient>
<linearGradient id="paint16_linear_2277_4817" x1="18.7261" y1="-13.8799" x2="-1.7741" y2="23.0035" gradientUnits="userSpaceOnUse">
<stop stop-color="#FFF692"/>
<stop offset="1" stop-color="#DFEFF3" stop-opacity="0"/>
</linearGradient>
<linearGradient id="paint17_linear_2277_4817" x1="9.9295" y1="2.04114" x2="9.9295" y2="12.0658" gradientUnits="userSpaceOnUse">
<stop stop-color="#FFF692"/>
<stop offset="1" stop-color="#DFEFF3" stop-opacity="0"/>
</linearGradient>
<linearGradient id="paint18_linear_2277_4817" x1="7.20703" y1="15.7121" x2="8.81768" y2="15.7121" gradientUnits="userSpaceOnUse">
<stop stop-color="#FFF692"/>
<stop offset="1" stop-color="#DFEFF3" stop-opacity="0"/>
</linearGradient>
<linearGradient id="paint19_linear_2277_4817" x1="12.8705" y1="16.4648" x2="12.0155" y2="15.4894" gradientUnits="userSpaceOnUse">
<stop stop-color="#FFF692"/>
<stop offset="1" stop-color="#DFEFF3" stop-opacity="0"/>
</linearGradient>
</defs>
</svg>
