<svg width="120" height="148" viewBox="0 0 120 148" fill="none" xmlns="http://www.w3.org/2000/svg">
<g clip-path="url(#clip0_2275_2398)">
<path d="M60 0C26.9161 0 0 26.9161 0 60C0 93.0839 26.9161 120 60 120C93.0839 120 120 93.0839 120 60C120 26.9161 93.0839 0 60 0ZM28.1039 30.9321C27.3218 30.1521 27.3218 28.886 28.1039 28.1041C30.7479 25.4602 34.2619 24.0042 38.0018 24.0042C41.7417 24.0042 45.2578 25.4602 47.9018 28.1041C48.6837 28.8841 48.6837 30.1502 47.9018 30.9321C47.5118 31.3221 46.9997 31.518 46.4878 31.518C45.9757 31.518 45.4638 31.3221 45.0738 30.9321C43.1859 29.0442 40.6739 28.0041 38.0018 28.0041C35.3318 28.0041 32.8198 29.044 30.9319 30.9321C30.15 31.714 28.8839 31.714 28.1039 30.9321ZM31.9999 52.0001C31.4878 52.0001 30.9759 51.8041 30.5859 51.4141C29.8041 50.632 29.8041 49.3662 30.5859 48.5862L35.172 44.0002L30.5859 39.4139C29.8041 38.632 29.8041 37.3659 30.5859 36.5859C31.3659 35.8038 32.632 35.8038 33.4139 36.5859L37.9999 41.172L42.5859 36.5859C43.3659 35.8038 44.632 35.8038 45.4139 36.5859C46.1939 37.3659 46.1939 38.632 45.4139 39.4139L40.8279 43.9999L45.4139 48.5859C46.1939 49.3659 46.1939 50.632 45.4139 51.4139C45.0218 51.8039 44.5118 51.9998 43.9999 51.9998C43.488 51.9998 42.9759 51.8039 42.5859 51.4139L37.9999 46.8279L33.4139 51.4139C33.022 51.8039 32.512 52.0001 31.9999 52.0001ZM79.9999 78H40.0001C38.8941 78 38.0002 77.104 38.0002 76.0001C38.0002 74.8941 38.8941 74.0002 40.0001 74.0002H80.0002C81.1041 74.0002 82.0001 74.8941 82.0001 76.0001C82.0001 77.104 81.1041 78 79.9999 78ZM89.4141 48.5859C90.1941 49.3659 90.1941 50.632 89.4141 51.4139C89.0219 51.8039 88.512 51.9998 88.0001 51.9998C87.488 51.9998 86.9761 51.8039 86.5861 51.4139L82.0001 46.8279L77.4141 51.4139C77.0219 51.8039 76.512 51.9998 76.0001 51.9998C75.488 51.9998 74.9761 51.8039 74.5861 51.4139C73.8042 50.6318 73.8042 49.3659 74.5861 48.5859L79.1721 43.9999L74.5861 39.4139C73.8042 38.632 73.8042 37.3659 74.5861 36.5859C75.3661 35.8038 76.6322 35.8038 77.4141 36.5859L82.0001 41.172L86.5861 36.5859C87.3661 35.8038 88.6322 35.8038 89.4141 36.5859C90.1941 37.3659 90.1941 38.632 89.4141 39.4139L84.828 43.9999L89.4141 48.5859ZM91.8961 30.9321C91.5061 31.3221 90.994 31.518 90.4821 31.518C89.97 31.518 89.4581 31.3221 89.0681 30.9321C87.1802 29.0442 84.6682 28.0041 81.9982 28.0041C79.3261 28.0041 76.8143 29.044 74.9262 30.9321C74.1441 31.714 72.8782 31.714 72.0982 30.9321C71.3161 30.15 71.3161 28.8841 72.0982 28.1041C74.7422 25.4602 78.2583 24.0042 81.9982 24.0042C85.7381 24.0042 89.2521 25.4602 91.8961 28.1041C92.678 28.886 92.678 30.1521 91.8961 30.9321Z" fill="url(#paint0_linear_2275_2398)"/>
</g>
<ellipse cx="60" cy="142" rx="50" ry="6" fill="#131313"/>
<defs>
<linearGradient id="paint0_linear_2275_2398" x1="60" y1="0" x2="60" y2="120" gradientUnits="userSpaceOnUse">
<stop stop-color="#FFE998"/>
<stop offset="1" stop-color="#57370D"/>
</linearGradient>
<clipPath id="clip0_2275_2398">
<rect width="120" height="120" fill="white"/>
</clipPath>
</defs>
</svg>
